<?xml version="1.0" encoding="utf-8"?>
<!-- Generator: Adobe Illustrator 22.1.0, SVG Export Plug-In . SVG Version: 6.00 Build 0)  -->
<svg version="1.1" id="Layer_1" xmlns="http://www.w3.org/2000/svg" xmlns:xlink="http://www.w3.org/1999/xlink" x="0px" y="0px"
	 viewBox="0 0 500 500" style="enable-background:new 0 0 500 500;" xml:space="preserve">
<style type="text/css">
	.st0{clip-path:url(#SVGID_2_);}
	.st1{fill:#F3F2F2;}
	.st2{clip-path:url(#SVGID_4_);}
	.st3{clip-path:url(#SVGID_6_);}
	.st4{fill:none;stroke:#F3F2F2;stroke-width:3;stroke-miterlimit:10;}
	.st5{clip-path:url(#SVGID_8_);}
	.st6{clip-path:url(#SVGID_10_);}
	.st7{clip-path:url(#SVGID_12_);}
	.st8{clip-path:url(#SVGID_14_);fill:none;}
	.st9{clip-path:url(#SVGID_14_);}
	.st10{fill:#F9F7F7;}
	.st11{clip-path:url(#SVGID_16_);}
	.st12{clip-path:url(#SVGID_18_);fill:none;}
	.st13{clip-path:url(#SVGID_18_);}
	.st14{clip-path:url(#SVGID_20_);}
	.st15{clip-path:url(#SVGID_22_);}
	.st16{clip-path:url(#SVGID_24_);}
	.st17{clip-path:url(#SVGID_26_);}
	.st18{clip-path:url(#SVGID_28_);}
	.st19{clip-path:url(#SVGID_30_);}
	.st20{clip-path:url(#SVGID_32_);}
	.st21{clip-path:url(#SVGID_34_);}
	.st22{fill:none;stroke:#F9F7F7;stroke-width:3;stroke-miterlimit:10;}
	.st23{clip-path:url(#SVGID_36_);}
	.st24{clip-path:url(#SVGID_36_);fill:#F9F7F7;}
	.st25{clip-path:url(#SVGID_38_);}
	.st26{clip-path:url(#SVGID_40_);}
	.st27{clip-path:url(#SVGID_40_);fill:#F9F7F7;}
	.st28{clip-path:url(#SVGID_42_);}
	.st29{clip-path:url(#SVGID_44_);}
	.st30{clip-path:url(#SVGID_46_);}
	.st31{clip-path:url(#SVGID_48_);}
	.st32{clip-path:url(#SVGID_48_);fill:#F9F7F7;}
	.st33{clip-path:url(#SVGID_50_);fill:none;}
	.st34{clip-path:url(#SVGID_50_);}
</style>
<g>
	<defs>
		<path id="SVGID_3_" d="M-95-383.3c-17.1,79.4-60.8,142.7-119.2,197.1c-23.3,21.7-39,49-55.9,75.4c-11.5,17.9-25.4,32.7-45.3,41.3
			c-18.4,8-36.7,11.1-54.1-1.4c-17.6-12.7-22-30.9-19-51.8c2.9-20,11.2-37.3,24.7-52c6.8-7.5,14-14.9,22-21.1
			c34.8-26.9,52.6-62.9,55.3-106c3.7-58.8,29.8-106,71.1-146.2c15-14.6,32.7-23.8,52.5-29.4c5.1,0,10.1,0,15.2,0
			c27.1,7,45.2,23.5,52.8,50.9C-94.9-412.2-95-397.8-95-383.3z"/>
	</defs>
	<clipPath id="SVGID_2_">
		<use xlink:href="#SVGID_3_"  style="overflow:visible;"/>
	</clipPath>
	<g class="st0">
	</g>
</g>
<g>
	<defs>
		<path id="SVGID_9_" d="M233.7-386.1c-10.2,21.6-9.1,47.1-7.7,72.7c0.8,15.6,2.8,31.3-1.7,46.7c-2,7.1-4.1,14.2-6.6,21.1
			c-1.6,4.3-1,7,2.9,9.8c22.7,16.3,45.3,32.8,67.7,49.5c4.4,3.3,7.1,3.2,11.1-0.6c33.2-32.2,61.8-67.9,83.9-108.6
			c21.9-40.3,33.6-83.4,32.4-129.6c-0.3-13.3-2.9-26.2-8.7-38.3c-13.4-28-49.7-39.2-76.4-27.2c-16.1,7.2-30.2,17.2-43.4,28.8
			C264.6-441.7,245-414.4,233.7-386.1z"/>
	</defs>
	<clipPath id="SVGID_4_">
		<use xlink:href="#SVGID_9_"  style="overflow:visible;"/>
	</clipPath>
	<g class="st2">
		<line class="st4" x1="259.7" y1="5.2" x2="149.1" y2="-271.3"/>
		<line class="st4" x1="241.5" y1="13.2" x2="130.9" y2="-263.2"/>
		<line class="st4" x1="223" y1="18.2" x2="112.4" y2="-258.2"/>
		<line class="st4" x1="205.6" y1="26" x2="95" y2="-250.5"/>
		<line class="st4" x1="188.2" y1="33.7" x2="77.6" y2="-242.7"/>
		<line class="st4" x1="170" y1="41.8" x2="59.4" y2="-234.7"/>
		<line class="st4" x1="151.5" y1="46.8" x2="40.9" y2="-229.7"/>
		<line class="st4" x1="133.5" y1="53.1" x2="22.9" y2="-223.3"/>
	</g>
</g>
<g>
	<defs>
		<path id="SVGID_11_" d="M217.8-77c23.8-19.8,39.5-45,53.1-71.9c1.6-3.2,0.9-5-1.8-7.1c-23.1-17.9-46.1-35.8-69.1-53.8
			c-2.4-1.9-4.5-2.4-7-0.2c-23.6,20.6-45.4,42.8-58.1,72.1c-6.5,15.1-8.3,30.5-0.8,46c14.2,29,50.6,38.4,76.9,19.6
			C213.5-74,215.8-75.5,217.8-77z"/>
	</defs>
	<clipPath id="SVGID_6_">
		<use xlink:href="#SVGID_11_"  style="overflow:visible;"/>
	</clipPath>
	<g class="st3">
		<line class="st4" x1="242.6" y1="48.2" x2="131.9" y2="-228.2"/>
		<line class="st4" x1="224.4" y1="56.3" x2="113.8" y2="-220.1"/>
		<line class="st4" x1="205.9" y1="61.3" x2="95.3" y2="-215.1"/>
		<line class="st4" x1="188.5" y1="69.1" x2="77.8" y2="-207.4"/>
		<line class="st4" x1="171.1" y1="76.8" x2="60.4" y2="-199.6"/>
		<line class="st4" x1="152.9" y1="84.9" x2="42.3" y2="-191.6"/>
		<line class="st4" x1="134.4" y1="89.9" x2="23.7" y2="-186.6"/>
		<line class="st4" x1="116.4" y1="96.2" x2="5.8" y2="-180.2"/>
		<line class="st4" x1="347.6" y1="5.5" x2="237" y2="-271"/>
		<line class="st4" x1="329.7" y1="11.8" x2="219" y2="-264.6"/>
		<line class="st4" x1="312.2" y1="19.6" x2="201.6" y2="-256.9"/>
		<line class="st4" x1="294.1" y1="27.6" x2="183.4" y2="-248.8"/>
		<line class="st4" x1="276.1" y1="34" x2="165.5" y2="-242.4"/>
		<line class="st4" x1="258.7" y1="41.7" x2="148.1" y2="-234.7"/>
	</g>
</g>
<g>
	<defs>
		<circle id="SVGID_33_" cx="-270" cy="250" r="205.5"/>
	</defs>
	<clipPath id="SVGID_8_">
		<use xlink:href="#SVGID_33_"  style="overflow:visible;"/>
	</clipPath>
	<g class="st5">
		<line class="st22" x1="7.6" y1="263" x2="-145.5" y2="117.8"/>
		<line class="st22" x1="15.8" y1="252.2" x2="-137.3" y2="106.9"/>
		<line class="st22" x1="24.7" y1="242" x2="-128.4" y2="96.7"/>
	</g>
</g>
<g>
	<defs>
		<circle id="SVGID_35_" cx="809.9" cy="280.7" r="124.3"/>
	</defs>
	<clipPath id="SVGID_10_">
		<use xlink:href="#SVGID_35_"  style="overflow:visible;"/>
	</clipPath>
	<g class="st6">
		<g>
			<line class="st22" x1="486.2" y1="269.8" x2="654.1" y2="429.1"/>
			<line class="st22" x1="475.1" y1="280.6" x2="643" y2="439.9"/>
			<line class="st22" x1="466.2" y1="292.5" x2="634.1" y2="451.9"/>
			<line class="st22" x1="455.6" y1="302.9" x2="623.5" y2="462.2"/>
			<line class="st22" x1="445" y1="313.2" x2="612.9" y2="472.6"/>
			<line class="st22" x1="433.9" y1="324" x2="601.9" y2="483.4"/>
			<line class="st22" x1="425" y1="336" x2="592.9" y2="495.3"/>
			<line class="st22" x1="415.2" y1="347.1" x2="583.2" y2="506.5"/>
			<line class="st22" x1="495.5" y1="260" x2="663.4" y2="419.3"/>
		</g>
	</g>
</g>
<g>
	<defs>
		<circle id="SVGID_39_" cx="250" cy="225.6" r="132.5"/>
	</defs>
	<clipPath id="SVGID_12_">
		<use xlink:href="#SVGID_39_"  style="overflow:visible;"/>
	</clipPath>
	<g class="st7">
		<g>
			<line class="st22" x1="-90.2" y1="-102" x2="186.3" y2="160.4"/>
			<line class="st22" x1="-108.4" y1="-84.2" x2="168.2" y2="178.2"/>
			<line class="st22" x1="-123.1" y1="-64.6" x2="153.4" y2="197.9"/>
			<line class="st22" x1="-140.5" y1="-47.5" x2="136" y2="214.9"/>
			<line class="st22" x1="-158" y1="-30.4" x2="118.6" y2="232"/>
			<line class="st22" x1="-176.2" y1="-12.6" x2="100.4" y2="249.8"/>
			<line class="st22" x1="-190.9" y1="7" x2="85.6" y2="269.4"/>
			<line class="st22" x1="-206.9" y1="25.4" x2="69.6" y2="287.8"/>
			<line class="st22" x1="44.7" y1="-242.9" x2="321.2" y2="19.5"/>
			<line class="st22" x1="26.5" y1="-225.1" x2="303" y2="37.3"/>
			<line class="st22" x1="10.5" y1="-206.8" x2="287" y2="55.7"/>
			<line class="st22" x1="-5.6" y1="-188.4" x2="270.9" y2="74"/>
			<line class="st22" x1="-23.1" y1="-171.3" x2="253.4" y2="91.1"/>
			<line class="st22" x1="-41.3" y1="-153.5" x2="235.2" y2="108.9"/>
			<line class="st22" x1="-57.3" y1="-135.2" x2="219.2" y2="127.2"/>
			<line class="st22" x1="-74.8" y1="-118.1" x2="201.7" y2="144.3"/>
			<line class="st22" x1="205.7" y1="430" x2="468.1" y2="153.5"/>
			<line class="st22" x1="223.5" y1="448.2" x2="485.9" y2="171.7"/>
			<line class="st22" x1="243.2" y1="462.9" x2="505.6" y2="186.4"/>
			<line class="st22" x1="260.2" y1="480.4" x2="522.6" y2="203.9"/>
			<line class="st22" x1="277.3" y1="497.8" x2="539.7" y2="221.3"/>
			<line class="st22" x1="295.1" y1="516" x2="557.5" y2="239.5"/>
			<line class="st22" x1="314.7" y1="530.7" x2="577.1" y2="254.2"/>
			<line class="st22" x1="333.1" y1="546.8" x2="595.5" y2="270.3"/>
			<line class="st22" x1="64.8" y1="295.1" x2="327.2" y2="18.6"/>
			<line class="st22" x1="82.6" y1="313.3" x2="345" y2="36.8"/>
			<line class="st22" x1="101" y1="329.4" x2="363.4" y2="52.9"/>
			<line class="st22" x1="119.3" y1="345.5" x2="381.7" y2="69"/>
			<line class="st22" x1="136.4" y1="362.9" x2="398.8" y2="86.4"/>
			<line class="st22" x1="154.2" y1="381.1" x2="416.6" y2="104.6"/>
			<line class="st22" x1="172.5" y1="397.2" x2="434.9" y2="120.7"/>
			<line class="st22" x1="189.6" y1="414.7" x2="452" y2="138.1"/>
		</g>
		<g>
			<line class="st22" x1="736.5" y1="133.9" x2="460" y2="-128.5"/>
			<line class="st22" x1="754.7" y1="116.1" x2="478.2" y2="-146.3"/>
			<line class="st22" x1="769.4" y1="96.5" x2="492.9" y2="-166"/>
			<line class="st22" x1="601.6" y1="274.8" x2="325.1" y2="12.4"/>
			<line class="st22" x1="619.8" y1="257" x2="343.3" y2="-5.4"/>
			<line class="st22" x1="635.9" y1="238.6" x2="359.4" y2="-23.8"/>
			<line class="st22" x1="652" y1="220.3" x2="375.5" y2="-42.1"/>
			<line class="st22" x1="669.4" y1="203.2" x2="392.9" y2="-59.2"/>
			<line class="st22" x1="687.6" y1="185.4" x2="411.1" y2="-77"/>
			<line class="st22" x1="703.7" y1="167.1" x2="427.2" y2="-95.3"/>
			<line class="st22" x1="721.1" y1="150" x2="444.6" y2="-112.4"/>
			<line class="st22" x1="581.5" y1="-263.2" x2="319.1" y2="13.3"/>
		</g>
	</g>
	<circle style="clip-path:url(#SVGID_12_);fill:#F9F7F7;" cx="124.9" cy="3" r="79.5"/>
	<circle style="clip-path:url(#SVGID_12_);fill:#F9F7F7;" cx="443" cy="-84" r="204.6"/>
</g>
</svg>
