<?xml version="1.0" encoding="utf-8"?>
<!-- Generator: Adobe Illustrator 22.1.0, SVG Export Plug-In . SVG Version: 6.00 Build 0)  -->
<svg version="1.1" id="Layer_1" xmlns="http://www.w3.org/2000/svg" xmlns:xlink="http://www.w3.org/1999/xlink" x="0px" y="0px"
	 viewBox="0 0 500 500" style="enable-background:new 0 0 500 500;" xml:space="preserve">
<style type="text/css">
	.st0{clip-path:url(#SVGID_2_);}
	.st1{fill:#F3F2F2;}
	.st2{clip-path:url(#SVGID_4_);}
	.st3{clip-path:url(#SVGID_6_);}
	.st4{fill:none;stroke:#F3F2F2;stroke-width:3;stroke-miterlimit:10;}
	.st5{clip-path:url(#SVGID_8_);}
	.st6{clip-path:url(#SVGID_10_);}
	.st7{clip-path:url(#SVGID_12_);}
	.st8{clip-path:url(#SVGID_14_);fill:none;}
	.st9{clip-path:url(#SVGID_14_);}
	.st10{fill:#F9F7F7;}
	.st11{clip-path:url(#SVGID_16_);}
	.st12{clip-path:url(#SVGID_18_);fill:none;}
	.st13{clip-path:url(#SVGID_18_);}
	.st14{clip-path:url(#SVGID_20_);}
	.st15{clip-path:url(#SVGID_22_);}
	.st16{clip-path:url(#SVGID_24_);}
	.st17{clip-path:url(#SVGID_26_);}
	.st18{clip-path:url(#SVGID_28_);}
	.st19{clip-path:url(#SVGID_30_);}
	.st20{clip-path:url(#SVGID_32_);}
	.st21{clip-path:url(#SVGID_34_);}
	.st22{fill:none;stroke:#F9F7F7;stroke-width:3;stroke-miterlimit:10;}
	.st23{clip-path:url(#SVGID_36_);}
	.st24{clip-path:url(#SVGID_36_);fill:#F9F7F7;}
	.st25{clip-path:url(#SVGID_38_);}
	.st26{clip-path:url(#SVGID_40_);}
	.st27{clip-path:url(#SVGID_40_);fill:#F9F7F7;}
	.st28{clip-path:url(#SVGID_42_);}
	.st29{clip-path:url(#SVGID_44_);}
	.st30{clip-path:url(#SVGID_46_);}
	.st31{clip-path:url(#SVGID_48_);}
	.st32{clip-path:url(#SVGID_48_);fill:#F9F7F7;}
	.st33{clip-path:url(#SVGID_50_);fill:none;}
	.st34{clip-path:url(#SVGID_50_);}
</style>
<g>
	<defs>
		<path id="SVGID_3_" d="M425-383.3c-17.1,79.4-60.8,142.7-119.2,197.1c-23.3,21.7-39,49-55.9,75.4c-11.5,17.9-25.4,32.7-45.3,41.3
			c-18.4,8-36.7,11.1-54.1-1.4c-17.6-12.7-22-30.9-19-51.8c2.9-20,11.2-37.3,24.7-52c6.8-7.5,14-14.9,22-21.1
			c34.8-26.9,52.6-62.9,55.3-106c3.7-58.8,29.8-106,71.1-146.2c15-14.6,32.7-23.8,52.5-29.4c5.1,0,10.1,0,15.2,0
			c27.1,7,45.2,23.5,52.8,50.9C425.1-412.2,425-397.8,425-383.3z"/>
	</defs>
	<clipPath id="SVGID_2_">
		<use xlink:href="#SVGID_3_"  style="overflow:visible;"/>
	</clipPath>
	<g class="st0">
		<path class="st1" d="M106.8-79c4.3,5.6,7,12.1,10.9,18c3.9,5.8,8.6,10.2,15,13c7.8,3.5,16.3,5.6,24.6,7.4
			c8.1,1.8,16.9,2.1,24.5,5.5c7.8,3.5,12.2,10.9,16.9,17.7c5.3,7.6,11.8,13.8,19.6,18.8c7.7,4.9,16.5,9.4,25.1,12.3
			c1.7,0.6,3.1-2.1,1.4-3c-7.7-4.2-15.9-7.2-23.4-11.8c-7.2-4.4-13.6-9.9-18.6-16.8c-4.6-6.3-8.5-13.5-15-18.1
			c-6.2-4.3-13.7-5.3-21-6.5c-8.7-1.4-17.3-3.5-25.7-6.1c-8.3-2.6-15-6.2-20.1-13.4c-4-5.7-6.9-12.1-11.1-17.7
			c-3.9-5.2-8.8-9.1-14.8-11.5c-14.7-5.8-31.4-3.2-45.9-9.9c-0.6-0.3-1.1,0.7-0.5,1c12.4,6.3,26.5,5.6,39.7,9.3
			C95.8-88.7,102.2-85.1,106.8-79z"/>
		<path class="st1" d="M228.1,45.1c-7.7-4.2-15.9-7.2-23.4-11.8c-7.2-4.4-13.6-9.9-18.6-16.8c-4.6-6.3-8.5-13.5-15-18.1
			c-6.2-4.3-13.7-5.4-21-6.5c-8.7-1.4-17.3-3.5-25.7-6.1c-8.3-2.6-15-6.2-20.1-13.4c-4-5.7-6.9-12.1-11.1-17.7
			c-3.9-5.2-8.8-9.1-14.8-11.5c-14.7-5.8-31.4-3.2-45.9-9.9c-0.6-0.3-1.1,0.7-0.5,1c12.4,6.3,26.5,5.6,39.7,9.3
			c7.3,2,13.6,5.7,18.3,11.8c4.3,5.6,7,12.1,10.9,18c3.9,5.8,8.6,10.2,15,13c7.8,3.5,16.3,5.6,24.6,7.4c8.1,1.8,16.9,2.1,24.5,5.5
			c7.8,3.5,12.2,10.9,16.9,17.7c5.3,7.6,11.8,13.8,19.6,18.8c7.7,4.9,16.5,9.4,25.1,12.3C228.4,48.7,229.7,46,228.1,45.1z"/>
		<path class="st1" d="M196.3,0.5c-4.6-6.3-8.5-13.5-15-18.1c-6.2-4.3-13.7-5.4-21-6.5c-8.7-1.4-17.3-3.5-25.7-6.1
			c-8.3-2.6-15-6.2-20.1-13.4c-4-5.7-6.9-12.1-11.1-17.7c-3.9-5.2-8.8-9.1-14.8-11.5C74-78.6,57.3-76,42.8-82.7
			c-0.6-0.3-1.1,0.7-0.5,1c12.4,6.3,26.5,5.6,39.7,9.3c7.3,2,13.6,5.7,18.3,11.8c4.3,5.6,7,12.1,10.9,18c3.9,5.8,8.6,10.2,15,13
			c7.8,3.5,16.3,5.6,24.6,7.4c8.1,1.8,16.9,2.1,24.5,5.5c7.8,3.5,12.2,10.9,16.9,17.7c5.3,7.6,11.8,13.8,19.6,18.8
			c7.7,4.9,16.5,9.4,25.1,12.3c1.7,0.6,3.1-2.1,1.4-3c-7.7-4.2-15.9-7.2-23.4-11.8C207.7,12.9,201.3,7.4,196.3,0.5z"/>
	</g>
</g>
<g>
	<defs>
		<path id="SVGID_9_" d="M753.7-386.1c-10.2,21.6-9.1,47.1-7.7,72.7c0.8,15.6,2.8,31.3-1.7,46.7c-2,7.1-4.1,14.2-6.6,21.1
			c-1.6,4.3-1,7,2.9,9.8c22.7,16.3,45.3,32.8,67.7,49.5c4.4,3.3,7.1,3.2,11.1-0.6c33.2-32.2,61.8-67.9,83.9-108.6
			c21.9-40.3,33.6-83.4,32.4-129.6c-0.3-13.3-2.9-26.2-8.7-38.3c-13.4-28-49.7-39.2-76.4-27.2c-16.1,7.2-30.2,17.2-43.4,28.8
			C784.6-441.7,765-414.4,753.7-386.1z"/>
	</defs>
	<clipPath id="SVGID_4_">
		<use xlink:href="#SVGID_9_"  style="overflow:visible;"/>
	</clipPath>
</g>
<g>
	<defs>
		<circle id="SVGID_33_" cx="250" cy="250" r="205.5"/>
	</defs>
	<clipPath id="SVGID_6_">
		<use xlink:href="#SVGID_33_"  style="overflow:visible;"/>
	</clipPath>
	<g class="st3">
		<line class="st22" x1="22.3" y1="181.9" x2="175.4" y2="327.2"/>
		<line class="st22" x1="12.3" y1="191.8" x2="165.4" y2="337"/>
		<line class="st22" x1="4.1" y1="202.6" x2="157.2" y2="347.9"/>
		<line class="st22" x1="-5.5" y1="212.1" x2="147.5" y2="357.4"/>
		<line class="st22" x1="-15.2" y1="221.5" x2="137.9" y2="366.8"/>
		<line class="st22" x1="-25.3" y1="231.4" x2="127.8" y2="376.7"/>
		<line class="st22" x1="-33.4" y1="242.3" x2="119.7" y2="387.6"/>
		<line class="st22" x1="-42.3" y1="252.4" x2="110.8" y2="397.7"/>
		<line class="st22" x1="97" y1="103.9" x2="250.1" y2="249.2"/>
		<line class="st22" x1="86.9" y1="113.7" x2="240" y2="259"/>
		<line class="st22" x1="78" y1="123.9" x2="231.1" y2="269.2"/>
		<line class="st22" x1="69.1" y1="134.1" x2="222.2" y2="279.4"/>
		<line class="st22" x1="59.5" y1="143.5" x2="212.6" y2="288.8"/>
		<line class="st22" x1="49.4" y1="153.4" x2="202.5" y2="298.7"/>
		<line class="st22" x1="40.5" y1="163.5" x2="193.6" y2="308.8"/>
		<line class="st22" x1="30.8" y1="173" x2="183.9" y2="318.3"/>
		<line class="st22" x1="186.1" y1="476.5" x2="331.4" y2="323.4"/>
		<line class="st22" x1="196" y1="486.6" x2="341.3" y2="333.5"/>
		<line class="st22" x1="206.9" y1="494.7" x2="352.2" y2="341.6"/>
		<line class="st22" x1="216.3" y1="504.4" x2="361.6" y2="351.3"/>
		<line class="st22" x1="225.8" y1="514" x2="371.1" y2="360.9"/>
		<line class="st22" x1="235.6" y1="524.1" x2="380.9" y2="371"/>
		<line class="st22" x1="246.5" y1="532.2" x2="391.8" y2="379.1"/>
		<line class="st22" x1="256.7" y1="541.1" x2="402" y2="388"/>
		<line class="st22" x1="108.1" y1="401.8" x2="253.4" y2="248.7"/>
		<line class="st22" x1="118" y1="411.9" x2="263.3" y2="258.8"/>
		<line class="st22" x1="128.1" y1="420.8" x2="273.4" y2="267.7"/>
		<line class="st22" x1="138.3" y1="429.7" x2="283.6" y2="276.6"/>
		<line class="st22" x1="147.8" y1="439.3" x2="293" y2="286.2"/>
		<line class="st22" x1="157.6" y1="449.4" x2="302.9" y2="296.3"/>
		<line class="st22" x1="167.8" y1="458.3" x2="313.1" y2="305.2"/>
		<line class="st22" x1="177.2" y1="468" x2="322.5" y2="314.9"/>
	</g>
	<g class="st3">
		<line class="st22" x1="480" y1="312.5" x2="326.9" y2="167.2"/>
		<line class="st22" x1="490.1" y1="302.7" x2="337" y2="157.4"/>
		<line class="st22" x1="498.3" y1="291.8" x2="345.2" y2="146.5"/>
		<line class="st22" x1="507.9" y1="282.3" x2="354.8" y2="137.1"/>
		<line class="st22" x1="517.6" y1="272.9" x2="364.5" y2="127.6"/>
		<line class="st22" x1="527.6" y1="263" x2="374.5" y2="117.8"/>
		<line class="st22" x1="535.8" y1="252.2" x2="382.7" y2="106.9"/>
		<line class="st22" x1="544.7" y1="242" x2="391.6" y2="96.7"/>
		<line class="st22" x1="405.3" y1="390.5" x2="252.3" y2="245.2"/>
		<line class="st22" x1="415.4" y1="380.7" x2="262.3" y2="235.4"/>
		<line class="st22" x1="424.3" y1="370.5" x2="271.2" y2="225.2"/>
		<line class="st22" x1="433.2" y1="360.3" x2="280.1" y2="215.1"/>
		<line class="st22" x1="442.9" y1="350.9" x2="289.8" y2="205.6"/>
		<line class="st22" x1="453" y1="341" x2="299.9" y2="195.8"/>
		<line class="st22" x1="461.9" y1="330.9" x2="308.8" y2="185.6"/>
		<line class="st22" x1="471.5" y1="321.4" x2="318.4" y2="176.2"/>
		<line class="st22" x1="316.2" y1="17.9" x2="170.9" y2="171"/>
		<line class="st22" x1="306.4" y1="7.9" x2="161.1" y2="161"/>
		<line class="st22" x1="295.5" y1="-0.3" x2="150.2" y2="152.8"/>
		<line class="st22" x1="286" y1="-9.9" x2="140.8" y2="143.2"/>
		<line class="st22" x1="276.6" y1="-19.6" x2="131.3" y2="133.5"/>
		<line class="st22" x1="266.7" y1="-29.7" x2="121.5" y2="123.4"/>
		<line class="st22" x1="255.9" y1="-37.8" x2="110.6" y2="115.3"/>
		<line class="st22" x1="245.7" y1="-46.7" x2="100.4" y2="106.4"/>
		<line class="st22" x1="394.2" y1="92.6" x2="249" y2="245.7"/>
		<line class="st22" x1="384.4" y1="82.6" x2="239.1" y2="235.7"/>
		<line class="st22" x1="374.2" y1="73.7" x2="228.9" y2="226.8"/>
		<line class="st22" x1="364.1" y1="64.8" x2="218.8" y2="217.8"/>
		<line class="st22" x1="354.6" y1="55.1" x2="209.3" y2="208.2"/>
		<line class="st22" x1="344.8" y1="45" x2="199.5" y2="198.1"/>
		<line class="st22" x1="334.6" y1="36.1" x2="189.3" y2="189.2"/>
		<line class="st22" x1="325.1" y1="26.5" x2="179.9" y2="179.6"/>
	</g>
</g>
<g>
	<defs>
		<circle id="SVGID_39_" cx="770" cy="225.6" r="132.5"/>
	</defs>
	<clipPath id="SVGID_8_">
		<use xlink:href="#SVGID_39_"  style="overflow:visible;"/>
	</clipPath>
	<g class="st5">
		<g>
			<line class="st22" x1="429.8" y1="-102" x2="706.3" y2="160.4"/>
			<line class="st22" x1="411.6" y1="-84.2" x2="688.2" y2="178.2"/>
			<line class="st22" x1="396.9" y1="-64.6" x2="673.4" y2="197.9"/>
			<line class="st22" x1="379.5" y1="-47.5" x2="656" y2="214.9"/>
			<line class="st22" x1="362" y1="-30.4" x2="638.6" y2="232"/>
			<line class="st22" x1="343.8" y1="-12.6" x2="620.4" y2="249.8"/>
			<line class="st22" x1="329.1" y1="7" x2="605.6" y2="269.4"/>
			<line class="st22" x1="313.1" y1="25.4" x2="589.6" y2="287.8"/>
			<line class="st22" x1="496.9" y1="-171.3" x2="773.4" y2="91.1"/>
			<line class="st22" x1="478.7" y1="-153.5" x2="755.2" y2="108.9"/>
			<line class="st22" x1="462.7" y1="-135.2" x2="739.2" y2="127.2"/>
			<line class="st22" x1="445.2" y1="-118.1" x2="721.7" y2="144.3"/>
		</g>
	</g>
</g>
<g>
	<defs>
		<circle id="SVGID_41_" cx="257.1" cy="786.9" r="129.6"/>
	</defs>
	<clipPath id="SVGID_10_">
		<use xlink:href="#SVGID_41_"  style="overflow:visible;"/>
	</clipPath>
	<g class="st6">
		<path class="st10" d="M374.2,367.8c-21.3,1.4-40.8-8.1-61.5-10.8c-11.5-1.5-22.6-0.2-32.8,5.6c-9.4,5.3-17.2,12.9-26.2,18.7
			c-8.9,5.8-18.2,9.1-28.9,9.3c-13,0.2-26.3-2-39.1-4.4c-12.5-2.4-25.1-7.3-37.9-7c-13.1,0.2-23.8,8-34.5,14.8
			c-12,7.6-24.9,12.3-38.9,14.6c-13.8,2.3-28.9,3.3-42.9,2.2c-2.8-0.2-3.1-4.8-0.2-5.1c13.4-1.2,26.8-0.5,40.1-2.4
			c12.9-1.9,25.1-5.7,36.3-12.4c10.3-6.2,20.1-13.9,32-16.4c11.3-2.4,22.6,0.8,33.5,3.5c13.1,3.3,26.5,5.6,39.9,6.9
			c13.2,1.3,24.9,0.3,36.4-6.8c9.1-5.6,17-12.8,26.2-18.2c8.6-5,17.9-7.5,27.8-7.2c24.2,0.6,46.1,14.4,70.6,13.8
			C375.2,366,375.2,367.7,374.2,367.8z"/>
		<path class="st10" d="M369.5,339c-21.3,1.4-40.8-8.1-61.5-10.8c-11.5-1.5-22.6-0.2-32.8,5.6c-9.4,5.3-17.2,12.9-26.2,18.7
			c-8.9,5.8-18.2,9.1-28.9,9.3c-13,0.2-26.3-2-39.1-4.4c-12.5-2.4-25.1-7.3-37.9-7c-13.1,0.2-23.8,8-34.5,14.8
			c-12,7.6-24.9,12.3-38.9,14.6c-13.8,2.3-28.9,3.3-42.9,2.2c-2.8-0.2-3.1-4.8-0.2-5.1c13.4-1.2,26.8-0.5,40.1-2.4
			c12.9-1.9,25.1-5.7,36.3-12.4c10.3-6.2,20.1-13.9,32-16.4c11.3-2.4,22.6,0.8,33.5,3.5c13.1,3.3,26.5,5.6,39.9,6.9
			c13.2,1.3,24.9,0.3,36.4-6.8c9.1-5.6,17-12.8,26.2-18.2c8.6-5,17.9-7.5,27.8-7.2c24.2,0.6,46.1,14.4,70.6,13.8
			C370.4,337.3,370.4,339,369.5,339z"/>
		<path class="st10" d="M383.8,425.2c-21.3,1.4-40.8-8.1-61.5-10.8c-11.5-1.5-22.6-0.2-32.8,5.6c-9.4,5.3-17.2,12.9-26.2,18.7
			c-8.9,5.8-18.2,9.1-28.9,9.3c-13,0.2-26.3-2-39.1-4.4c-12.5-2.4-25.1-7.3-37.9-7c-13.1,0.2-23.8,8-34.5,14.8
			c-12,7.6-24.9,12.3-38.9,14.6c-13.8,2.3-28.9,3.3-42.9,2.2c-2.8-0.2-3.1-4.8-0.2-5.1c13.4-1.2,26.8-0.5,40.1-2.4
			c12.9-1.9,25.1-5.7,36.3-12.4c10.3-6.2,20.1-13.9,32-16.4c11.3-2.4,22.6,0.8,33.5,3.5c13.1,3.3,26.5,5.6,39.9,6.9
			c13.2,1.3,24.9,0.3,36.4-6.8c9.1-5.6,17-12.8,26.2-18.2c8.6-5,17.9-7.5,27.8-7.2c24.2,0.6,46.1,14.4,70.6,13.8
			C384.8,423.5,384.8,425.2,383.8,425.2z"/>
		<path class="st10" d="M379,396.5c-21.3,1.4-40.8-8.1-61.5-10.8c-11.5-1.5-22.6-0.2-32.8,5.6c-9.4,5.3-17.2,12.9-26.2,18.7
			c-8.9,5.8-18.2,9.1-28.9,9.3c-13,0.2-26.3-2-39.1-4.4c-12.5-2.4-25.1-7.3-37.9-7c-13.1,0.2-23.8,8-34.5,14.8
			c-12,7.6-24.9,12.3-38.9,14.6c-13.8,2.3-28.9,3.3-42.9,2.2c-2.8-0.2-3.1-4.8-0.2-5.1c13.4-1.2,26.8-0.5,40.1-2.4
			c12.9-1.9,25.1-5.7,36.3-12.4c10.3-6.2,20.1-13.9,32-16.4c11.3-2.4,22.6,0.8,33.5,3.5c13.1,3.3,26.5,5.6,39.9,6.9
			c13.2,1.3,24.9,0.3,36.4-6.8c9.1-5.6,17-12.8,26.2-18.2c8.6-5,17.9-7.5,27.8-7.2c24.2,0.6,46.1,14.4,70.6,13.8
			C380,394.7,380,396.4,379,396.5z"/>
		<path class="st10" d="M299.1,477.4c-9.4,5.3-17.2,12.9-26.2,18.7c-8.9,5.8-18.2,9.1-28.9,9.3c-13,0.2-26.3-2-39.1-4.4
			c-12.5-2.4-25.1-7.3-37.9-7c-13.1,0.2-23.8,8-34.5,14.8c-12,7.6-24.9,12.3-38.9,14.6c-13.8,2.3-28.9,3.3-42.9,2.2
			c-2.8-0.2-3.1-4.8-0.2-5.1c13.4-1.2,26.8-0.5,40.1-2.4c12.9-1.9,25.1-5.7,36.3-12.4c10.3-6.2,20.1-13.9,32-16.4
			c11.3-2.4,22.6,0.8,33.5,3.5c13.1,3.3,26.5,5.6,39.9,6.9c13.2,1.3,24.9,0.3,36.4-6.8c9.1-5.6,17-12.8,26.2-18.2
			c8.6-5,17.9-7.5,27.8-7.2c24.2,0.6,46.1,14.4,70.6,13.8c1,0,1,1.7,0.1,1.7c-21.3,1.4-40.8-8.1-61.5-10.8
			C320.4,470.4,309.3,471.7,299.1,477.4z"/>
		<path class="st10" d="M388.6,454c-21.3,1.4-40.8-8.1-61.5-10.8c-11.5-1.5-22.6-0.2-32.8,5.6c-9.4,5.3-17.2,12.9-26.2,18.7
			c-8.9,5.8-18.2,9.1-28.9,9.3c-13,0.2-26.3-2-39.1-4.4c-12.5-2.4-25.1-7.3-37.9-7c-13.1,0.2-23.8,8-34.5,14.8
			c-12,7.6-24.9,12.3-38.9,14.6c-13.8,2.3-28.9,3.3-42.9,2.2c-2.8-0.2-3.1-4.8-0.2-5.1c13.4-1.2,26.8-0.5,40.1-2.4
			c12.9-1.9,25.1-5.7,36.3-12.4c10.3-6.2,20.1-13.9,32-16.4c11.3-2.4,22.6,0.8,33.5,3.5c13.1,3.3,26.5,5.6,39.9,6.9
			c13.2,1.3,24.9,0.3,36.4-6.8c9.1-5.6,17-12.8,26.2-18.2c8.6-5,17.9-7.5,27.8-7.2c24.2,0.6,46.1,14.4,70.6,13.8
			C389.6,452.2,389.6,453.9,388.6,454z"/>
		<path class="st10" d="M124.9,535.5c10.3-6.2,20.1-13.9,32-16.4c11.3-2.4,22.6,0.8,33.5,3.5c13.1,3.3,26.5,5.6,39.9,6.9
			c13.2,1.3,24.9,0.3,36.4-6.8c9.1-5.6,17-12.8,26.2-18.2c8.6-5,17.9-7.5,27.8-7.2c24.2,0.6,46.1,14.4,70.6,13.8c1,0,1,1.7,0.1,1.7
			c-21.3,1.4-40.8-8.1-61.5-10.8c-11.5-1.5-22.6-0.2-32.8,5.6c-9.4,5.3-17.2,12.9-26.2,18.7c-8.9,5.8-18.2,9.1-28.9,9.3
			c-13,0.2-26.3-2-39.1-4.4c-12.5-2.4-25.1-7.3-37.9-7c-13.1,0.2-23.8,8-34.5,14.8c-12,7.6-24.9,12.3-38.9,14.6
			c-13.8,2.3-28.9,3.3-42.9,2.2c-2.8-0.2-3.1-4.8-0.2-5.1c13.4-1.2,26.8-0.5,40.1-2.4C101.5,546,113.7,542.2,124.9,535.5z"/>
	</g>
</g>
</svg>
