<?xml version="1.0" encoding="utf-8"?>
<!-- Generator: Adobe Illustrator 22.1.0, SVG Export Plug-In . SVG Version: 6.00 Build 0)  -->
<svg version="1.1" id="Layer_1" xmlns="http://www.w3.org/2000/svg" xmlns:xlink="http://www.w3.org/1999/xlink" x="0px" y="0px"
	 viewBox="0 0 500 500" style="enable-background:new 0 0 500 500;" xml:space="preserve">
<style type="text/css">
	.st0{clip-path:url(#SVGID_2_);}
	.st1{fill:#F3F2F2;}
	.st2{clip-path:url(#SVGID_4_);}
	.st3{clip-path:url(#SVGID_6_);}
	.st4{fill:none;stroke:#F3F2F2;stroke-width:3;stroke-miterlimit:10;}
	.st5{clip-path:url(#SVGID_8_);}
	.st6{clip-path:url(#SVGID_10_);}
	.st7{clip-path:url(#SVGID_12_);}
	.st8{clip-path:url(#SVGID_14_);fill:none;}
	.st9{clip-path:url(#SVGID_14_);}
	.st10{fill:#F9F7F7;}
	.st11{clip-path:url(#SVGID_16_);}
	.st12{clip-path:url(#SVGID_18_);fill:none;}
	.st13{clip-path:url(#SVGID_18_);}
	.st14{clip-path:url(#SVGID_20_);}
	.st15{clip-path:url(#SVGID_22_);}
	.st16{clip-path:url(#SVGID_24_);}
	.st17{clip-path:url(#SVGID_26_);}
	.st18{clip-path:url(#SVGID_28_);}
	.st19{clip-path:url(#SVGID_30_);}
	.st20{clip-path:url(#SVGID_32_);}
	.st21{clip-path:url(#SVGID_34_);}
	.st22{fill:none;stroke:#F9F7F7;stroke-width:3;stroke-miterlimit:10;}
	.st23{clip-path:url(#SVGID_36_);}
	.st24{clip-path:url(#SVGID_36_);fill:#F9F7F7;}
	.st25{clip-path:url(#SVGID_38_);}
	.st26{clip-path:url(#SVGID_40_);}
	.st27{clip-path:url(#SVGID_40_);fill:#F9F7F7;}
	.st28{clip-path:url(#SVGID_42_);}
	.st29{clip-path:url(#SVGID_44_);}
	.st30{clip-path:url(#SVGID_46_);}
	.st31{clip-path:url(#SVGID_48_);}
	.st32{clip-path:url(#SVGID_48_);fill:#F9F7F7;}
	.st33{clip-path:url(#SVGID_50_);fill:none;}
	.st34{clip-path:url(#SVGID_50_);}
</style>
<g>
	<defs>
		<path id="SVGID_9_" d="M-286.3-386.1c-10.2,21.6-9.1,47.1-7.7,72.7c0.8,15.6,2.8,31.3-1.7,46.7c-2,7.1-4.1,14.2-6.6,21.1
			c-1.6,4.3-1,7,2.9,9.8c22.7,16.3,45.3,32.8,67.7,49.5c4.4,3.3,7.1,3.2,11.1-0.6c33.2-32.2,61.8-67.9,83.9-108.6
			c21.9-40.3,33.6-83.4,32.4-129.6c-0.3-13.3-2.9-26.2-8.7-38.3c-13.4-28-49.7-39.2-76.4-27.2c-16.1,7.2-30.2,17.2-43.4,28.8
			C-255.4-441.7-275-414.4-286.3-386.1z"/>
	</defs>
	<clipPath id="SVGID_2_">
		<use xlink:href="#SVGID_9_"  style="overflow:visible;"/>
	</clipPath>
	<g class="st0">
	</g>
</g>
<g>
	<defs>
		<path id="SVGID_11_" d="M-302.2-77c23.8-19.8,39.5-45,53.1-71.9c1.6-3.2,0.9-5-1.8-7.1c-23.1-17.9-46.1-35.8-69.1-53.8
			c-2.4-1.9-4.5-2.4-7-0.2c-23.6,20.6-45.4,42.8-58.1,72.1c-6.5,15.1-8.3,30.5-0.8,46c14.2,29,50.6,38.4,76.9,19.6
			C-306.5-74-304.2-75.5-302.2-77z"/>
	</defs>
	<clipPath id="SVGID_4_">
		<use xlink:href="#SVGID_11_"  style="overflow:visible;"/>
	</clipPath>
	<g class="st2">
	</g>
</g>
<g>
	<defs>
		<path id="SVGID_17_" d="M357.6-255.8c-28,35.5-94.8,60.2-94.8,60.2s-103.8-73.9-84.7-59.8c0.1,0.1-4.5-81.3,15-116.2
			c21.5-38.5,167.2-107,203.4-123.1c3.7-1.6,8,1.3,7.7,5.4C401.6-450,384.6-290.1,357.6-255.8z"/>
	</defs>
	<clipPath id="SVGID_6_">
		<use xlink:href="#SVGID_17_"  style="overflow:visible;"/>
	</clipPath>
	<g class="st3">
		<path class="st10" d="M30.5-79.7c18.9,5.3,38.2,0.4,57.4,1.8c10.6,0.8,20.4,4.1,28.5,11.1c7.5,6.5,13.1,14.7,20.1,21.6
			c6.9,6.9,14.7,11.6,24.3,13.7c11.7,2.6,24.1,3.2,36,3.4c11.7,0.2,23.9-1.8,35.4,0.8c11.8,2.7,19.9,11.6,28.3,19.7
			c9.4,9,20.2,15.7,32.3,20.3c12,4.6,25.4,8.4,38.2,10c2.6,0.3,3.7-3.7,1.1-4.5c-11.8-3.6-24-5.4-35.6-9.7
			c-11.2-4.1-21.5-9.8-30.3-17.9c-8.1-7.4-15.5-16.2-25.8-20.7c-9.7-4.2-20.5-3.6-30.8-3.2c-12.4,0.5-24.9,0-37.2-1.3
			c-12.1-1.4-22.4-4.4-31.5-12.9c-7.1-6.7-12.9-14.6-20.2-21.2c-6.8-6.1-14.7-10.1-23.7-11.7c-21.9-4-44.2,4.2-66.1-0.9
			C30-81.4,29.6-79.9,30.5-79.7z"/>
		<path class="st10" d="M97.1-17.2c7.5,6.5,13.1,14.7,20.1,21.6c6.9,6.9,14.7,11.6,24.3,13.7c11.7,2.6,24.1,3.2,36,3.4
			c11.7,0.2,23.9-1.8,35.4,0.8c11.8,2.7,19.9,11.6,28.3,19.7c9.4,9,20.2,15.7,32.3,20.3c12,4.6,25.4,8.4,38.2,10
			c2.6,0.3,3.7-3.7,1.1-4.5c-11.8-3.6-24-5.4-35.6-9.7c-11.2-4.1-21.5-9.8-30.3-17.9c-8.1-7.4-15.5-16.2-25.8-20.7
			c-9.7-4.2-20.5-3.6-30.8-3.2c-12.4,0.5-24.9,0-37.2-1.3c-12.1-1.4-22.4-4.4-31.5-12.9c-7.1-6.7-12.9-14.6-20.2-21.2
			c-6.8-6.1-14.7-10.1-23.7-11.7c-21.9-4-44.2,4.2-66.1-0.9c-0.9-0.2-1.2,1.3-0.4,1.5c18.9,5.3,38.2,0.4,57.4,1.8
			C79.2-27.5,88.9-24.3,97.1-17.2z"/>
		<path class="st10" d="M20.8-54.9c18.9,5.3,38.2,0.4,57.4,1.8C88.8-52.3,98.6-49,106.7-42c7.5,6.5,13.1,14.7,20.1,21.6
			c6.9,6.9,14.7,11.6,24.3,13.7c11.7,2.6,24.1,3.2,36,3.4c11.7,0.2,23.9-1.8,35.4,0.8c11.8,2.7,19.9,11.6,28.3,19.7
			c9.4,9,20.2,15.7,32.3,20.3c12,4.6,25.4,8.4,38.2,10c2.6,0.3,3.7-3.7,1.1-4.5c-11.8-3.6-24-5.4-35.6-9.7
			c-11.2-4.1-21.5-9.8-30.3-17.9c-8.1-7.4-15.5-16.2-25.8-20.7c-9.7-4.2-20.5-3.6-30.8-3.2c-12.4,0.5-24.9,0-37.2-1.3
			c-12.1-1.4-22.4-4.4-31.5-12.9c-7.1-6.7-12.9-14.6-20.2-21.2c-6.8-6.1-14.7-10.1-23.7-11.7c-21.9-4-44.2,4.2-66.1-0.9
			C20.3-56.7,19.9-55.2,20.8-54.9z"/>
		<path class="st10" d="M299.3,119.6c-11.8-3.6-24-5.4-35.6-9.7c-11.2-4.1-21.5-9.8-30.3-17.9c-8.1-7.4-15.5-16.2-25.8-20.7
			c-9.7-4.2-20.5-3.6-30.8-3.2c-12.4,0.5-24.9,0-37.2-1.3c-12.1-1.4-22.4-4.4-31.5-12.9c-7.1-6.7-12.9-14.6-20.2-21.2
			C81,26.7,73.1,22.7,64.2,21.1c-21.9-4-44.2,4.2-66.1-0.9c-0.9-0.2-1.2,1.3-0.4,1.5c18.9,5.3,38.2,0.4,57.4,1.8
			c10.6,0.8,20.4,4.1,28.5,11.1c7.5,6.5,13.1,14.7,20.1,21.6c6.9,6.9,14.7,11.6,24.3,13.7c11.7,2.6,24.1,3.2,36,3.4
			c11.7,0.2,23.9-1.8,35.4,0.8c11.8,2.7,19.9,11.6,28.3,19.7c9.4,9,20.2,15.7,32.3,20.3c12,4.6,25.4,8.4,38.2,10
			C300.8,124.4,301.9,120.3,299.3,119.6z"/>
		<path class="st10" d="M243,67.2c-8.1-7.4-15.5-16.2-25.8-20.7c-9.7-4.2-20.5-3.6-30.8-3.2c-12.4,0.5-24.9,0-37.2-1.3
			c-12.1-1.4-22.4-4.4-31.5-12.9c-7.1-6.7-12.9-14.6-20.2-21.2C90.7,1.9,82.8-2.1,73.8-3.7c-21.9-4-44.2,4.2-66.1-0.9
			C6.9-4.8,6.5-3.3,7.4-3.1c18.9,5.3,38.2,0.4,57.4,1.8C75.4-0.5,85.1,2.8,93.3,9.9c7.5,6.5,13.1,14.7,20.1,21.6
			c6.9,6.9,14.7,11.6,24.3,13.7c11.7,2.6,24.1,3.2,36,3.4c11.7,0.2,23.9-1.8,35.4,0.8C220.8,52,229,61,237.4,69
			c9.4,9,20.2,15.7,32.3,20.3c12,4.6,25.4,8.4,38.2,10c2.6,0.3,3.7-3.7,1.1-4.5c-11.8-3.6-24-5.4-35.6-9.7
			C262.1,81,251.8,75.3,243,67.2z"/>
	</g>
</g>
<g>
	<defs>
		<path id="SVGID_19_" d="M113-158.4c12.9-30.5,19.2-34.7,42.5-57c2.8-2.6,4.9-2.5,7.8-0.4c25.5,18.1,51,36.2,76.5,54.2
			c2.7,1.9,3.8,3.8,2.4,7.1c-13.8,30.6-15,40.1-41.2,62.1c-13.4,11.3-28.7,17.9-46.9,15c-34.1-5.5-55-40-43.9-72.7
			C111.2-153,112.1-155.9,113-158.4z"/>
	</defs>
	<clipPath id="SVGID_8_">
		<use xlink:href="#SVGID_19_"  style="overflow:visible;"/>
	</clipPath>
	<g class="st5">
		<path class="st10" d="M124.6-81.1c10.6,0.8,20.4,4.1,28.5,11.1c7.5,6.5,13.1,14.7,20.1,21.6c6.9,6.9,14.7,11.6,24.3,13.7
			c11.7,2.6,24.1,3.2,36,3.4c11.7,0.2,23.9-1.8,35.4,0.8c11.8,2.7,19.9,11.6,28.3,19.7c9.4,9,20.2,15.7,32.3,20.3
			c12,4.6,25.4,8.4,38.2,10c2.6,0.3,3.7-3.7,1.1-4.5c-11.8-3.6-24-5.4-35.6-9.7c-11.2-4.1-21.5-9.8-30.3-17.9
			c-8.1-7.4-15.5-16.2-25.8-20.7c-9.7-4.2-20.5-3.6-30.8-3.2c-12.4,0.5-24.9,0-37.2-1.3c-12.1-1.4-22.4-4.4-31.5-12.9
			c-7.1-6.7-12.9-14.6-20.2-21.2c-6.8-6.1-14.7-10.1-23.7-11.7c-21.9-4-44.2,4.2-66.1-0.9c-0.9-0.2-1.2,1.3-0.4,1.5
			C86.1-77.6,105.4-82.5,124.6-81.1z"/>
		<path class="st10" d="M47.9-33.3c18.9,5.3,38.2,0.4,57.4,1.8c10.6,0.8,20.4,4.1,28.5,11.1c7.5,6.5,13.1,14.7,20.1,21.6
			c6.9,6.9,14.7,11.6,24.3,13.7c11.7,2.6,24.1,3.2,36,3.4c11.7,0.2,23.9-1.8,35.4,0.8c11.8,2.7,19.9,11.6,28.3,19.7
			c9.4,9,20.2,15.7,32.3,20.3c12,4.6,25.4,8.4,38.2,10c2.6,0.3,3.7-3.7,1.1-4.5c-11.8-3.6-24-5.4-35.6-9.7
			c-11.2-4.1-21.5-9.8-30.3-17.9c-8.1-7.4-15.5-16.2-25.8-20.7c-9.7-4.2-20.5-3.6-30.8-3.2c-12.4,0.5-24.9,0-37.2-1.3
			c-12.1-1.4-22.4-4.4-31.5-12.9c-7.1-6.7-12.9-14.6-20.2-21.2c-6.8-6.1-14.7-10.1-23.7-11.7c-21.9-4-44.2,4.2-66.1-0.9
			C47.4-35.1,47.1-33.6,47.9-33.3z"/>
		<path class="st10" d="M57.6-58.1c18.9,5.3,38.2,0.4,57.4,1.8c10.6,0.8,20.4,4.1,28.5,11.1c7.5,6.5,13.1,14.7,20.1,21.6
			c6.9,6.9,14.7,11.6,24.3,13.7c11.7,2.6,24.1,3.2,36,3.4c11.7,0.2,23.9-1.8,35.4,0.8C271-3,279.2,6,287.6,14
			c9.4,9,20.2,15.7,32.3,20.3c12,4.6,25.4,8.4,38.2,10c2.6,0.3,3.7-3.7,1.1-4.5c-11.8-3.6-24-5.4-35.6-9.7
			c-11.2-4.1-21.5-9.8-30.3-17.9C285.1,4.8,277.7-4,267.4-8.5c-9.7-4.2-20.5-3.6-30.8-3.2c-12.4,0.5-24.9,0-37.2-1.3
			c-12.1-1.4-22.4-4.4-31.5-12.9c-7.1-6.7-12.9-14.6-20.2-21.2c-6.8-6.1-14.7-10.1-23.7-11.7c-21.9-4-44.2,4.2-66.1-0.9
			C57.1-59.9,56.7-58.4,57.6-58.1z"/>
		<path class="st10" d="M114.5,29.2c7.5,6.5,13.1,14.7,20.1,21.6c6.9,6.9,14.7,11.6,24.3,13.7c11.7,2.6,24.1,3.2,36,3.4
			c11.7,0.2,23.9-1.8,35.4,0.8c11.8,2.7,19.9,11.6,28.3,19.7c9.4,9,20.2,15.7,32.3,20.3c12,4.6,25.4,8.4,38.2,10
			c2.6,0.3,3.7-3.7,1.1-4.5c-11.8-3.6-24-5.4-35.6-9.7c-11.2-4.1-21.5-9.8-30.3-17.9c-8.1-7.4-15.5-16.2-25.8-20.7
			c-9.7-4.2-20.5-3.6-30.8-3.2c-12.4,0.5-24.9,0-37.2-1.3C158.3,60,148,56.9,139,48.4c-7.1-6.7-12.9-14.6-20.2-21.2
			c-6.8-6.1-14.7-10.1-23.7-11.7c-21.9-4-44.2,4.2-66.1-0.9c-0.9-0.2-1.2,1.3-0.4,1.5C47.5,21.5,66.8,16.6,86,18
			C96.7,18.8,106.4,22.1,114.5,29.2z"/>
		<path class="st10" d="M38.3-8.6c18.9,5.3,38.2,0.4,57.4,1.8c10.6,0.8,20.4,4.1,28.5,11.1c7.5,6.5,13.1,14.7,20.1,21.6
			c6.9,6.9,14.7,11.6,24.3,13.7c11.7,2.6,24.1,3.2,36,3.4c11.7,0.2,23.9-1.8,35.4,0.8c11.8,2.7,19.9,11.6,28.3,19.7
			c9.4,9,20.2,15.7,32.3,20.3c12,4.6,25.4,8.4,38.2,10c2.6,0.3,3.7-3.7,1.1-4.5c-11.8-3.6-24-5.4-35.6-9.7
			c-11.2-4.1-21.5-9.8-30.3-17.9c-8.1-7.4-15.5-16.2-25.8-20.7c-9.7-4.2-20.5-3.6-30.8-3.2c-12.4,0.5-24.9,0-37.2-1.3
			c-12.1-1.4-22.4-4.4-31.5-12.9c-7.1-6.7-12.9-14.6-20.2-21.2c-6.8-6.1-14.7-10.1-23.7-11.7c-21.9-4-44.2,4.2-66.1-0.9
			C37.8-10.3,37.4-8.8,38.3-8.6z"/>
		<path class="st10" d="M316.8,165.9c-11.8-3.6-24-5.4-35.6-9.7c-11.2-4.1-21.5-9.8-30.3-17.9c-8.1-7.4-15.5-16.2-25.8-20.7
			c-9.7-4.2-20.5-3.6-30.8-3.2c-12.4,0.5-24.9,0-37.2-1.3c-12.1-1.4-22.4-4.4-31.5-12.9c-7.1-6.7-12.9-14.6-20.2-21.2
			C98.5,73,90.6,69,81.6,67.4c-21.9-4-44.2,4.2-66.1-0.9c-0.9-0.2-1.2,1.3-0.4,1.5c18.9,5.3,38.2,0.4,57.4,1.8
			C83.2,70.7,93,73.9,101.1,81c7.5,6.5,13.1,14.7,20.1,21.6c6.9,6.9,14.7,11.6,24.3,13.7c11.7,2.6,24.1,3.2,36,3.4
			c11.7,0.2,23.9-1.8,35.4,0.8c11.8,2.7,19.9,11.6,28.3,19.7c9.4,9,20.2,15.7,32.3,20.3c12,4.6,25.4,8.4,38.2,10
			C318.2,170.7,319.3,166.7,316.8,165.9z"/>
		<path class="st10" d="M260.4,113.6c-8.1-7.4-15.5-16.2-25.8-20.7c-9.7-4.2-20.5-3.6-30.8-3.2c-12.4,0.5-24.9,0-37.2-1.3
			c-12.1-1.4-22.4-4.4-31.5-12.9c-7.1-6.7-12.9-14.6-20.2-21.2c-6.8-6.1-14.7-10.1-23.7-11.7c-21.9-4-44.2,4.2-66.1-0.9
			c-0.9-0.2-1.2,1.3-0.4,1.5c18.9,5.3,38.2,0.4,57.4,1.8c10.6,0.8,20.4,4.1,28.5,11.1c7.5,6.5,13.1,14.7,20.1,21.6
			c6.9,6.9,14.7,11.6,24.3,13.7c11.7,2.6,24.1,3.2,36,3.4c11.7,0.2,23.9-1.8,35.4,0.8c11.8,2.7,19.9,11.6,28.3,19.7
			c9.4,9,20.2,15.7,32.3,20.3c12,4.6,25.4,8.4,38.2,10c2.6,0.3,3.7-3.7,1.1-4.5c-11.8-3.6-24-5.4-35.6-9.7
			C279.6,127.4,269.3,121.7,260.4,113.6z"/>
	</g>
</g>
<g>
	<defs>
		<circle id="SVGID_35_" cx="289.9" cy="280.7" r="124.3"/>
	</defs>
	<clipPath id="SVGID_10_">
		<use xlink:href="#SVGID_35_"  style="overflow:visible;"/>
	</clipPath>
	<g class="st6">
		<g>
			<line class="st22" x1="-33.8" y1="269.8" x2="134.1" y2="429.1"/>
			<line class="st22" x1="-44.9" y1="280.6" x2="123" y2="439.9"/>
			<line class="st22" x1="-53.8" y1="292.5" x2="114.1" y2="451.9"/>
			<line class="st22" x1="-64.4" y1="302.9" x2="103.5" y2="462.2"/>
			<line class="st22" x1="-75" y1="313.2" x2="92.9" y2="472.6"/>
			<line class="st22" x1="-86.1" y1="324" x2="81.9" y2="483.4"/>
			<line class="st22" x1="-95" y1="336" x2="72.9" y2="495.3"/>
			<line class="st22" x1="-104.8" y1="347.1" x2="63.2" y2="506.5"/>
			<line class="st22" x1="48.1" y1="184.2" x2="216" y2="343.6"/>
			<line class="st22" x1="37" y1="195" x2="205" y2="354.4"/>
			<line class="st22" x1="27.3" y1="206.1" x2="195.2" y2="365.5"/>
			<line class="st22" x1="17.5" y1="217.3" x2="185.4" y2="376.7"/>
			<line class="st22" x1="6.9" y1="227.7" x2="174.8" y2="387"/>
			<line class="st22" x1="-4.1" y1="238.5" x2="163.8" y2="397.8"/>
			<line class="st22" x1="-13.9" y1="249.6" x2="154" y2="409"/>
			<line class="st22" x1="-24.5" y1="260" x2="143.4" y2="419.3"/>
			<line class="st22" x1="145.8" y1="592.9" x2="305.2" y2="424.9"/>
			<line class="st22" x1="156.6" y1="603.9" x2="316" y2="436"/>
			<line class="st22" x1="168.6" y1="612.9" x2="328" y2="444.9"/>
			<line class="st22" x1="178.9" y1="623.5" x2="338.3" y2="455.5"/>
			<line class="st22" x1="189.3" y1="634.1" x2="348.7" y2="466.1"/>
			<line class="st22" x1="200.1" y1="645.1" x2="359.5" y2="477.2"/>
			<line class="st22" x1="212.1" y1="654" x2="371.4" y2="486.1"/>
			<line class="st22" x1="223.2" y1="663.8" x2="382.6" y2="495.9"/>
			<line class="st22" x1="60.3" y1="511" x2="219.6" y2="343"/>
			<line class="st22" x1="71.1" y1="522" x2="230.4" y2="354.1"/>
			<line class="st22" x1="82.2" y1="531.8" x2="241.6" y2="363.8"/>
			<line class="st22" x1="93.4" y1="541.5" x2="252.7" y2="373.6"/>
			<line class="st22" x1="103.7" y1="552.1" x2="263.1" y2="384.2"/>
			<line class="st22" x1="114.5" y1="563.2" x2="273.9" y2="395.3"/>
			<line class="st22" x1="125.7" y1="573" x2="285.1" y2="405"/>
			<line class="st22" x1="136.1" y1="583.5" x2="295.4" y2="415.6"/>
		</g>
		<g>
			<line class="st22" x1="468.2" y1="413" x2="300.3" y2="253.7"/>
			<line class="st22" x1="479.3" y1="402.2" x2="311.3" y2="242.9"/>
			<line class="st22" x1="488.2" y1="390.3" x2="320.3" y2="230.9"/>
			<line class="st22" x1="498.8" y1="379.9" x2="330.9" y2="220.6"/>
			<line class="st22" x1="509.4" y1="369.6" x2="341.5" y2="210.2"/>
			<line class="st22" x1="520.4" y1="358.8" x2="352.5" y2="199.4"/>
			<line class="st22" x1="529.4" y1="346.8" x2="361.4" y2="187.4"/>
			<line class="st22" x1="539.1" y1="335.7" x2="371.2" y2="176.3"/>
			<line class="st22" x1="386.3" y1="498.6" x2="218.4" y2="339.2"/>
			<line class="st22" x1="397.3" y1="487.8" x2="229.4" y2="328.4"/>
			<line class="st22" x1="407.1" y1="476.6" x2="239.2" y2="317.3"/>
			<line class="st22" x1="416.9" y1="465.5" x2="248.9" y2="306.1"/>
			<line class="st22" x1="427.5" y1="455.1" x2="259.5" y2="295.8"/>
			<line class="st22" x1="438.5" y1="444.3" x2="270.6" y2="285"/>
			<line class="st22" x1="448.3" y1="433.2" x2="280.3" y2="273.8"/>
			<line class="st22" x1="458.9" y1="422.8" x2="290.9" y2="263.5"/>
			<line class="st22" x1="288.5" y1="89.9" x2="129.2" y2="257.8"/>
			<line class="st22" x1="277.7" y1="78.9" x2="118.4" y2="246.8"/>
			<line class="st22" x1="265.8" y1="69.9" x2="106.4" y2="237.9"/>
			<line class="st22" x1="255.4" y1="59.3" x2="96.1" y2="227.3"/>
			<line class="st22" x1="245.1" y1="48.7" x2="85.7" y2="216.7"/>
			<line class="st22" x1="234.3" y1="37.7" x2="74.9" y2="205.6"/>
			<line class="st22" x1="222.3" y1="28.7" x2="62.9" y2="196.7"/>
			<line class="st22" x1="211.2" y1="19" x2="51.8" y2="186.9"/>
			<line class="st22" x1="374.1" y1="171.8" x2="214.7" y2="339.8"/>
			<line class="st22" x1="363.3" y1="160.8" x2="203.9" y2="328.7"/>
			<line class="st22" x1="352.1" y1="151" x2="192.8" y2="319"/>
			<line class="st22" x1="341" y1="141.3" x2="181.6" y2="309.2"/>
			<line class="st22" x1="330.6" y1="130.7" x2="171.3" y2="298.6"/>
			<line class="st22" x1="319.8" y1="119.6" x2="160.5" y2="287.5"/>
			<line class="st22" x1="308.7" y1="109.8" x2="149.3" y2="277.8"/>
			<line class="st22" x1="298.3" y1="99.3" x2="138.9" y2="267.2"/>
		</g>
	</g>
	<circle style="clip-path:url(#SVGID_10_);fill:#F9F7F7;" cx="96.8" cy="333.5" r="48.3"/>
</g>
<g>
	<defs>
		<circle id="SVGID_37_" cx="793.9" cy="280.7" r="85"/>
	</defs>
	<clipPath id="SVGID_12_">
		<use xlink:href="#SVGID_37_"  style="overflow:visible;"/>
	</clipPath>
	<g class="st7">
		<g>
			<line class="st22" x1="491.6" y1="245" x2="787.2" y2="525.5"/>
			<line class="st22" x1="472.2" y1="264" x2="767.7" y2="544.5"/>
			<line class="st22" x1="456.4" y1="285.1" x2="752" y2="565.5"/>
			<line class="st22" x1="439.3" y1="304.7" x2="734.8" y2="585.1"/>
		</g>
	</g>
</g>
<g>
	<defs>
		<circle id="SVGID_39_" cx="-270" cy="225.6" r="132.5"/>
	</defs>
	<clipPath id="SVGID_14_">
		<use xlink:href="#SVGID_39_"  style="overflow:visible;"/>
	</clipPath>
	<g class="st9">
		<g>
			<line class="st22" x1="-259.8" y1="480.4" x2="2.6" y2="203.9"/>
			<line class="st22" x1="-242.7" y1="497.8" x2="19.7" y2="221.3"/>
			<line class="st22" x1="-224.9" y1="516" x2="37.5" y2="239.5"/>
			<line class="st22" x1="-205.3" y1="530.7" x2="57.1" y2="254.2"/>
			<line class="st22" x1="-186.9" y1="546.8" x2="75.5" y2="270.3"/>
		</g>
		<g>
			<line class="st22" x1="216.5" y1="133.9" x2="-60" y2="-128.5"/>
			<line class="st22" x1="234.7" y1="116.1" x2="-41.8" y2="-146.3"/>
			<line class="st22" x1="249.4" y1="96.5" x2="-27.1" y2="-166"/>
			<line class="st22" x1="266.9" y1="79.4" x2="-9.7" y2="-183"/>
			<line class="st22" x1="284.3" y1="62.3" x2="7.8" y2="-200.1"/>
			<line class="st22" x1="302.5" y1="44.5" x2="26" y2="-217.9"/>
			<line class="st22" x1="317.2" y1="24.9" x2="40.7" y2="-237.5"/>
			<line class="st22" x1="333.3" y1="6.5" x2="56.8" y2="-255.9"/>
			<line class="st22" x1="81.6" y1="274.8" x2="-194.9" y2="12.4"/>
			<line class="st22" x1="99.8" y1="257" x2="-176.7" y2="-5.4"/>
			<line class="st22" x1="115.9" y1="238.6" x2="-160.6" y2="-23.8"/>
			<line class="st22" x1="132" y1="220.3" x2="-144.5" y2="-42.1"/>
			<line class="st22" x1="149.4" y1="203.2" x2="-127.1" y2="-59.2"/>
			<line class="st22" x1="167.6" y1="185.4" x2="-108.9" y2="-77"/>
			<line class="st22" x1="183.7" y1="167.1" x2="-92.8" y2="-95.3"/>
			<line class="st22" x1="201.1" y1="150" x2="-75.4" y2="-112.4"/>
			<line class="st22" x1="61.5" y1="-263.2" x2="-200.9" y2="13.3"/>
		</g>
	</g>
	<circle style="clip-path:url(#SVGID_14_);fill:#F9F7F7;" cx="-77" cy="-84" r="204.6"/>
</g>
<g>
	<defs>
		<circle id="SVGID_43_" cx="233.4" cy="749" r="72.8"/>
	</defs>
	<clipPath id="SVGID_16_">
		<use xlink:href="#SVGID_43_"  style="overflow:visible;"/>
	</clipPath>
	<g class="st11">
		<path class="st10" d="M367.6,204.8c-18.2,1.2-34.9-6.9-52.7-9.3c-9.9-1.3-19.4-0.2-28.1,4.8c-8,4.5-14.7,11-22.4,16
			c-7.6,5-15.6,7.8-24.8,8c-11.1,0.2-22.6-1.7-33.5-3.8c-10.7-2.1-21.5-6.2-32.5-6c-11.3,0.2-20.4,6.9-29.6,12.7
			c-10.3,6.5-21.4,10.5-33.4,12.5c-11.9,1.9-24.7,2.8-36.7,1.9c-2.4-0.2-2.6-4.1-0.1-4.3c11.5-1,22.9-0.4,34.4-2.1
			c11-1.6,21.5-4.9,31.1-10.6c8.8-5.3,17.2-11.9,27.4-14.1c9.7-2,19.3,0.6,28.7,3c11.3,2.8,22.7,4.8,34.2,5.9
			c11.3,1.1,21.3,0.2,31.2-5.9c7.8-4.8,14.6-11,22.5-15.6c7.3-4.3,15.3-6.4,23.8-6.2c20.7,0.6,39.5,12.3,60.4,11.8
			C368.4,203.3,368.5,204.7,367.6,204.8z"/>
		<path class="st10" d="M363.5,180.2c-18.2,1.2-34.9-6.9-52.7-9.3c-9.9-1.3-19.4-0.2-28.1,4.8c-8,4.5-14.7,11-22.4,16
			c-7.6,5-15.6,7.8-24.8,8c-11.1,0.2-22.6-1.7-33.5-3.8c-10.7-2.1-21.5-6.2-32.5-6c-11.3,0.2-20.4,6.9-29.6,12.7
			c-10.3,6.5-21.4,10.5-33.4,12.5c-11.9,1.9-24.7,2.8-36.7,1.9c-2.4-0.2-2.6-4.1-0.1-4.3c11.5-1,22.9-0.4,34.4-2.1
			c11-1.6,21.5-4.9,31.1-10.6c8.8-5.3,17.2-11.9,27.4-14.1c9.7-2,19.3,0.6,28.7,3c11.3,2.8,22.7,4.8,34.2,5.9
			c11.3,1.1,21.3,0.2,31.2-5.9c7.8-4.8,14.6-11,22.5-15.6c7.3-4.3,15.3-6.4,23.8-6.2c20.7,0.6,39.5,12.3,60.4,11.8
			C364.3,178.6,364.4,180.1,363.5,180.2z"/>
		<path class="st10" d="M375.8,254c-18.2,1.2-34.9-6.9-52.7-9.3c-9.9-1.3-19.4-0.2-28.1,4.8c-8,4.5-14.7,11-22.4,16
			c-7.6,5-15.6,7.8-24.8,8c-11.1,0.2-22.6-1.7-33.5-3.8c-10.7-2.1-21.5-6.2-32.5-6c-11.3,0.2-20.4,6.9-29.6,12.7
			c-10.3,6.5-21.4,10.5-33.4,12.5c-11.9,1.9-24.7,2.8-36.7,1.9c-2.4-0.2-2.6-4.1-0.1-4.3c11.5-1,22.9-0.4,34.4-2.1
			c11-1.6,21.5-4.9,31.1-10.6c8.8-5.3,17.2-11.9,27.4-14.1c9.7-2,19.3,0.6,28.7,3c11.3,2.8,22.7,4.8,34.2,5.9
			c11.3,1.1,21.3,0.2,31.2-5.9c7.8-4.8,14.6-11,22.5-15.6c7.3-4.3,15.3-6.4,23.8-6.2c20.7,0.6,39.5,12.3,60.4,11.8
			C376.6,252.5,376.7,254,375.8,254z"/>
		<path class="st10" d="M371.7,229.4c-18.2,1.2-34.9-6.9-52.7-9.3c-9.9-1.3-19.4-0.2-28.1,4.8c-8,4.5-14.7,11-22.4,16
			c-7.6,5-15.6,7.8-24.8,8c-11.1,0.2-22.6-1.7-33.5-3.8c-10.7-2.1-21.5-6.2-32.5-6c-11.3,0.2-20.4,6.9-29.6,12.7
			c-10.3,6.5-21.4,10.5-33.4,12.5c-11.9,1.9-24.7,2.8-36.7,1.9c-2.4-0.2-2.6-4.1-0.1-4.3c11.5-1,22.9-0.4,34.4-2.1
			c11-1.6,21.5-4.9,31.1-10.6c8.8-5.3,17.2-11.9,27.4-14.1c9.7-2,19.3,0.6,28.7,3c11.3,2.8,22.7,4.8,34.2,5.9
			c11.3,1.1,21.3,0.2,31.2-5.9c7.8-4.8,14.6-11,22.5-15.6c7.3-4.3,15.3-6.4,23.8-6.2c20.7,0.6,39.5,12.3,60.4,11.8
			C372.5,227.9,372.6,229.3,371.7,229.4z"/>
		<path class="st10" d="M303.2,298.7c-8,4.5-14.7,11-22.4,16c-7.6,5-15.6,7.8-24.8,8c-11.1,0.2-22.6-1.7-33.5-3.8
			c-10.7-2.1-21.5-6.2-32.5-6c-11.3,0.2-20.4,6.9-29.6,12.7c-10.3,6.5-21.4,10.5-33.4,12.5c-11.9,1.9-24.7,2.8-36.7,1.9
			c-2.4-0.2-2.6-4.1-0.1-4.3c11.5-1,22.9-0.4,34.4-2.1c11-1.6,21.5-4.9,31.1-10.6c8.8-5.3,17.2-11.9,27.4-14.1
			c9.7-2,19.3,0.6,28.7,3c11.3,2.8,22.7,4.8,34.2,5.9c11.3,1.1,21.3,0.2,31.2-5.9c7.8-4.8,14.6-11,22.5-15.6
			c7.3-4.3,15.3-6.4,23.8-6.2c20.7,0.6,39.5,12.3,60.4,11.8c0.8,0,0.9,1.4,0,1.5c-18.2,1.2-34.9-6.9-52.7-9.3
			C321.5,292.7,312,293.8,303.2,298.7z"/>
		<path class="st10" d="M379.9,278.6c-18.2,1.2-34.9-6.9-52.7-9.3c-9.9-1.3-19.4-0.2-28.1,4.8c-8,4.5-14.7,11-22.4,16
			c-7.6,5-15.6,7.8-24.8,8c-11.1,0.2-22.6-1.7-33.5-3.8c-10.7-2.1-21.5-6.2-32.5-6c-11.3,0.2-20.4,6.9-29.6,12.7
			c-10.3,6.5-21.4,10.5-33.4,12.5c-11.9,1.9-24.7,2.8-36.7,1.9c-2.4-0.2-2.6-4.1-0.1-4.3c11.5-1,22.9-0.4,34.4-2.1
			c11-1.6,21.5-4.9,31.1-10.6c8.8-5.3,17.2-11.9,27.4-14.1c9.7-2,19.3,0.6,28.7,3c11.3,2.8,22.7,4.8,34.2,5.9
			c11.3,1.1,21.3,0.2,31.2-5.9c7.8-4.8,14.6-11,22.5-15.6c7.3-4.3,15.3-6.4,23.8-6.2c20.7,0.6,39.5,12.3,60.4,11.8
			C380.7,277.1,380.8,278.6,379.9,278.6z"/>
		<path class="st10" d="M305.6,348.9c-8,4.5-14.7,11-22.4,16c-7.6,5-15.6,7.8-24.8,8c-11.1,0.2-22.6-1.7-33.5-3.8
			c-10.7-2.1-21.5-6.2-32.5-6c-11.3,0.2-20.4,6.9-29.6,12.7c-10.3,6.5-21.4,10.5-33.4,12.5c-11.9,1.9-24.7,2.8-36.7,1.9
			c-2.4-0.2-2.6-4.1-0.1-4.3c11.5-1,22.9-0.4,34.4-2.1c11-1.6,21.5-4.9,31.1-10.6c8.8-5.3,17.2-11.9,27.4-14.1
			c9.7-2,19.3,0.6,28.7,3c11.3,2.8,22.7,4.8,34.2,5.9c11.3,1.1,21.3,0.2,31.2-5.9c7.8-4.8,14.6-11,22.5-15.6
			c7.3-4.3,15.3-6.4,23.8-6.2c20.7,0.6,39.5,12.3,60.4,11.8c0.8,0,0.9,1.4,0,1.5c-18.2,1.2-34.9-6.9-52.7-9.3
			C323.9,342.9,314.4,344,305.6,348.9z"/>
		<path class="st10" d="M154.1,348.4c8.8-5.3,17.2-11.9,27.4-14.1c9.7-2,19.3,0.6,28.7,3c11.3,2.8,22.7,4.8,34.2,5.9
			c11.3,1.1,21.3,0.2,31.2-5.9c7.8-4.8,14.6-11,22.5-15.6c7.3-4.3,15.3-6.4,23.8-6.2c20.7,0.6,39.5,12.3,60.4,11.8
			c0.8,0,0.9,1.4,0,1.5c-18.2,1.2-34.9-6.9-52.7-9.3c-9.9-1.3-19.4-0.2-28.1,4.8c-8,4.5-14.7,11-22.4,16c-7.6,5-15.6,7.8-24.8,8
			c-11.1,0.2-22.6-1.7-33.5-3.8c-10.7-2.1-21.5-6.2-32.5-6c-11.3,0.2-20.4,6.9-29.6,12.7c-10.3,6.5-21.4,10.5-33.4,12.5
			c-11.9,1.9-24.7,2.8-36.7,1.9c-2.4-0.2-2.6-4.1-0.1-4.3c11.5-1,22.9-0.4,34.4-2.1C134,357.5,144.5,354.2,154.1,348.4z"/>
		<path class="st10" d="M338.8,394c-9.9-1.3-19.4-0.2-28.1,4.8c-8,4.5-14.7,11-22.4,16c-7.6,5-15.6,7.8-24.8,8
			c-11.1,0.2-22.6-1.7-33.5-3.8c-10.7-2.1-21.5-6.2-32.5-6c-11.3,0.2-20.4,6.9-29.6,12.7c-10.3,6.5-21.4,10.5-33.4,12.5
			c-11.9,1.9-24.7,2.8-36.7,1.9c-2.4-0.2-2.6-4.1-0.1-4.3c11.5-1,22.9-0.4,34.4-2.1c11-1.6,21.5-4.9,31.1-10.6
			c8.8-5.3,17.2-11.9,27.4-14.1c9.7-2,19.3,0.6,28.7,3c11.3,2.8,22.7,4.8,34.2,5.9c11.3,1.1,21.3,0.2,31.2-5.9
			c7.8-4.8,14.6-11,22.5-15.6c7.3-4.3,15.3-6.4,23.8-6.2c20.7,0.6,39.5,12.3,60.4,11.8c0.8,0,0.9,1.4,0,1.5
			C373.2,404.5,356.5,396.3,338.8,394z"/>
		<path class="st10" d="M159.1,398.2c8.8-5.3,17.2-11.9,27.4-14.1c9.7-2,19.3,0.6,28.7,3c11.3,2.8,22.7,4.8,34.2,5.9
			c11.3,1.1,21.3,0.2,31.2-5.9c7.8-4.8,14.6-11,22.5-15.6c7.3-4.3,15.3-6.4,23.8-6.2c20.7,0.6,39.5,12.3,60.4,11.8
			c0.8,0,0.9,1.4,0,1.5c-18.2,1.2-34.9-6.9-52.7-9.3c-9.9-1.3-19.4-0.2-28.1,4.8c-8,4.5-14.7,11-22.4,16c-7.6,5-15.6,7.8-24.8,8
			c-11.1,0.2-22.6-1.7-33.5-3.8c-10.7-2.1-21.5-6.2-32.5-6c-11.3,0.2-20.4,6.9-29.6,12.7c-10.3,6.5-21.4,10.5-33.4,12.5
			c-11.9,1.9-24.7,2.8-36.7,1.9c-2.4-0.2-2.6-4.1-0.1-4.3c11.5-1,22.9-0.4,34.4-2.1C139,407.2,149.5,404,159.1,398.2z"/>
		<path class="st10" d="M399.7,452.5c-18.2,1.2-34.9-6.9-52.7-9.3c-9.9-1.3-19.4-0.2-28.1,4.8c-8,4.5-14.7,11-22.4,16
			c-7.6,5-15.6,7.8-24.8,8c-11.1,0.2-22.6-1.7-33.5-3.8c-10.7-2.1-21.5-6.2-32.5-6c-11.3,0.2-20.4,6.9-29.6,12.7
			c-10.3,6.5-21.4,10.5-33.4,12.5c-11.9,1.9-24.7,2.8-36.7,1.9c-2.4-0.2-2.6-4.1-0.1-4.3c11.5-1,22.9-0.4,34.4-2.1
			c11-1.6,21.5-4.9,31.1-10.6c8.8-5.3,17.2-11.9,27.4-14.1c9.7-2,19.3,0.6,28.7,3c11.3,2.8,22.7,4.8,34.2,5.9
			c11.3,1.1,21.3,0.2,31.2-5.9c7.8-4.8,14.6-11,22.5-15.6c7.3-4.3,15.3-6.4,23.8-6.2c20.7,0.6,39.5,12.3,60.4,11.8
			C400.5,451,400.5,452.4,399.7,452.5z"/>
		<path class="st10" d="M395.6,427.9c-18.2,1.2-34.9-6.9-52.7-9.3c-9.9-1.3-19.4-0.2-28.1,4.8c-8,4.5-14.7,11-22.4,16
			c-7.6,5-15.6,7.8-24.8,8c-11.1,0.2-22.6-1.7-33.5-3.8c-10.7-2.1-21.5-6.2-32.5-6c-11.3,0.2-20.4,6.9-29.6,12.7
			c-10.3,6.5-21.4,10.5-33.4,12.5c-11.9,1.9-24.7,2.8-36.7,1.9c-2.4-0.2-2.6-4.1-0.1-4.3c11.5-1,22.9-0.4,34.4-2.1
			c11-1.6,21.5-4.9,31.1-10.6c8.8-5.3,17.2-11.9,27.4-14.1c9.7-2,19.3,0.6,28.7,3c11.3,2.8,22.7,4.8,34.2,5.9
			c11.3,1.1,21.3,0.2,31.2-5.9c7.8-4.8,14.6-11,22.5-15.6c7.3-4.3,15.3-6.4,23.8-6.2c20.7,0.6,39.5,12.3,60.4,11.8
			C396.4,426.4,396.4,427.8,395.6,427.9z"/>
		<path class="st10" d="M327.1,497.2c-8,4.5-14.7,11-22.4,16c-7.6,5-15.6,7.8-24.8,8c-11.1,0.2-22.6-1.7-33.5-3.8
			c-10.7-2.1-21.5-6.2-32.5-6c-11.3,0.2-20.4,6.9-29.6,12.7c-10.3,6.5-21.4,10.5-33.4,12.5c-11.9,1.9-24.7,2.8-36.7,1.9
			c-2.4-0.2-2.6-4.1-0.1-4.3c11.5-1,22.9-0.4,34.4-2.1c11-1.6,21.5-4.9,31.1-10.6c8.8-5.3,17.2-11.9,27.4-14.1
			c9.7-2,19.3,0.6,28.7,3c11.3,2.8,22.7,4.8,34.2,5.9c11.3,1.1,21.3,0.2,31.2-5.9c7.8-4.8,14.6-11,22.5-15.6
			c7.3-4.3,15.3-6.4,23.8-6.2c20.7,0.6,39.5,12.3,60.4,11.8c0.8,0,0.9,1.4,0,1.5c-18.2,1.2-34.9-6.9-52.7-9.3
			C345.3,491.1,335.8,492.3,327.1,497.2z"/>
		<path class="st10" d="M403.8,477.1c-18.2,1.2-34.9-6.9-52.7-9.3c-9.9-1.3-19.4-0.2-28.1,4.8c-8,4.5-14.7,11-22.4,16
			c-7.6,5-15.6,7.8-24.8,8c-11.1,0.2-22.6-1.7-33.5-3.8c-10.7-2.1-21.5-6.2-32.5-6c-11.3,0.2-20.4,6.9-29.6,12.7
			c-10.3,6.5-21.4,10.5-33.4,12.5c-11.9,1.9-24.7,2.8-36.7,1.9c-2.4-0.2-2.6-4.1-0.1-4.3c11.5-1,22.9-0.4,34.4-2.1
			c11-1.6,21.5-4.9,31.1-10.6c8.8-5.3,17.2-11.9,27.4-14.1c9.7-2,19.3,0.6,28.7,3c11.3,2.8,22.7,4.8,34.2,5.9
			c11.3,1.1,21.3,0.2,31.2-5.9c7.8-4.8,14.6-11,22.5-15.6c7.3-4.3,15.3-6.4,23.8-6.2c20.7,0.6,39.5,12.3,60.4,11.8
			C404.6,475.6,404.6,477,403.8,477.1z"/>
	</g>
</g>
<g>
	<defs>
		<circle id="SVGID_47_" cx="808" cy="765.8" r="59.3"/>
	</defs>
	<clipPath id="SVGID_18_">
		<use xlink:href="#SVGID_47_"  style="overflow:visible;"/>
	</clipPath>
	<g class="st13">
		<path class="st10" d="M799.3-40.5c-17.6-2.3-34.6-0.3-50.3,8.5c-14.4,8.1-26.3,19.7-40.1,28.7c-13.7,8.9-27.9,14-44.3,14.2
			c-19.9,0.3-40.3-3-59.9-6.8c-19.1-3.7-38.4-11.1-58-10.8C526.6-6.3,510.2,5.7,493.8,16c-18.4,11.6-38.2,18.9-59.7,22.3
			c-21.2,3.4-44.2,5.1-65.7,3.3c-4.3-0.3-4.7-7.4-0.2-7.8c20.5-1.8,41-0.7,61.4-3.7c19.7-2.9,38.4-8.8,55.6-19
			C501,1.7,516-10.1,534.3-14c17.3-3.7,34.6,1.2,51.3,5.3c20.1,5,40.6,8.6,61.2,10.5c20.3,1.9,38.1,0.4,55.7-10.5
			c13.9-8.6,26.1-19.6,40.2-27.9c13.1-7.6,27.4-11.5,42.6-11.1c37.1,1,70.7,22,108.1,21.1c1.5,0,1.6,2.6,0.1,2.7
			C860.9-21.6,831.1-36.2,799.3-40.5z"/>
		<path class="st10" d="M908.2,64.2c-32.6,2.2-62.5-12.4-94.3-16.6c-17.6-2.3-34.6-0.3-50.3,8.5c-14.4,8.1-26.3,19.7-40.1,28.7
			c-13.7,8.9-27.9,14-44.3,14.2c-19.9,0.3-40.3-3-59.9-6.8c-19.1-3.7-38.4-11.1-58-10.8c-20.1,0.3-36.5,12.3-52.9,22.6
			c-18.4,11.6-38.2,18.9-59.7,22.3c-21.2,3.5-44.2,5.1-65.7,3.3c-4.3-0.3-4.7-7.4-0.2-7.8c20.5-1.8,41-0.7,61.4-3.7
			c19.7-2.9,38.4-8.8,55.6-19c15.8-9.4,30.7-21.3,49.1-25.1c17.3-3.7,34.6,1.2,51.3,5.3c20.1,5,40.6,8.6,61.2,10.5
			c20.3,1.9,38.1,0.4,55.7-10.5c13.9-8.6,26.1-19.6,40.2-27.9c13.1-7.6,27.4-11.5,42.6-11.1c37.1,1,70.7,22,108.1,21.1
			C909.6,61.5,909.7,64.1,908.2,64.2z"/>
		<path class="st10" d="M900.9,20.2c-32.6,2.2-62.5-12.4-94.3-16.6C789,1.2,772,3.3,756.3,12.1C742,20.2,730,31.8,716.3,40.8
			c-13.7,8.9-27.9,14-44.3,14.2c-19.9,0.3-40.3-3-59.9-6.8c-19.1-3.7-38.4-11.1-58-10.8c-20.1,0.3-36.5,12.3-52.9,22.6
			c-18.4,11.6-38.2,18.9-59.7,22.3c-21.2,3.5-44.2,5.1-65.7,3.3c-4.3-0.3-4.7-7.4-0.2-7.8c20.5-1.8,41-0.7,61.4-3.7
			c19.7-2.9,38.4-8.8,55.6-19c15.8-9.4,30.7-21.3,49.1-25.1c17.3-3.7,34.6,1.2,51.3,5.3c20.1,5,40.6,8.6,61.2,10.5
			c20.3,1.9,38.1,0.4,55.7-10.5c13.9-8.6,26.1-19.6,40.2-27.9C763.3-0.1,777.5-4,792.7-3.6c37.1,1,70.7,22,108.1,21.1
			C902.3,17.5,902.4,20.1,900.9,20.2z"/>
		<path class="st10" d="M778.4,144.2c-14.4,8.1-26.3,19.7-40.1,28.7c-13.7,8.9-27.9,14-44.3,14.2c-19.9,0.3-40.3-3-59.9-6.8
			c-19.1-3.7-38.4-11.1-58-10.8c-20.1,0.3-36.5,12.3-52.9,22.6c-18.4,11.6-38.2,18.9-59.7,22.3c-21.2,3.5-44.2,5.1-65.7,3.3
			c-4.3-0.3-4.7-7.4-0.2-7.8c20.5-1.8,41-0.7,61.4-3.7c19.7-2.9,38.4-8.8,55.6-19c15.8-9.4,30.7-21.3,49.1-25.1
			c17.3-3.7,34.6,1.2,51.3,5.3c20.1,5,40.6,8.6,61.2,10.5c20.3,1.9,38.1,0.4,55.7-10.5c13.9-8.6,26.1-19.6,40.2-27.9
			c13.1-7.6,27.4-11.5,42.6-11.1c37.1,1,70.7,22,108.1,21.1c1.5,0,1.6,2.6,0.1,2.7c-32.6,2.2-62.5-12.4-94.3-16.6
			C811.1,133.3,794,135.4,778.4,144.2z"/>
		<path class="st10" d="M915.6,108.2c-32.6,2.2-62.5-12.4-94.3-16.6c-17.6-2.3-34.6-0.3-50.3,8.5c-14.4,8.1-26.3,19.7-40.1,28.7
			c-13.7,8.9-27.9,14-44.3,14.2c-19.9,0.3-40.3-3-59.9-6.8c-19.1-3.7-38.4-11.1-58-10.8c-20.1,0.3-36.5,12.3-52.9,22.6
			c-18.4,11.6-38.2,18.9-59.7,22.3c-21.2,3.5-44.2,5.1-65.7,3.3c-4.3-0.3-4.7-7.4-0.2-7.8c20.5-1.8,41-0.7,61.4-3.7
			c19.7-2.9,38.4-8.8,55.6-19c15.8-9.4,30.7-21.3,49.1-25.1c17.3-3.7,34.6,1.2,51.3,5.3c20.1,5,40.6,8.6,61.2,10.5
			c20.3,1.9,38.1,0.4,55.7-10.5c13.9-8.6,26.1-19.6,40.2-27.9c13.1-7.6,27.4-11.5,42.6-11.1c37.1,1,70.7,22,108.1,21.1
			C917,105.5,917.1,108.1,915.6,108.2z"/>
		<path class="st10" d="M782.7,234c-14.4,8.1-26.3,19.7-40.1,28.7c-13.7,8.9-27.9,14-44.3,14.2c-19.9,0.3-40.3-3-59.9-6.8
			c-19.1-3.7-38.4-11.1-58-10.8c-20.1,0.3-36.5,12.3-52.9,22.6c-18.4,11.6-38.2,18.9-59.7,22.3c-21.2,3.5-44.2,5.1-65.7,3.3
			c-4.3-0.3-4.7-7.4-0.2-7.8c20.5-1.8,41-0.7,61.4-3.7c19.7-2.9,38.4-8.8,55.6-19c15.8-9.4,30.7-21.3,49.1-25.1
			c17.3-3.7,34.6,1.2,51.3,5.3c20.1,5,40.6,8.6,61.2,10.5c20.3,1.9,38.1,0.4,55.7-10.5c13.9-8.6,26.1-19.6,40.2-27.9
			c13.1-7.6,27.4-11.5,42.6-11.1c37.1,1,70.7,22,108.1,21.1c1.5,0,1.6,2.6,0.1,2.7c-32.6,2.2-62.5-12.4-94.3-16.6
			C815.4,223.1,798.4,225.2,782.7,234z"/>
		<path class="st10" d="M511.6,233.1c15.8-9.4,30.7-21.3,49.1-25.1c17.3-3.7,34.6,1.2,51.3,5.3c20.1,5,40.6,8.6,61.2,10.5
			c20.3,1.9,38.1,0.4,55.7-10.5c13.9-8.6,26.1-19.6,40.2-27.9c13.1-7.6,27.4-11.5,42.6-11.1c37.1,1,70.7,22,108.1,21.1
			c1.5,0,1.6,2.6,0.1,2.7c-32.6,2.2-62.5-12.4-94.3-16.6c-17.6-2.3-34.6-0.3-50.3,8.5c-14.4,8.1-26.3,19.7-40.1,28.7
			c-13.7,8.9-27.9,14-44.3,14.2c-19.9,0.3-40.3-3-59.9-6.8c-19.1-3.7-38.4-11.1-58-10.8c-20.1,0.3-36.5,12.3-52.9,22.6
			c-18.4,11.6-38.2,18.9-59.7,22.3c-21.2,3.5-44.2,5.1-65.7,3.3c-4.3-0.3-4.7-7.4-0.2-7.8c20.5-1.8,41-0.7,61.4-3.7
			C475.8,249.2,494.5,243.3,511.6,233.1z"/>
		<path class="st10" d="M833.4,315.5c-17.6-2.3-34.6-0.3-50.3,8.5c-14.4,8.1-26.3,19.7-40.1,28.7c-13.7,8.9-27.9,14-44.3,14.2
			c-19.9,0.3-40.3-3-59.9-6.8c-19.1-3.7-38.4-11.1-58-10.8c-20.1,0.3-36.5,12.3-52.9,22.6c-18.4,11.6-38.2,18.9-59.7,22.3
			c-21.2,3.5-44.2,5.1-65.7,3.3c-4.3-0.3-4.7-7.4-0.2-7.8c20.5-1.8,41-0.7,61.4-3.7c19.7-2.9,38.4-8.8,55.6-19
			c15.8-9.4,30.7-21.3,49.1-25.1c17.3-3.7,34.6,1.2,51.3,5.3c20.1,5,40.6,8.6,61.2,10.5c20.3,1.9,38.1,0.4,55.7-10.5
			c13.9-8.6,26.1-19.6,40.2-27.9c13.1-7.6,27.4-11.5,42.6-11.1c37.1,1,70.7,22,108.1,21.1c1.5,0,1.6,2.6,0.1,2.7
			C895,334.3,865.1,319.7,833.4,315.5z"/>
		<path class="st10" d="M512,323.1c15.8-9.4,30.7-21.3,49.1-25.1c17.3-3.7,34.6,1.2,51.3,5.3c20.1,5,40.6,8.6,61.2,10.5
			c20.3,1.9,38.1,0.4,55.7-10.5c13.9-8.6,26.1-19.6,40.2-27.9c13.1-7.6,27.4-11.5,42.6-11.1c37.1,1,70.7,22,108.1,21.1
			c1.5,0,1.6,2.6,0.1,2.7c-32.6,2.2-62.5-12.4-94.3-16.6c-17.6-2.3-34.6-0.3-50.3,8.5c-14.4,8.1-26.3,19.7-40.1,28.7
			c-13.7,8.9-27.9,14-44.3,14.2c-19.9,0.3-40.3-3-59.9-6.8c-19.1-3.7-38.4-11.1-58-10.8c-20.1,0.3-36.5,12.3-52.9,22.6
			c-18.4,11.6-38.2,18.9-59.7,22.3c-21.2,3.4-44.2,5.1-65.7,3.3c-4.3-0.3-4.7-7.4-0.2-7.8c20.5-1.8,41-0.7,61.4-3.7
			C476.1,339.2,494.8,333.3,512,323.1z"/>
		<path class="st10" d="M942.3,420.1c-32.6,2.2-62.5-12.4-94.3-16.6c-17.6-2.3-34.6-0.3-50.3,8.5c-14.4,8.1-26.3,19.7-40.1,28.7
			c-13.7,8.9-27.9,14-44.3,14.2c-19.9,0.3-40.3-3-59.9-6.8c-19.1-3.7-38.4-11.1-58-10.8c-20.1,0.3-36.5,12.3-52.9,22.6
			c-18.4,11.6-38.2,18.9-59.7,22.3c-21.2,3.4-44.2,5.1-65.7,3.3c-4.3-0.3-4.7-7.4-0.2-7.8c20.5-1.8,41-0.7,61.4-3.7
			c19.7-2.9,38.4-8.8,55.6-19c15.8-9.4,30.7-21.3,49.1-25.1c17.3-3.7,34.6,1.2,51.3,5.3c20.1,5,40.6,8.6,61.2,10.5
			c20.3,1.9,38.1,0.4,55.7-10.5c13.9-8.6,26.1-19.6,40.2-27.9c13.1-7.6,27.4-11.5,42.6-11.1c37.1,1,70.7,22,108.1,21.1
			C943.7,417.4,943.8,420,942.3,420.1z"/>
		<path class="st10" d="M935,376.1c-32.6,2.2-62.5-12.4-94.3-16.6c-17.6-2.3-34.6-0.3-50.3,8.5c-14.4,8.1-26.3,19.7-40.1,28.7
			c-13.7,8.9-27.9,14-44.3,14.2c-19.9,0.3-40.3-3-59.9-6.8c-19.1-3.7-38.4-11.1-58-10.8c-20.1,0.3-36.5,12.3-52.9,22.6
			c-18.4,11.6-38.2,18.9-59.7,22.3c-21.2,3.5-44.2,5.1-65.7,3.3c-4.3-0.3-4.7-7.4-0.2-7.8c20.5-1.8,41-0.7,61.4-3.7
			c19.7-2.9,38.4-8.8,55.6-19c15.8-9.4,30.7-21.3,49.1-25.1c17.3-3.7,34.6,1.2,51.3,5.3c20.1,5,40.6,8.6,61.2,10.5
			c20.3,1.9,38.1,0.4,55.7-10.5c13.9-8.6,26.1-19.6,40.2-27.9c13.1-7.6,27.4-11.5,42.6-11.1c37.1,1,70.7,22,108.1,21.1
			C936.4,373.4,936.5,376,935,376.1z"/>
		<path class="st10" d="M812.4,500.1c-14.4,8.1-26.3,19.7-40.1,28.7c-13.7,8.9-27.9,14-44.3,14.2c-19.9,0.3-40.3-3-59.9-6.8
			c-19.1-3.7-38.4-11.1-58-10.8c-20.1,0.3-36.5,12.3-52.9,22.6c-18.4,11.6-38.2,18.9-59.7,22.3c-21.2,3.5-44.2,5.1-65.7,3.3
			c-4.3-0.3-4.7-7.4-0.2-7.8c20.5-1.8,41-0.7,61.4-3.7c19.7-2.9,38.4-8.8,55.6-19c15.8-9.4,30.7-21.3,49.1-25.1
			c17.3-3.7,34.6,1.2,51.3,5.3c20.1,5,40.6,8.6,61.2,10.5c20.3,1.9,38.1,0.4,55.7-10.5c13.9-8.6,26.1-19.6,40.2-27.9
			c13.1-7.6,27.4-11.5,42.6-11.1c37.1,1,70.7,22,108.1,21.1c1.5,0,1.6,2.6,0.1,2.7c-32.6,2.2-62.5-12.4-94.3-16.6
			C845.1,489.2,828.1,491.3,812.4,500.1z"/>
		<path class="st10" d="M949.7,464.2c-32.6,2.2-62.5-12.4-94.3-16.6c-17.6-2.3-34.6-0.3-50.3,8.5c-14.4,8.1-26.3,19.7-40.1,28.7
			c-13.7,8.9-27.9,14-44.3,14.2c-19.9,0.3-40.3-3-59.9-6.8c-19.1-3.7-38.4-11.1-58-10.8c-20.1,0.3-36.5,12.3-52.9,22.6
			c-18.4,11.6-38.2,18.9-59.7,22.3c-21.2,3.5-44.2,5.1-65.7,3.3c-4.3-0.3-4.7-7.4-0.2-7.8c20.5-1.8,41-0.7,61.4-3.7
			c19.7-2.9,38.4-8.8,55.6-19c15.8-9.4,30.7-21.3,49.1-25.1c17.3-3.7,34.6,1.2,51.3,5.3c20.1,5,40.6,8.6,61.2,10.5
			c20.3,1.9,38.1,0.4,55.7-10.5c13.9-8.6,26.1-19.6,40.2-27.9c13.1-7.6,27.4-11.5,42.6-11.1c37.1,1,70.7,22,108.1,21.1
			C951.1,461.5,951.2,464.1,949.7,464.2z"/>
	</g>
	<circle style="clip-path:url(#SVGID_18_);fill:#F9F7F7;" cx="610.8" cy="594.4" r="130.2"/>
</g>
</svg>
