<?xml version="1.0" encoding="utf-8"?>
<!-- Generator: Adobe Illustrator 22.1.0, SVG Export Plug-In . SVG Version: 6.00 Build 0)  -->
<svg version="1.1" id="Layer_1" xmlns="http://www.w3.org/2000/svg" xmlns:xlink="http://www.w3.org/1999/xlink" x="0px" y="0px"
	 viewBox="0 0 1200 1200" style="enable-background:new 0 0 1200 1200;" xml:space="preserve">
<style type="text/css">
	.st0{fill:#6DD1B9;}
	.st1{fill:#6DD1B9;stroke:#6DD1B9;stroke-width:5;stroke-miterlimit:10;}
	.st2{fill:#6DD1B9;stroke:#6DD1B9;stroke-width:3;stroke-miterlimit:10;}
	.st3{fill:#6DD1B9;stroke:#6DD1B9;stroke-width:9;stroke-miterlimit:10;}
	.st4{fill:#6DD1B9;stroke:#6DCDB8;stroke-width:8;stroke-miterlimit:10;}
	.st5{fill:#6DD1B9;stroke:#6DD1B9;stroke-width:4;stroke-miterlimit:10;}
	.st6{fill:none;stroke:#6DD1B9;stroke-width:21;stroke-miterlimit:10;}
	.st7{fill:none;stroke:#6DD1B9;stroke-width:20;stroke-miterlimit:10;}
	.st8{fill:#6DCDB8;stroke:#6DCDB8;stroke-width:8;stroke-miterlimit:10;}
	.st9{fill:#6DCDB8;stroke:#6DD1B9;stroke-width:7;stroke-miterlimit:10;}
	.st10{fill:#6DCDB8;stroke:#6DD1B9;stroke-width:8;stroke-miterlimit:10;}
</style>
<path class="st9" d="M594.7,931.5C594.7,931.5,594.7,931.5,594.7,931.5c-9.9,0-19.1-3.8-26.1-10.8c-7-7-10.8-16.2-10.8-26.1l0-240.5
	c0-9.3-7.6-16.9-16.9-16.9l-240.5,0c-20.4,0-36.9-16.6-36.9-36.9c0-20.4,16.6-36.9,36.9-36.9c0,0,0,0,0,0l240.5,0c0,0,0,0,0,0
	c4.5,0,8.8-1.8,12-5c3.2-3.2,5-7.4,5-12l0-240.5c0-9.9,3.8-19.1,10.8-26.1c7-7,16.2-10.8,26.1-10.8c0,0,0,0,0,0
	c9.9,0,19.1,3.8,26.1,10.8c7,7,10.8,16.2,10.8,26.1l0,240.5c0,9.3,7.6,16.9,16.9,16.9l240.5,0c20.4,0,36.9,16.6,36.9,36.9
	c0,20.4-16.6,36.9-36.9,36.9c0,0,0,0,0,0l-240.5,0c0,0,0,0,0,0c-4.5,0-8.8,1.8-12,5c-3.2,3.2-5,7.4-5,12l0,240.5
	c0,9.9-3.8,19.1-10.8,26.1C613.9,927.7,604.6,931.5,594.7,931.5z M300.4,583.3c-9.3,0-16.9,7.6-16.9,16.9c0,9.3,7.6,16.9,16.9,16.9
	l240.5,0c20.4,0,36.9,16.6,36.9,36.9l0,240.5c0,9.3,7.6,16.9,16.9,16.9c0,0,0,0,0,0c4.5,0,8.8-1.8,12-5c3.2-3.2,5-7.4,5-12l0-240.5
	c0-9.9,3.8-19.1,10.8-26.1c7-7,16.2-10.8,26.1-10.8c0,0,0,0,0,0l240.5,0c9.3,0,16.9-7.6,16.9-16.9s-7.6-16.9-16.9-16.9l-240.5,0
	c-20.4,0-36.9-16.6-36.9-36.9l0-240.5c0-9.3-7.6-16.9-16.9-16.9c0,0,0,0,0,0c-4.5,0-8.8,1.8-12,5c-3.2,3.2-5,7.4-5,12l0,240.5
	c0,9.9-3.8,19.1-10.8,26.1c-7,7-16.2,10.8-26.1,10.8c0,0,0,0,0,0L300.4,583.3z"/>
</svg>
