<?xml version="1.0" encoding="utf-8"?>
<!-- Generator: Adobe Illustrator 22.1.0, SVG Export Plug-In . SVG Version: 6.00 Build 0)  -->
<svg version="1.1" id="Layer_1" xmlns="http://www.w3.org/2000/svg" xmlns:xlink="http://www.w3.org/1999/xlink" x="0px" y="0px"
	 viewBox="0 0 1200 1200" style="enable-background:new 0 0 1200 1200;" xml:space="preserve">
<style type="text/css">
	.st0{fill:#6DD1B9;}
	.st1{fill:#6DD1B9;stroke:#6DD1B9;stroke-width:5;stroke-miterlimit:10;}
	.st2{fill:#6DD1B9;stroke:#6DD1B9;stroke-width:3;stroke-miterlimit:10;}
	.st3{fill:#6DD1B9;stroke:#6DD1B9;stroke-width:9;stroke-miterlimit:10;}
	.st4{fill:#6DD1B9;stroke:#6DCDB8;stroke-width:8;stroke-miterlimit:10;}
	.st5{fill:#6DD1B9;stroke:#6DD1B9;stroke-width:4;stroke-miterlimit:10;}
	.st6{fill:none;stroke:#6DD1B9;stroke-width:21;stroke-miterlimit:10;}
	.st7{fill:none;stroke:#6DD1B9;stroke-width:20;stroke-miterlimit:10;}
	.st8{fill:#6DCDB8;stroke:#6DCDB8;stroke-width:8;stroke-miterlimit:10;}
	.st9{fill:#6DCDB8;stroke:#6DD1B9;stroke-width:7;stroke-miterlimit:10;}
	.st10{fill:#6DCDB8;stroke:#6DD1B9;stroke-width:8;stroke-miterlimit:10;}
</style>
<g>
	<path class="st0" d="M516.1,927.5c-35.9,0-70.2-11.2-99.1-32.5c-27.4-20.2-47.7-47.6-58.9-79.4c-40.4-6.9-77.1-26-106.4-55.3
		c-37.5-37.5-58.2-87.4-58.2-140.4c0-53,20.7-102.9,58.2-140.4c37.5-37.5,87.4-58.2,140.4-58.2c1.6,0,3.2,0,4.9,0.1
		c27.1-60.3,86.6-99.1,152.9-99.1c44.4,0,87.3,17.9,118.6,49.3c29.7-27.4,68.1-42.4,108.6-42.4c71.1,0,134,47.2,154,115.2
		c26.8,9.9,50.7,25.3,71.2,45.8c37.5,37.5,58.2,87.4,58.2,140.4c0,53-20.7,102.9-58.2,140.4c-31.1,31.1-70.2,50.5-113.3,56.3
		c-26.3,56.7-83.2,93.2-145.7,93.2c-40.5,0-78.9-15-108.6-42.4C603.3,909.6,560.4,927.5,516.1,927.5z M392.1,432.3
		c-50.1,0-97.2,19.5-132.6,54.9c-35.4,35.4-54.9,82.5-54.9,132.6c0,50.1,19.5,97.2,54.9,132.6c28.4,28.4,64.2,46.6,103.6,52.7
		l3.3,0.5l1.1,3.2c10.2,31,29.6,57.7,56.1,77.2c27,19.9,59,30.4,92.5,30.4c43.2,0,84.9-18.2,114.4-49.9l3.9-4.1l4,4
		c28.2,27.8,65.5,43.1,104.9,43.1c59.2,0,113-35.1,137-89.5l1.3-2.9l3.1-0.4c41.9-5,79.9-23.5,109.9-53.6
		c35.4-35.4,54.9-82.5,54.9-132.6c0-50.1-19.5-97.2-54.9-132.6c-20-20-43.5-34.9-69.8-44.2l-2.7-1l-0.8-2.8
		c-17.8-64.7-77.1-109.9-144.2-109.9c-39.5,0-76.7,15.3-104.9,43.1l-4,4l-3.9-4.1c-29.5-31.7-71.3-49.9-114.4-49.9
		c-63.1,0-119.7,37.6-144.3,95.9l-1.5,3.5l-3.8-0.2C397.4,432.4,394.7,432.3,392.1,432.3z"/>
	<path class="st0" d="M516.1,932c-36.9,0-72-11.5-101.7-33.4c-27.4-20.1-47.9-47.4-59.6-79.1c-40.3-7.4-77-26.8-106.2-56.1
		c-38.4-38.4-59.5-89.4-59.5-143.6c0-54.2,21.1-105.2,59.5-143.6c38.4-38.4,89.4-59.5,143.6-59.5c0.7,0,1.3,0,2,0
		c13.7-29.2,35.2-53.9,62.2-71.4c27.9-18.1,60.2-27.7,93.6-27.7c43.9,0,86.9,17.3,118.7,47.7c30.1-26.3,68.4-40.8,108.5-40.8
		c35.8,0,70,11.4,98.9,33c28.2,21.1,48.5,49.9,58.9,83.3c26.5,10.2,50.3,25.7,70.7,46.1c38.4,38.4,59.5,89.4,59.5,143.6
		c0,54.2-21.1,105.2-59.5,143.6c-31.1,31.1-70.3,50.9-113.4,57.3c-27.4,56.9-85.6,93.6-148.8,93.6c-40.1,0-78.4-14.4-108.5-40.8
		C603,914.7,559.9,932,516.1,932z M392.1,425.8c-51.8,0-100.6,20.2-137.2,56.8c-36.7,36.7-56.8,85.4-56.8,137.2
		c0,51.8,20.2,100.6,56.8,137.2c28.6,28.6,64.5,47.2,104,54l2.6,0.4l0.9,2.5c10.9,31,30.7,57.7,57.4,77.3
		c28.1,20.7,61.5,31.6,96.4,31.6c42.9,0,85-17.5,115.4-48l3.1-3.1l3.2,2.9c28.9,26.6,66.4,41.2,105.6,41.2
		c60.5,0,116.1-35.6,141.7-90.6l1-2.2l2.4-0.3c42.1-5.7,80.4-24.7,110.7-55.1c36.7-36.7,56.8-85.4,56.8-137.2
		c0-51.8-20.2-100.6-56.8-137.2c-20-20-43.4-35.1-69.6-44.8l-2.1-0.8l-0.6-2.2c-9.6-32.4-29-60.4-56.3-80.8
		c-27.3-20.4-59.6-31.2-93.5-31.2c-39.2,0-76.7,14.6-105.6,41.2l-3.2,2.9l-3.1-3.1c-30.4-30.5-72.5-48-115.4-48
		c-31.6,0-62.3,9.1-88.7,26.2c-26.4,17.1-47.2,41.4-60.1,70.2l-1.2,2.7l-3-0.1C395.2,425.8,393.6,425.8,392.1,425.8z M516.1,921
		c-34.5,0-67.4-10.8-95.2-31.2c-27.2-20-47.2-47.5-57.7-79.4l-0.2-0.6l-0.6-0.1c-40.3-6.2-77-24.9-106.1-54
		C220,719.4,200,671.2,200,619.9c0-51.3,20-99.5,56.3-135.8c36.3-36.3,84.5-56.3,135.8-56.3c2.7,0,5.4,0.1,8.4,0.2l0.7,0l0.3-0.6
		c25.3-59.9,83.5-98.6,148.4-98.6c44.4,0,87.3,18.7,117.7,51.3l0.7,0.8l0.7-0.7c29-28.6,67.4-44.4,108.1-44.4
		c69.1,0,130.2,46.5,148.6,113.2l0.1,0.5l0.5,0.2c26.9,9.6,51,24.8,71.5,45.3c36.3,36.3,56.3,84.5,56.3,135.8
		c0,51.3-20,99.5-56.3,135.8c-30.8,30.8-69.7,49.7-112.6,54.9l-0.6,0.1l-0.2,0.5c-24.7,56-80,92.2-141.1,92.2
		c-40.7,0-79.1-15.8-108.1-44.4l-0.7-0.7l-0.7,0.8C603.4,902.3,560.5,921,516.1,921z M392.1,436.8c-48.9,0-94.9,19-129.5,53.6
		S209,571,209,619.9c0,48.9,19,94.9,53.6,129.5c27.7,27.7,62.7,45.5,101.1,51.4l6.1,0.9l1.9,5.8c9.9,30.1,28.8,56,54.5,75
		c26.2,19.3,57.3,29.5,89.9,29.5c41.9,0,82.4-17.6,111.1-48.4l7-7.5l7.3,7.2c27.4,27,63.5,41.8,101.8,41.8
		c57.5,0,109.6-34.1,132.8-86.8l2.3-5.2l5.7-0.7c40.9-4.9,78-23,107.3-52.3c34.6-34.6,53.6-80.6,53.6-129.5
		c0-48.9-19-94.9-53.6-129.5c-19.5-19.5-42.4-34-68.1-43.1l-4.9-1.7l-1.4-5c-17.3-62.8-74.8-106.6-139.9-106.6
		c-38.3,0-74.4,14.9-101.8,41.8l-7.3,7.2l-7-7.5c-28.7-30.8-69.2-48.4-111.1-48.4c-61.3,0-116.3,36.5-140.1,93.1l-2.7,6.4l-6.9-0.3
		C397.2,436.9,394.6,436.8,392.1,436.8z"/>
</g>
<g>
	<path class="st0" d="M246,527c-2.5,0-5-0.1-7.5-0.4c-19.4-2-36.9-11.4-49.2-26.5c-12.3-15.1-18-34.1-16-53.5
		c4.1-40,40-69.3,80-65.2c19.4,2,36.9,11.4,49.2,26.5c12.3,15.1,18,34.1,16,53.5C314.8,499,283,527,246,527z M245.9,392
		c-31.4,0-58.4,23.8-61.6,55.7c-3.5,34,21.4,64.5,55.4,68c34,3.5,64.5-21.4,68-55.4c3.5-34-21.4-64.5-55.4-68
		C250.1,392.1,248,392,245.9,392z"/>
	<path class="st0" d="M246,531.5c-2.6,0-5.3-0.1-7.9-0.4C217.5,529,199,519,185.9,503s-19.1-36.2-17-56.8
		c2.1-20.6,12.1-39.1,28.2-52.2c16.1-13.1,36.2-19.1,56.8-17c20.6,2.1,39.1,12.1,52.2,28.2c13.1,16.1,19.1,36.2,17,56.8
		c-2,19.2-11,36.9-25.3,49.8C283.5,524.5,265.1,531.5,246,531.5z M245.9,385.5c-15.7,0-30.8,5.4-43.1,15.4
		c-14.2,11.6-23.1,27.9-24.9,46.1c-1.9,18.2,3.5,36,15,50.2c11.6,14.2,27.9,23,46.1,24.9c2.3,0.2,4.7,0.4,7,0.4
		c16.8,0,33.1-6.2,45.7-17.6c12.7-11.4,20.7-27,22.4-44c1.9-18.2-3.5-36-15-50.2c-11.6-14.2-27.9-23-46.1-24.9
		C250.6,385.6,248.2,385.5,245.9,385.5z M246.1,520.5c-2.3,0-4.6-0.1-6.9-0.4c-17.6-1.8-33.5-10.4-44.8-24.2s-16.4-31.1-14.6-48.7
		c1.7-16.5,9.4-31.6,21.7-42.7c12.3-11,28-17,44.4-17c2.3,0,4.6,0.1,6.8,0.3c17.6,1.8,33.5,10.4,44.8,24.2s16.4,31.1,14.6,48.7
		c-1.8,17.6-10.4,33.5-24.2,44.8C276,515.3,261.3,520.5,246.1,520.5z M245.9,396.5c-29.6,0-54.1,22.2-57.2,51.7
		c-1.6,15.3,2.9,30.2,12.6,42.1c9.7,11.9,23.5,19.3,38.7,20.9c15.3,1.6,30.2-2.9,42.1-12.6c11.9-9.7,19.3-23.5,20.9-38.7
		c1.6-15.3-2.9-30.2-12.6-42.1c-9.7-11.9-23.5-19.3-38.7-20.9C249.9,396.6,247.9,396.5,245.9,396.5z"/>
</g>
<g>
	<path class="st0" d="M933.2,995.1c-2.5,0-5-0.1-7.6-0.4c-19.4-2-36.9-11.4-49.2-26.5c-12.3-15.1-18-34.1-16-53.5
		c2-19.4,11.4-36.9,26.5-49.2s34.1-18,53.5-16c19.4,2,36.9,11.4,49.2,26.5c12.3,15.1,18,34.1,16,53.5c-2,19.4-11.4,36.9-26.5,49.2
		C966,989.4,949.9,995.1,933.2,995.1z M932.9,860.1c-14.2,0-27.9,4.8-39,13.9c-12.8,10.5-20.8,25.3-22.5,41.8
		c-3.5,34,21.4,64.5,55.4,68c16.5,1.7,32.6-3.1,45.5-13.6c12.8-10.5,20.8-25.3,22.5-41.8l0,0c1.7-16.5-3.1-32.6-13.6-45.5
		c-10.5-12.8-25.3-20.8-41.8-22.5C937.2,860.2,935,860.1,932.9,860.1z"/>
	<path class="st0" d="M933.2,999.6c-2.6,0-5.3-0.1-8-0.4c-20.6-2.1-39.1-12.1-52.2-28.2c-13.1-16-19.1-36.2-17-56.8
		S868,875,884.1,862c16-13.1,36.2-19.1,56.8-17c20.6,2.1,39.1,12.1,52.2,28.2c13.1,16,19.1,36.2,17,56.8
		c-2.1,20.6-12.1,39.1-28.2,52.2C968,993.5,951.1,999.6,933.2,999.6z M932.9,853.6c-15.7,0-30.8,5.3-43.1,15.4
		c-14.2,11.6-23,27.9-24.9,46.1c-1.9,18.2,3.5,36,15,50.2s27.9,23,46.1,24.9c2.4,0.2,4.8,0.4,7.1,0.4c15.8,0,30.8-5.3,43.1-15.4
		c14.2-11.6,23-27.9,24.9-46.1c1.9-18.2-3.5-36-15-50.2c-11.6-14.2-27.9-23-46.1-24.9C937.6,853.7,935.3,853.6,932.9,853.6z
		 M933.1,988.6c-2.3,0-4.6-0.1-6.9-0.4c-17.6-1.8-33.5-10.4-44.8-24.2c-11.2-13.8-16.4-31.1-14.6-48.7c1.8-17.7,10.4-33.6,24.2-44.8
		c12-9.8,26.5-14.9,41.9-14.9c2.3,0,4.6,0.1,6.9,0.4c17.7,1.8,33.6,10.4,44.8,24.2c11.2,13.8,16.4,31.1,14.6,48.8
		c-1.8,17.7-10.4,33.6-24.2,44.8C963,983.4,948.4,988.6,933.1,988.6z M932.9,864.6c-13.3,0-25.8,4.5-36.2,12.9
		c-11.9,9.7-19.3,23.5-20.9,38.7c-1.6,15.3,2.9,30.2,12.6,42.1c9.7,11.9,23.5,19.3,38.7,20.9c15.3,1.6,30.2-2.9,42.2-12.6
		c11.9-9.7,19.3-23.5,20.9-38.7s-2.9-30.3-12.6-42.2s-23.5-19.3-38.7-20.9C936.9,864.7,934.9,864.6,932.9,864.6z"/>
</g>
<g>
	<path class="st0" d="M850.2,605c-2.5,0-5-0.1-7.6-0.4c-19.4-2-36.9-11.4-49.2-26.5c-12.3-15.1-18-34.1-16-53.5s11.4-36.9,26.5-49.2
		c15.1-12.3,34.1-18,53.5-16c19.4,2,36.9,11.4,49.2,26.5c12.3,15.1,18,34.1,16,53.5s-11.4,36.9-26.5,49.2
		C883,599.3,866.9,605,850.2,605z M850,470c-31.4,0-58.4,23.8-61.6,55.7c-3.5,34,21.4,64.5,55.4,68c16.5,1.7,32.6-3.1,45.5-13.6
		c12.8-10.5,20.8-25.3,22.5-41.8l0,0c1.7-16.5-3.1-32.6-13.6-45.5c-10.5-12.8-25.3-20.8-41.8-22.5C854.2,470.1,852.1,470,850,470z"
		/>
	<path class="st0" d="M850.2,609.5c-2.7,0-5.4-0.1-8-0.4c-20.6-2.1-39.1-12.1-52.2-28.2c-13.1-16.1-19.1-36.2-17-56.8
		s12.1-39.1,28.2-52.2c16-13.1,36.2-19.1,56.8-17c20.6,2.1,39.1,12.1,52.2,28.2c13.1,16,19.1,36.2,17,56.8
		c-2.1,20.6-12.1,39.1-28.2,52.2C885,603.5,868.1,609.5,850.2,609.5z M849.9,463.5c-15.7,0-30.8,5.3-43.1,15.4
		c-14.2,11.6-23,27.9-24.9,46.1c-1.9,18.2,3.5,36,15,50.2c11.6,14.2,27.9,23,46.1,24.9c2.4,0.2,4.7,0.4,7.1,0.4
		c15.8,0,30.8-5.3,43.1-15.4c14.2-11.6,23-27.9,24.9-46.1c1.9-18.2-3.5-36-15-50.2c-11.6-14.2-27.9-23-46.1-24.9
		C854.7,463.6,852.3,463.5,849.9,463.5z M850.2,598.5c-2.3,0-4.6-0.1-6.9-0.4c-17.6-1.8-33.5-10.4-44.8-24.2s-16.4-31.1-14.6-48.7
		c1.7-16.5,9.4-31.6,21.7-42.7c12.3-11,28-17,44.4-17c2.3,0,4.6,0.1,6.8,0.3c17.7,1.8,33.6,10.4,44.8,24.2
		c11.2,13.8,16.4,31.1,14.6,48.8c-1.8,17.7-10.4,33.6-24.2,44.8C880.1,593.3,865.4,598.5,850.2,598.5z M850,474.5
		c-29.6,0-54.1,22.2-57.2,51.7c-1.6,15.3,2.9,30.2,12.6,42.1c9.7,11.9,23.5,19.3,38.7,20.9c15.3,1.6,30.2-2.9,42.2-12.6
		c11.9-9.7,19.3-23.5,20.9-38.7s-2.9-30.3-12.6-42.2c-9.7-11.9-23.5-19.3-38.7-20.9C854,474.6,852,474.5,850,474.5z"/>
</g>
</svg>
