<?xml version="1.0" encoding="utf-8"?>
<!-- Generator: Adobe Illustrator 22.1.0, SVG Export Plug-In . SVG Version: 6.00 Build 0)  -->
<svg version="1.1" id="Layer_1" xmlns="http://www.w3.org/2000/svg" xmlns:xlink="http://www.w3.org/1999/xlink" x="0px" y="0px"
	 viewBox="0 0 1200 1200" style="enable-background:new 0 0 1200 1200;" xml:space="preserve">
<style type="text/css">
	.st0{fill:#6DD1B9;}
	.st1{fill:#6DD1B9;stroke:#6DD1B9;stroke-width:5;stroke-miterlimit:10;}
	.st2{fill:#6DD1B9;stroke:#6DD1B9;stroke-width:3;stroke-miterlimit:10;}
	.st3{fill:#6DD1B9;stroke:#6DD1B9;stroke-width:9;stroke-miterlimit:10;}
	.st4{fill:#6DD1B9;stroke:#6DCDB8;stroke-width:8;stroke-miterlimit:10;}
	.st5{fill:#6DD1B9;stroke:#6DD1B9;stroke-width:4;stroke-miterlimit:10;}
	.st6{fill:none;stroke:#6DD1B9;stroke-width:21;stroke-miterlimit:10;}
	.st7{fill:none;stroke:#6DD1B9;stroke-width:20;stroke-miterlimit:10;}
	.st8{fill:#6DCDB8;stroke:#6DCDB8;stroke-width:8;stroke-miterlimit:10;}
	.st9{fill:#6DCDB8;stroke:#6DD1B9;stroke-width:7;stroke-miterlimit:10;}
	.st10{fill:#6DCDB8;stroke:#6DD1B9;stroke-width:8;stroke-miterlimit:10;}
</style>
<g>
	<path class="st0" d="M297.3,896.5c-0.2,0-0.5,0-0.7,0c-33.6-0.1-64.5-4-87.2-11.2l3.3-10.5c85.6,27,299.7,8.3,386.6-122.2
		c30-45.1,17.3-84.6,3.9-126.4c-7.7-24-15.7-48.8-16.4-75.9c-0.8-30.9,8.3-60.4,27.8-89.9c19-28.8,45.1-53,77.5-71.9
		c25.8-15,55.6-26.8,88.7-34.8c56.1-13.7,101.5-12.2,103.4-12.1l-0.4,11c-0.5,0-46-1.5-100.7,11.9c-32,7.8-60.8,19.2-85.6,33.7
		c-30.9,18-55.6,41-73.7,68.4c-40.6,61.6-25.1,109.8-10.1,156.4c13.7,42.4,27.8,86.3-5.2,135.8c-21.3,32.1-51.1,59.4-88.4,81.3
		c-32.6,19.1-70.3,33.8-112,43.5C371.9,892.1,333.6,896.5,297.3,896.5z"/>
	<path class="st0" d="M297.3,901l-0.7,0c-34-0.1-65.5-4.1-88.6-11.4l-4.3-1.4l6-19.1l4.3,1.4c38.5,12.1,112.4,16.2,190.4-2.1
		c40.1-9.4,76.3-23.4,107.5-41.7c35.4-20.7,63.5-46.5,83.5-76.6c28.8-43.3,16.4-81.8,3.3-122.5c-7.8-24.3-15.9-49.4-16.6-77.2
		c-0.8-31.9,8.5-62.1,28.5-92.5c19.4-29.4,45.9-54.1,78.9-73.3c26.2-15.3,56.4-27.1,89.9-35.3c56.7-13.9,102.7-12.3,104.7-12.3
		l4.5,0.2l-0.7,20l-4.5-0.2c-0.4,0-45.6-1.4-99.4,11.8c-31.5,7.7-59.9,18.9-84.4,33.2c-30.2,17.7-54.5,40.2-72.2,67
		c-39.4,59.8-24.3,107-9.6,152.5c14,43.5,28.4,88.4-5.7,139.7c-21.7,32.6-52,60.5-89.9,82.7c-33,19.4-71.1,34.2-113.3,44
		C372.6,896.5,334,901,297.3,901z M215,882.4c21.8,6.2,50.5,9.6,81.6,9.7l0.7,0c36,0,73.9-4.4,109.7-12.8
		c41.3-9.7,78.5-24.1,110.8-43c36.8-21.6,66-48.5,87-79.9c31.7-47.7,18-90.5,4.6-132c-15.3-47.6-31.1-96.8,10.7-160.3
		c18.4-27.9,43.7-51.4,75.2-69.8c25.2-14.7,54.4-26.2,86.8-34.2c45-11,84-12.1,97.1-12.1c0.1,0,0.2,0,0.3,0l0.1-2
		c-12.9,0-51.6,0.8-97.7,12.1c-32.6,8-62,19.5-87.5,34.4c-31.8,18.5-57.4,42.3-76,70.5c-18.9,28.8-27.8,57.3-27,87.3
		c0.7,26.5,8.5,51,16.1,74.7c13.8,42.9,26.8,83.4-4.4,130.2c-20.8,31.2-49.9,57.9-86.5,79.3c-32,18.7-69,33.1-110,42.7
		C370.8,885.6,333,890,297,890c0,0,0,0,0,0c-31,0-59.6-3.4-81.4-9.6L215,882.4z"/>
</g>
<g>
	<path class="st0" d="M696.3,802.1l-7.2-8.3c43.7-37.9,34.7-84.6,25.1-134.1c-9.6-49.5-19.5-100.7,23.3-145.2
		c21.1-22,52-40.6,92.1-55.5c31.7-11.8,69.2-21.2,111.5-28.1c71.8-11.6,133.3-11.8,134-11.8l0,11c-0.6,0-61.4,0.1-132.4,11.7
		c-93.1,15.1-161.3,42.9-197.2,80.3c-38.8,40.5-29.9,86.6-20.4,135.5C734.7,708,744.8,760,696.3,802.1z"/>
	<path class="st0" d="M695.9,808.5l-13.1-15.1l3.4-2.9c19-16.5,28.8-35.4,31-59.7c1.9-22-2.6-45.4-7.4-70.1
		c-9.8-50.6-19.9-103,24.5-149.2c21.5-22.4,53.1-41.5,93.8-56.6c32-11.9,69.8-21.4,112.3-28.3c72.1-11.7,134.1-11.8,134.7-11.8h4.5
		l0,20l-4.5,0c-0.6,0-61.1,0.1-131.6,11.6c-92.2,15-159.5,42.3-194.7,78.9c-37.2,38.8-28.5,83.8-19.3,131.6
		c4.9,25.3,10,51.4,7.6,76.6c-2.7,28.9-15.1,52.5-37.7,72.1L695.9,808.5z M695.4,794.2l1.3,1.5c18.9-17.6,28.9-37.8,31.3-63.2
		c2.3-23.9-2.7-49.4-7.4-74.1c-9.7-50.1-18.9-97.4,21.6-139.5c36.6-38.1,105.6-66.3,199.7-81.6c60.2-9.8,113.2-11.4,128.6-11.7l0-2
		c-15.4,0.3-68.5,1.9-128.7,11.7c-42,6.8-79.2,16.2-110.6,27.8c-39.4,14.6-69.8,32.9-90.4,54.4c-41.2,42.9-31.5,92.9-22.1,141.3
		c4.9,25.4,9.6,49.4,7.5,72.6C723.9,756.4,713.8,777,695.4,794.2z"/>
</g>
<g>
	<path class="st0" d="M289.8,800.7c-44.9,0-85.2-7.2-112-15.6l3.3-10.5c34.5,10.9,97.6,20.4,161.7,11.5
		c50.9-7.1,120.3-28.5,161.6-90.4c25.1-37.7,12-74.3-1.9-113.1c-16.3-45.7-33.2-92.9,15.9-140.9l7.7,7.9
		c-44,43.1-29.1,85-13.2,129.4c14.2,39.6,28.8,80.6,0.7,122.9c-43.5,65.4-116,87.9-169.2,95.2C325.8,799.5,307.4,800.7,289.8,800.7z
		"/>
	<path class="st0" d="M289.8,805.2c-40.1,0-81.4-5.8-113.3-15.8l-4.3-1.4l6-19.1l4.3,1.4c34.1,10.7,96.4,20.2,159.8,11.4
		c50-6.9,118.1-27.9,158.4-88.5c23.8-35.8,11.1-71.4-2.4-109.1c-8.2-23-16.7-46.8-16.9-71.1c-0.2-27.8,10.9-52.2,33.8-74.6l3.2-3.1
		l14,14.3l-3.2,3.1c-42,41.1-28.1,79.8-12.1,124.6c14.5,40.7,29.6,82.7,0.2,126.9C472.9,771,399.1,793.9,345,801.4
		C327.2,803.9,308.6,805.2,289.8,805.2z M183.5,782c30.5,9,68.9,14.1,106.3,14.1c18.4,0,36.5-1.2,54-3.6
		c52.3-7.2,123.5-29.3,166.1-93.3c26.9-40.4,12.6-80.3-1.2-118.9c-8.2-22.9-15.9-44.5-16.1-66.6c-0.2-23.8,8.7-44.9,27.3-64.3
		l-1.4-1.4c-19.2,19.9-28.1,40.6-27.9,64.9c0.1,22.8,8.4,45.8,16.3,68.1c14.3,39.9,27.7,77.5,1.4,117.1
		c-42.2,63.3-112.8,85.2-164.7,92.4c-62.3,8.6-123.6,0.1-159.4-10.4L183.5,782z"/>
</g>
</svg>
