<svg id="Layer_1" data-name="Layer 1" xmlns="http://www.w3.org/2000/svg" viewBox="0 0 1200 1200"><defs><style>.cls-1{fill:#6dd1b9;}</style></defs><title>Web_icon_ecofriendly-08</title><path class="cls-1" d="M302.28,496.29A316.85,316.85,0,0,1,886.45,471.6q5-2.22,10.13-4.31A327.82,327.82,0,0,0,293,489.71q1.67,1.95,3.31,3.92Q299.3,494.94,302.28,496.29Z"/><path class="cls-1" d="M304.84,502.39l-4.42-2q-2.94-1.33-5.91-2.63l-1-.42-.69-.83q-1.62-2-3.27-3.87l-1.73-2,.94-2.49a332.36,332.36,0,0,1,611.88-22.73l2,4.28-4.36,1.79c-3.35,1.37-6.72,2.8-10,4.26l-4,1.77-1.87-4A312.31,312.31,0,0,0,306.5,497.84Zm-5.77-12.46.68.3a321.36,321.36,0,0,1,588.89-24.49l1.85-.79a323.33,323.33,0,0,0-592.35,23.88Z"/><path class="cls-1" d="M569.39,920.58A316.53,316.53,0,0,1,283,605.5c0-6.92.24-13.81.68-20.65q-5.25-5-10.23-10.3Q272,589.9,272,605.5A327.51,327.51,0,0,0,569.49,931.63C569.44,927.94,569.4,924.26,569.39,920.58Z"/><path class="cls-1" d="M574.07,936.56l-5-.45A332,332,0,0,1,267.5,605.5c0-10.35.49-20.9,1.47-31.37l.92-9.92,6.83,7.25c3.33,3.53,6.71,6.94,10.06,10.13l1.53,1.45-.14,2.09c-.44,7-.67,13.83-.67,20.37A311.4,311.4,0,0,0,569.81,916.1l4.06.38,0,4.08c0,3.66.05,7.33.1,11ZM277.16,584.79c-.44,6.94-.66,13.87-.66,20.71A322.39,322.39,0,0,0,564.93,926.66c0-.67,0-1.33,0-2A321.07,321.07,0,0,1,278.5,605.5c0-6.08.19-12.41.56-18.85Z"/><path class="cls-1" d="M924,560.82q-5.33,1.57-10.69,3.06A320.88,320.88,0,0,1,916,605.5,316.68,316.68,0,0,1,653.84,917.38c.84,3.59,1.54,7.19,2.13,10.8A327.69,327.69,0,0,0,927,605.5,332.65,332.65,0,0,0,924,560.82Z"/><path class="cls-1" d="M652.25,933.39l-.73-4.49c-.57-3.58-1.27-7.11-2.06-10.49l-1.1-4.65,4.71-.81A312.18,312.18,0,0,0,911.5,605.5a317.64,317.64,0,0,0-2.68-41l-.5-3.88,3.77-1c3.33-.92,6.8-1.91,10.61-3l5-1.48.7,5.2a337.48,337.48,0,0,1,3.07,45.28A332.21,332.21,0,0,1,656.73,932.62Zm7-12.41.39,2A323.21,323.21,0,0,0,922.5,605.5a327.67,327.67,0,0,0-2.33-38.89l-1.94.56a326.44,326.44,0,0,1,2.27,38.33A321.21,321.21,0,0,1,659.23,921Z"/></svg>