<?xml version="1.0" encoding="utf-8"?>
<!-- Generator: Adobe Illustrator 22.1.0, SVG Export Plug-In . SVG Version: 6.00 Build 0)  -->
<svg version="1.1" id="Layer_1" xmlns="http://www.w3.org/2000/svg" xmlns:xlink="http://www.w3.org/1999/xlink" x="0px" y="0px"
	 viewBox="0 0 1200 1200" style="enable-background:new 0 0 1200 1200;" xml:space="preserve">
<style type="text/css">
	.st0{fill:#6DD1B9;}
	.st1{fill:#6DD1B9;stroke:#6DD1B9;stroke-width:5;stroke-miterlimit:10;}
	.st2{fill:#6DD1B9;stroke:#6DD1B9;stroke-width:3;stroke-miterlimit:10;}
	.st3{fill:#6DD1B9;stroke:#6DD1B9;stroke-width:9;stroke-miterlimit:10;}
	.st4{fill:#6DD1B9;stroke:#6DCDB8;stroke-width:8;stroke-miterlimit:10;}
	.st5{fill:#6DD1B9;stroke:#6DD1B9;stroke-width:4;stroke-miterlimit:10;}
	.st6{fill:none;stroke:#6DD1B9;stroke-width:21;stroke-miterlimit:10;}
	.st7{fill:none;stroke:#6DD1B9;stroke-width:20;stroke-miterlimit:10;}
	.st8{fill:#6DCDB8;stroke:#6DCDB8;stroke-width:8;stroke-miterlimit:10;}
	.st9{fill:#6DCDB8;stroke:#6DD1B9;stroke-width:7;stroke-miterlimit:10;}
	.st10{fill:#6DCDB8;stroke:#6DD1B9;stroke-width:8;stroke-miterlimit:10;}
</style>
<path class="st2" d="M486.4,874.3c-94.3,0-170.9-76.7-170.9-170.9c0-94.3,76.7-170.9,170.9-170.9c94.3,0,170.9,76.7,170.9,170.9
	C657.4,797.6,580.7,874.3,486.4,874.3z M486.4,554.4c-82.1,0-148.9,66.8-148.9,148.9c0,82.1,66.8,148.9,148.9,148.9
	c82.1,0,148.9-66.8,148.9-148.9C635.4,621.3,568.6,554.4,486.4,554.4z"/>
<path class="st2" d="M434.4,840.7c-13.6,0-27.3-2.4-40.4-7.2c-29.7-10.8-53.4-32.5-66.8-61.1c-27.6-59.1-2-129.6,57.1-157.3
	c59.1-27.6,129.6-2,157.3,57.1l0,0c13.4,28.6,14.8,60.7,4,90.4s-32.5,53.4-61.1,66.8C468.5,836.9,451.4,840.7,434.4,840.7z
	 M434.1,626c-13.6,0-27.5,2.9-40.6,9.1c-23.3,10.9-41,30.2-49.7,54.4c-8.8,24.2-7.6,50.3,3.3,73.6c10.9,23.3,30.2,41,54.4,49.7
	c24.2,8.8,50.3,7.6,73.6-3.3c23.3-10.9,41-30.2,49.7-54.4c8.8-24.2,7.6-50.3-3.3-73.6l0,0C505.2,646.6,470.4,626,434.1,626z"/>
<path class="st2" d="M767.8,645.3c-13.6,0-27.3-2.4-40.4-7.2c-29.7-10.8-53.4-32.5-66.8-61.1s-14.8-60.7-4-90.4
	c10.8-29.7,32.5-53.4,61.1-66.8c59.1-27.6,129.6-2,157.3,57.1l0,0c27.6,59.1,2,129.6-57.1,157.3
	C801.8,641.5,784.8,645.3,767.8,645.3z M767.5,430.6c-13.6,0-27.5,2.9-40.6,9.1c-23.3,10.9-41,30.2-49.7,54.4
	c-8.8,24.2-7.6,50.3,3.3,73.6c10.9,23.3,30.2,41,54.4,49.7c24.2,8.8,50.3,7.6,73.6-3.3c48.1-22.5,68.9-79.9,46.5-128
	C838.6,451.2,803.8,430.6,767.5,430.6z"/>
</svg>
