<?xml version="1.0" encoding="utf-8"?>
<!-- Generator: Adobe Illustrator 22.1.0, SVG Export Plug-In . SVG Version: 6.00 Build 0)  -->
<svg version="1.1" id="Layer_1" xmlns="http://www.w3.org/2000/svg" xmlns:xlink="http://www.w3.org/1999/xlink" x="0px" y="0px"
	 viewBox="0 0 1200 1200" style="enable-background:new 0 0 1200 1200;" xml:space="preserve">
<style type="text/css">
	.st0{fill:#6DD1B9;}
	.st1{fill:#6DD1B9;stroke:#6DD1B9;stroke-width:5;stroke-miterlimit:10;}
	.st2{fill:#6DD1B9;stroke:#6DD1B9;stroke-width:3;stroke-miterlimit:10;}
	.st3{fill:#6DD1B9;stroke:#6DD1B9;stroke-width:9;stroke-miterlimit:10;}
	.st4{fill:#6DD1B9;stroke:#6DCDB8;stroke-width:8;stroke-miterlimit:10;}
	.st5{fill:#6DD1B9;stroke:#6DD1B9;stroke-width:4;stroke-miterlimit:10;}
	.st6{fill:none;stroke:#6DD1B9;stroke-width:21;stroke-miterlimit:10;}
	.st7{fill:none;stroke:#6DD1B9;stroke-width:20;stroke-miterlimit:10;}
	.st8{fill:#6DCDB8;stroke:#6DCDB8;stroke-width:8;stroke-miterlimit:10;}
	.st9{fill:#6DCDB8;stroke:#6DD1B9;stroke-width:7;stroke-miterlimit:10;}
	.st10{fill:#6DCDB8;stroke:#6DD1B9;stroke-width:8;stroke-miterlimit:10;}
</style>
<path class="st2" d="M980,861.1H247.8c-12.7,0-23-10.3-23-23v-270c0-12.7,10.3-23,23-23H980c12.7,0,23,10.3,23,23v270
	C1003,850.8,992.7,861.1,980,861.1z M247.8,567.1c-0.5,0-1,0.5-1,1v270c0,0.5,0.5,1,1,1H980c0.5,0,1-0.5,1-1v-270c0-0.5-0.5-1-1-1
	H247.8z"/>
<rect x="247.1" y="262.6" transform="matrix(0.8489 -0.5286 0.5286 0.8489 -169.5114 196.0253)" class="st2" width="22" height="263.6"/>
<rect x="365.2" y="364.9" transform="matrix(0.97 -0.2433 0.2433 0.97 -96.059 104.7752)" class="st2" width="22" height="152.9"/>
<path class="st2" d="M1053,864h-49c-12.7,0-23-10.3-23-23V498c0-12.7,10.3-23,23-23h49c12.7,0,23,10.3,23,23v343
	C1076,853.7,1065.7,864,1053,864z M1004,497c-0.5,0-1,0.5-1,1v343c0,0.5,0.5,1,1,1h49c0.5,0,1-0.5,1-1V498c0-0.5-0.5-1-1-1H1004z"/>
<rect x="177.9" y="381.2" transform="matrix(0.6752 -0.7376 0.7376 0.6752 -276.2599 287.9614)" class="st2" width="22" height="152.9"/>
</svg>
