<?xml version="1.0" encoding="utf-8"?>
<!-- Generator: Adobe Illustrator 22.1.0, SVG Export Plug-In . SVG Version: 6.00 Build 0)  -->
<svg version="1.1" id="Layer_1" xmlns="http://www.w3.org/2000/svg" xmlns:xlink="http://www.w3.org/1999/xlink" x="0px" y="0px"
	 viewBox="0 0 1200 1200" style="enable-background:new 0 0 1200 1200;" xml:space="preserve">
<style type="text/css">
	.st0{fill:#6DD1B9;}
	.st1{fill:#6DD1B9;stroke:#6DD1B9;stroke-width:5;stroke-miterlimit:10;}
	.st2{fill:#6DD1B9;stroke:#6DD1B9;stroke-width:3;stroke-miterlimit:10;}
	.st3{fill:#6DD1B9;stroke:#6DD1B9;stroke-width:9;stroke-miterlimit:10;}
	.st4{fill:#6DD1B9;stroke:#6DCDB8;stroke-width:8;stroke-miterlimit:10;}
	.st5{fill:#6DD1B9;stroke:#6DD1B9;stroke-width:4;stroke-miterlimit:10;}
	.st6{fill:none;stroke:#6DD1B9;stroke-width:21;stroke-miterlimit:10;}
	.st7{fill:none;stroke:#6DD1B9;stroke-width:20;stroke-miterlimit:10;}
	.st8{fill:#6DCDB8;stroke:#6DCDB8;stroke-width:8;stroke-miterlimit:10;}
	.st9{fill:#6DCDB8;stroke:#6DD1B9;stroke-width:7;stroke-miterlimit:10;}
	.st10{fill:#6DCDB8;stroke:#6DD1B9;stroke-width:8;stroke-miterlimit:10;}
</style>
<path class="st5" d="M681.5,701.4c-108.4,0-196.5-88.2-196.5-196.5c0-108.4,88.2-196.5,196.5-196.5c108.4,0,196.5,88.2,196.5,196.5
	C878,613.3,789.8,701.4,681.5,701.4z M681.5,333.7c-94.4,0-171.2,76.8-171.2,171.2c0,94.4,76.8,171.2,171.2,171.2
	c94.4,0,171.2-76.8,171.2-171.2C852.7,410.5,775.9,333.7,681.5,333.7z"/>
<path class="st5" d="M548.5,900.3c-10.4,0-20.8-1.8-30.8-5.5c-22.6-8.2-40.7-24.7-50.8-46.5c-10.2-21.8-11.3-46.2-3.1-68.8
	c8.2-22.6,24.7-40.7,46.5-50.8c45-21,98.7-1.5,119.7,43.5l0,0c21,45,1.5,98.7-43.5,119.7C574.4,897.4,561.5,900.3,548.5,900.3z
	 M548.3,736.9c-10.4,0-20.9,2.2-30.9,6.9c-17.7,8.3-31.2,23-37.9,41.4c-6.7,18.4-5.8,38.3,2.5,56c8.3,17.7,23,31.2,41.4,37.9
	c18.4,6.7,38.3,5.8,56-2.5c36.6-17.1,52.5-60.8,35.4-97.4C602.4,752.5,575.9,736.9,548.3,736.9z"/>
</svg>
