<?xml version="1.0" encoding="utf-8"?>
<!-- Generator: Adobe Illustrator 22.1.0, SVG Export Plug-In . SVG Version: 6.00 Build 0)  -->
<svg version="1.1" id="Layer_1" xmlns="http://www.w3.org/2000/svg" xmlns:xlink="http://www.w3.org/1999/xlink" x="0px" y="0px"
	 viewBox="0 0 1200 1200" style="enable-background:new 0 0 1200 1200;" xml:space="preserve">
<style type="text/css">
	.st0{fill:#6DD1B9;}
	.st1{fill:#6DD1B9;stroke:#6DD1B9;stroke-width:5;stroke-miterlimit:10;}
	.st2{fill:#6DD1B9;stroke:#6DD1B9;stroke-width:3;stroke-miterlimit:10;}
	.st3{fill:#6DD1B9;stroke:#6DD1B9;stroke-width:9;stroke-miterlimit:10;}
	.st4{fill:#6DD1B9;stroke:#6DCDB8;stroke-width:8;stroke-miterlimit:10;}
	.st5{fill:#6DD1B9;stroke:#6DD1B9;stroke-width:4;stroke-miterlimit:10;}
	.st6{fill:none;stroke:#6DD1B9;stroke-width:21;stroke-miterlimit:10;}
	.st7{fill:none;stroke:#6DD1B9;stroke-width:20;stroke-miterlimit:10;}
	.st8{fill:#6DCDB8;stroke:#6DCDB8;stroke-width:8;stroke-miterlimit:10;}
	.st9{fill:#6DCDB8;stroke:#6DD1B9;stroke-width:7;stroke-miterlimit:10;}
	.st10{fill:#6DCDB8;stroke:#6DD1B9;stroke-width:8;stroke-miterlimit:10;}
</style>
<g>
	<path class="st0" d="M588.5,761C486.8,761,404,678.2,404,576.5S486.8,392,588.5,392S773,474.8,773,576.5S690.2,761,588.5,761z
		 M588.5,403C492.8,403,415,480.8,415,576.5S492.8,750,588.5,750S762,672.2,762,576.5S684.2,403,588.5,403z"/>
	<path class="st0" d="M588.5,765.5c-104.2,0-189-84.8-189-189s84.8-189,189-189s189,84.8,189,189S692.7,765.5,588.5,765.5z
		 M588.5,396.5c-99.3,0-180,80.7-180,180s80.7,180,180,180s180-80.7,180-180S687.8,396.5,588.5,396.5z M588.5,754.5
		c-98.1,0-178-79.9-178-178s79.9-178,178-178s178,79.9,178,178S686.6,754.5,588.5,754.5z M588.5,407.5c-93.2,0-169,75.8-169,169
		s75.8,169,169,169s169-75.8,169-169S681.7,407.5,588.5,407.5z"/>
</g>
<g>
	<path class="st0" d="M722.2,839H706l12.9-9.9c0.3-0.3,35.3-27.1,69.7-69.7c57.1-70.5,69.1-129.3,69.1-166.2
		c0-36.9-12-95.8-69.2-166.4c-34.4-42.5-69.2-69.2-69.5-69.5l-12.9-9.9h16.3c65.6,0,127.4,25.6,173.8,72s72,108.1,72,173.8
		S942.4,720.6,896,767S787.9,839,722.2,839z M738.2,359c13.5,11.7,36,32.8,58.8,60.9c20.7,25.6,37.3,51.7,49.2,77.5
		c14.9,32.5,22.5,64.7,22.5,95.8s-7.6,63.3-22.5,95.8c-11.9,25.8-28.4,51.9-49.2,77.5c-22.8,28.1-45.3,49.2-58.8,60.9
		c56.7-3.8,109.5-27.7,150.1-68.2c44.3-44.3,68.8-103.3,68.8-166s-24.4-121.7-68.8-166C847.7,386.7,794.9,362.8,738.2,359z"/>
	<path class="st0" d="M722.2,843.5h-29.6l23.5-17.9c0.3-0.3,35-27,68.9-68.9c56.3-69.5,68.1-127.2,68.1-163.4
		c0-36.2-11.8-94-68.2-163.6c-33.9-41.9-68.4-68.5-68.8-68.7L692.7,343h29.6c66.8,0,129.7,26,177,73.3
		c47.3,47.3,73.3,110.1,73.3,177s-26,129.7-73.3,177C851.9,817.5,789.1,843.5,722.2,843.5z M719.3,834.5h3
		c64.4,0,125-25.1,170.6-70.7c45.6-45.6,70.7-106.1,70.7-170.6s-25.1-125-70.7-170.6C847.3,377.1,786.7,352,722.2,352h-3l2.4,1.8
		c0.4,0.3,35.7,27.5,70.3,70.2c58.1,71.6,70.2,131.6,70.2,169.3c0,37.6-12.2,97.5-70.1,169.1c-34.7,42.9-70.1,70.1-70.5,70.4
		L719.3,834.5z M725.1,832.9l10.1-8.8c14.4-12.5,36.2-33.1,58.3-60.3c20.5-25.3,36.9-51.1,48.6-76.6c14.7-31.9,22.1-63.5,22.1-93.9
		s-7.4-62-22.1-93.9c-11.7-25.5-28.1-51.3-48.6-76.6c-22.1-27.2-43.9-47.8-58.3-60.3l-10.1-8.8l13.4,0.9
		c57.6,3.8,111.9,28.5,152.9,69.5c45.2,45.2,70.1,105.3,70.1,169.2s-24.9,124-70.1,169.2c-41,41-95.3,65.7-152.9,69.5L725.1,832.9z
		 M751.4,364.8c13.8,12.7,31.4,30.4,49.1,52.2c21,25.9,37.7,52.3,49.8,78.5c15.2,33.1,22.9,66,22.9,97.7s-7.7,64.6-22.9,97.7
		c-12,26.2-28.8,52.6-49.8,78.5c-17.7,21.9-35.3,39.5-49.1,52.2c50.4-6.4,97.4-29.4,133.7-65.6c43.5-43.5,67.4-101.3,67.4-162.8
		s-24-119.3-67.4-162.8C848.8,394.2,801.8,371.2,751.4,364.8z"/>
</g>
<g>
	<rect x="238" y="557" class="st0" width="138.5" height="11"/>
	<path class="st0" d="M381,572.5H233.5v-20H381V572.5z M242.5,563.5H372v-2H242.5V563.5z"/>
</g>
<g>
	<rect x="582.8" y="228.2" class="st0" width="11" height="138.5"/>
	<path class="st0" d="M598.2,371.2h-20V223.8h20V371.2z M587.2,362.2h2V232.8h-2V362.2z"/>
</g>
<g>
	
		<rect x="528.3" y="857.1" transform="matrix(1.775565e-03 -1 1 1.775565e-03 -266.3074 1458.4694)" class="st0" width="138.3" height="11"/>
	<path class="st0" d="M607.2,936.3l-20,0l0.3-147.2l20,0L607.2,936.3z M596.3,927.2l2,0l0.2-129.2l-2,0L596.3,927.2z"/>
</g>
</svg>
