<?xml version="1.0" encoding="utf-8"?>
<!-- Generator: Adobe Illustrator 22.1.0, SVG Export Plug-In . SVG Version: 6.00 Build 0)  -->
<svg version="1.1" id="Layer_1" xmlns="http://www.w3.org/2000/svg" xmlns:xlink="http://www.w3.org/1999/xlink" x="0px" y="0px"
	 viewBox="0 0 1200 1200" style="enable-background:new 0 0 1200 1200;" xml:space="preserve">
<style type="text/css">
	.st0{fill:#6DD1B9;}
	.st1{fill:#6DD1B9;stroke:#6DD1B9;stroke-width:5;stroke-miterlimit:10;}
	.st2{fill:#6DD1B9;stroke:#6DD1B9;stroke-width:3;stroke-miterlimit:10;}
	.st3{fill:#6DD1B9;stroke:#6DD1B9;stroke-width:9;stroke-miterlimit:10;}
	.st4{fill:#6DD1B9;stroke:#6DCDB8;stroke-width:8;stroke-miterlimit:10;}
	.st5{fill:#6DD1B9;stroke:#6DD1B9;stroke-width:4;stroke-miterlimit:10;}
	.st6{fill:none;stroke:#6DD1B9;stroke-width:21;stroke-miterlimit:10;}
	.st7{fill:none;stroke:#6DD1B9;stroke-width:20;stroke-miterlimit:10;}
	.st8{fill:#6DCDB8;stroke:#6DCDB8;stroke-width:8;stroke-miterlimit:10;}
	.st9{fill:#6DCDB8;stroke:#6DD1B9;stroke-width:7;stroke-miterlimit:10;}
	.st10{fill:#6DCDB8;stroke:#6DD1B9;stroke-width:8;stroke-miterlimit:10;}
</style>
<path class="st2" d="M604.5,942c-2.9-1.3-70.4-33.4-83.3-104.4c-6.3-34.5,13.6-59.9,34.5-86.8c15.5-19.8,31.5-40.4,41.3-67.7
	c8.2-23-11.8-42.3-45.1-71.8c-38.4-34.1-86.1-76.5-85.8-146.3c0.3-51.3,21.4-107.6,61.1-162.6c29.7-41.1,59-67,60.2-68.1l14.5,16.5
	c-0.5,0.4-29,25.7-57.2,64.8c-46.5,64.6-56.5,116.9-56.6,149.4c-0.3,59.9,41.5,97,78.4,129.8c33.3,29.6,64.8,57.5,51.2,95.7
	c-11,30.7-28.9,53.6-44.6,73.9c-19.4,24.9-34.8,44.6-30.2,69.3c10.9,60,70.3,88.1,70.9,88.4L604.5,942z M601.9,250.8l-7.2-8.3
	L601.9,250.8C602,250.8,601.9,250.8,601.9,250.8L601.9,250.8z"/>
<path class="st2" d="M787.8,942c-2.9-1.3-70.4-33.4-83.3-104.4c-6.3-34.5,13.6-59.9,34.5-86.8c15.5-19.8,31.5-40.4,41.3-67.7
	c8.2-23-11.8-42.3-45.1-71.8c-38.4-34.1-86.1-76.5-85.8-146.3c0.3-51.3,21.4-107.6,61.1-162.6c29.7-41.1,59-67,60.2-68.1l14.5,16.5
	c0,0,0,0,0,0l0,0c-0.5,0.4-29,25.7-57.2,64.8c-46.5,64.6-56.5,116.9-56.6,149.4c-0.3,59.9,41.5,97,78.4,129.8
	c33.3,29.6,64.8,57.5,51.2,95.7c-11,30.7-28.9,53.6-44.6,73.9c-19.4,24.9-34.8,44.6-30.2,69.3c10.9,59.7,70.4,88.1,71,88.4
	L787.8,942z"/>
<path class="st2" d="M433.4,942c-2.9-1.3-70.4-33.4-83.3-104.4c-6.3-34.5,13.6-59.9,34.5-86.8c15.5-19.8,31.5-40.4,41.3-67.7
	c8.2-23-11.8-42.3-45.1-71.8c-38.4-34.1-86.1-76.5-85.8-146.3c0.3-51.3,21.4-107.6,61.1-162.6c29.7-41.1,59-67,60.2-68.1l14.5,16.5
	c-0.5,0.4-29,25.7-57.2,64.8C327.1,380.2,317.2,432.5,317,465c-0.3,59.9,41.5,97,78.4,129.8c33.3,29.6,64.8,57.5,51.2,95.7
	c-11,30.7-28.9,53.6-44.6,73.9c-19.4,24.9-34.8,44.6-30.2,69.3c10.9,59.7,70.4,88.1,71,88.4L433.4,942z M430.8,250.8l-7.2-8.3
	L430.8,250.8C430.8,250.8,430.8,250.8,430.8,250.8L430.8,250.8z"/>
</svg>
