<?xml version="1.0" encoding="utf-8"?>
<!-- Generator: Adobe Illustrator 22.1.0, SVG Export Plug-In . SVG Version: 6.00 Build 0)  -->
<svg version="1.1" id="Layer_1" xmlns="http://www.w3.org/2000/svg" xmlns:xlink="http://www.w3.org/1999/xlink" x="0px" y="0px"
	 viewBox="0 0 1000 1000" style="enable-background:new 0 0 1000 1000;" xml:space="preserve">
<style type="text/css">
	.st0{clip-path:url(#SVGID_2_);}
	.st1{fill:none;stroke:#F3F2F2;stroke-width:3;stroke-miterlimit:10;}
	.st2{clip-path:url(#SVGID_4_);}
	.st3{clip-path:url(#SVGID_6_);}
	.st4{clip-path:url(#SVGID_8_);}
	.st5{clip-path:url(#SVGID_10_);}
	.st6{clip-path:url(#SVGID_12_);}
	.st7{clip-path:url(#SVGID_14_);}
	.st8{clip-path:url(#SVGID_16_);}
	.st9{clip-path:url(#SVGID_18_);fill:none;}
	.st10{clip-path:url(#SVGID_18_);}
	.st11{fill:#F9F7F7;}
	.st12{clip-path:url(#SVGID_20_);}
	.st13{clip-path:url(#SVGID_22_);fill:none;}
	.st14{clip-path:url(#SVGID_22_);}
	.st15{clip-path:url(#SVGID_24_);}
	.st16{clip-path:url(#SVGID_26_);}
	.st17{fill:#F3F2F2;}
	.st18{clip-path:url(#SVGID_28_);}
	.st19{clip-path:url(#SVGID_30_);}
	.st20{clip-path:url(#SVGID_32_);}
</style>
<g>
	<defs>
		<path id="SVGID_11_" d="M693.5-162.4c-14-26.5-17.8-55.4-18.9-85c-0.1-3.5,1.4-5,4.9-6c30.1-8.8,60.2-17.7,90.3-26.6
			c3.2-1,5.4-0.7,6.8,2.2c13.5,27.2,24.5,55.2,23.6,86.9c-0.5,16.2-5.6,31.2-19.8,43c-26.5,22.2-65.7,18.5-82.6-7.9
			C696.3-158.1,694.8-160.4,693.5-162.4z"/>
	</defs>
	<clipPath id="SVGID_2_">
		<use xlink:href="#SVGID_11_"  style="overflow:visible;"/>
	</clipPath>
	<g class="st0">
		<line class="st1" x1="595.3" y1="4.6" x2="981.3" y2="-101.3"/>
		<line class="st1" x1="600.9" y1="28.8" x2="986.9" y2="-77.1"/>
		<line class="st1" x1="606.4" y1="53" x2="992.4" y2="-52.9"/>
	</g>
</g>
<g>
	<defs>
		<path id="SVGID_29_" d="M694,299c74.5,86.9,107.6,190,117.9,302c4.1,44.7,21.2,85.7,36.1,127.2c10.1,28.2,14.6,56.5,7,86.2
			c-7.1,27.5-19.5,50.9-48.8,59.8c-29.7,9.1-54-1.6-74.8-22.7c-20-20.2-32.2-44.4-37-72.1c-2.5-14.1-4.6-28.5-4.6-42.7
			c0.2-62.2-24.9-112.8-71-152.5c-62.9-54.2-93.3-123.7-102.5-204.5c-3.4-29.4,1.7-57.1,12.7-84.2c4.4-5.7,8.8-11.4,13.2-17.1
			c31.5-24.6,65.8-31,103.4-16.3C661.7,274.3,677.8,286.7,694,299z"/>
	</defs>
	<clipPath id="SVGID_4_">
		<use xlink:href="#SVGID_29_"  style="overflow:visible;"/>
	</clipPath>
	<g class="st2">
		<polygon class="st11" points="340.7,631.6 336.9,626.8 773.8,288.7 777.5,293.5 		"/>
		<polygon class="st11" points="319.4,602.1 315.7,597.3 752.5,259.3 756.2,264 		"/>
		<polygon class="st11" points="294.7,577.2 290.9,572.4 727.8,234.4 731.5,239.1 		"/>
		<polygon class="st11" points="274.3,549 270.6,544.2 707.4,206.1 711.1,210.9 		"/>
		<polygon class="st11" points="253.9,520.7 250.2,515.9 687,177.9 690.7,182.6 		"/>
		<polygon class="st11" points="232.6,491.2 228.9,486.5 665.7,148.4 669.5,153.2 		"/>
		<polygon class="st11" points="207.9,466.3 204.2,461.6 641,123.5 644.7,128.3 		"/>
		<polygon class="st11" points="185.4,439.8 181.6,435 618.4,96.9 622.2,101.7 		"/>
		<polygon class="st11" points="511.1,851.8 507.4,847.1 944.2,509 948,513.8 		"/>
		<polygon class="st11" points="489.9,822.4 486.1,817.6 922.9,479.5 926.7,484.3 		"/>
		<polygon class="st11" points="467.3,795.8 463.6,791 900.4,453 904.1,457.7 		"/>
		<polygon class="st11" points="444.8,769.2 441,764.4 877.8,426.4 881.6,431.2 		"/>
		<polygon class="st11" points="424.4,741 420.6,736.2 857.5,398.1 861.2,402.9 		"/>
		<polygon class="st11" points="403.1,711.5 399.4,706.7 836.2,368.7 839.9,373.4 		"/>
		<polygon class="st11" points="380.5,684.9 376.8,680.2 813.6,342.1 817.4,346.9 		"/>
		<polygon class="st11" points="360.2,656.7 356.4,651.9 793.2,313.9 797,318.6 		"/>
		<polygon class="st11" points="685.1,1068.1 681.4,1063.4 1118.2,725.3 1121.9,730.1 		"/>
		<polygon class="st11" points="663.8,1038.7 660.1,1033.9 1096.9,695.8 1100.7,700.6 		"/>
		<polygon class="st11" points="639.1,1013.8 635.4,1009 1072.2,670.9 1075.9,675.7 		"/>
		<polygon class="st11" points="618.7,985.5 615,980.7 1051.8,642.7 1055.5,647.5 		"/>
		<polygon class="st11" points="598.3,957.3 594.6,952.5 1031.4,614.4 1035.2,619.2 		"/>
		<polygon class="st11" points="577.1,927.8 573.3,923 1010.2,585 1013.9,589.8 		"/>
		<polygon class="st11" points="552.3,902.9 548.6,898.1 985.4,560.1 989.2,564.8 		"/>
		<polygon class="st11" points="529.8,876.3 526.1,871.6 962.9,533.5 966.6,538.3 		"/>
		<polygon class="st11" points="834.3,1258.9 830.6,1254.2 1267.4,916.1 1271.1,920.9 		"/>
		<polygon class="st11" points="811.7,1232.4 808,1227.6 1244.8,889.5 1248.6,894.3 		"/>
		<polygon class="st11" points="789.2,1205.8 785.5,1201 1222.3,863 1226,867.7 		"/>
		<polygon class="st11" points="768.8,1177.6 765.1,1172.8 1201.9,834.7 1205.6,839.5 		"/>
		<polygon class="st11" points="747.5,1148.1 743.8,1143.3 1180.6,805.2 1184.4,810 		"/>
		<polygon class="st11" points="725,1121.5 721.2,1116.7 1158.1,778.7 1161.8,783.4 		"/>
		<polygon class="st11" points="704.6,1093.3 700.9,1088.5 1137.7,750.4 1141.4,755.2 		"/>
	</g>
</g>
<g>
	<defs>
		<path id="SVGID_31_" d="M201.9,264.8c2.2,114.3,45.5,213.5,111.4,304.4c26.3,36.2,40.6,78.2,56.9,119.3c11,27.8,26.3,52,51.4,69.3
			c23.2,15.9,47.7,25.3,75.1,12.6c27.8-12.8,38.7-36.8,40.2-66.4c1.4-28.3-5.5-54.5-20.1-78.5c-7.4-12.2-15.3-24.4-24.7-35.1
			c-40.9-46.5-55.6-101.1-47.8-161.3c10.7-82.2-12.5-154.4-58.7-221.1c-16.8-24.2-38.7-41.7-64.6-54.8c-7-1.4-14-2.7-21-4.1
			c-39.3,2.4-68.7,20.3-86.7,56C209.5,225,205.7,244.9,201.9,264.8z"/>
	</defs>
	<clipPath id="SVGID_6_">
		<use xlink:href="#SVGID_31_"  style="overflow:visible;"/>
	</clipPath>
	<g class="st3">
		
			<rect x="357.4" y="63.2" transform="matrix(-2.795836e-02 -0.9996 0.9996 -2.795836e-02 35.3928 704.9521)" class="st11" width="6.1" height="544.2"/>
		
			<rect x="357.8" y="26.9" transform="matrix(-2.795802e-02 -0.9996 0.9996 -2.795802e-02 72.0649 667.936)" class="st11" width="6.1" height="544.2"/>
		
			<rect x="352.7" y="-7.8" transform="matrix(-2.795802e-02 -0.9996 0.9996 -2.795802e-02 101.5366 627.2183)" class="st11" width="6.1" height="544.2"/>
		
			<rect x="353" y="-42.7" transform="matrix(-2.795836e-02 -0.9996 0.9996 -2.795836e-02 136.6795 591.7459)" class="st11" width="6.1" height="544.2"/>
		
			<rect x="353.3" y="-77.5" transform="matrix(-2.795836e-02 -0.9996 0.9996 -2.795836e-02 171.8229 556.2738)" class="st11" width="6.1" height="544.2"/>
		
			<rect x="353.7" y="-113.8" transform="matrix(-2.795802e-02 -0.9996 0.9996 -2.795802e-02 208.4935 519.2601)" class="st11" width="6.1" height="544.2"/>
		
			<rect x="348.6" y="-148.5" transform="matrix(-2.795802e-02 -0.9996 0.9996 -2.795802e-02 237.9652 478.5425)" class="st11" width="6.1" height="544.2"/>
		
			<rect x="346.3" y="-183.3" transform="matrix(-2.795802e-02 -0.9996 0.9996 -2.795802e-02 270.2735 440.4464)" class="st11" width="6.1" height="544.2"/>
		
			<rect x="364" y="341.5" transform="matrix(-2.795836e-02 -0.9996 0.9996 -2.795836e-02 -236.1165 997.6509)" class="st11" width="6.1" height="544.2"/>
		
			<rect x="364.3" y="305.2" transform="matrix(-2.796159e-02 -0.9996 0.9996 -2.796159e-02 -199.4437 960.6379)" class="st11" width="6.1" height="544.2"/>
		
			<rect x="361.9" y="270.5" transform="matrix(-2.795802e-02 -0.9996 0.9996 -2.795802e-02 -167.1376 922.541)" class="st11" width="6.1" height="544.2"/>
		
			<rect x="359.6" y="235.7" transform="matrix(-2.795802e-02 -0.9996 0.9996 -2.795802e-02 -134.8293 884.4449)" class="st11" width="6.1" height="544.2"/>
		
			<rect x="359.9" y="200.9" transform="matrix(-2.795836e-02 -0.9996 0.9996 -2.795836e-02 -99.6864 848.9727)" class="st11" width="6.1" height="544.2"/>
		
			<rect x="360.2" y="164.5" transform="matrix(-2.795802e-02 -0.9996 0.9996 -2.795802e-02 -63.0157 811.9589)" class="st11" width="6.1" height="544.2"/>
		
			<rect x="357.9" y="129.8" transform="matrix(-2.795802e-02 -0.9996 0.9996 -2.795802e-02 -30.709 773.8652)" class="st11" width="6.1" height="544.2"/>
		
			<rect x="358.2" y="95" transform="matrix(-2.795802e-02 -0.9996 0.9996 -2.795802e-02 4.4344 738.3931)" class="st11" width="6.1" height="544.2"/>
		
			<rect x="375.6" y="618.8" transform="matrix(-2.795802e-02 -0.9996 0.9996 -2.795802e-02 -501.2539 1294.2836)" class="st11" width="6.1" height="544.2"/>
		
			<rect x="376" y="582.4" transform="matrix(-2.795836e-02 -0.9996 0.9996 -2.795836e-02 -464.583 1257.2703)" class="st11" width="6.1" height="544.2"/>
		
			<rect x="370.9" y="547.8" transform="matrix(-2.795836e-02 -0.9996 0.9996 -2.795836e-02 -435.1113 1216.5526)" class="st11" width="6.1" height="544.2"/>
		
			<rect x="371.2" y="512.9" transform="matrix(-2.795836e-02 -0.9996 0.9996 -2.795836e-02 -399.9679 1181.0806)" class="st11" width="6.1" height="544.2"/>
		
			<rect x="371.6" y="478.1" transform="matrix(-2.795802e-02 -0.9996 0.9996 -2.795802e-02 -364.8253 1145.6078)" class="st11" width="6.1" height="544.2"/>
		
			<rect x="371.9" y="441.8" transform="matrix(-2.795836e-02 -0.9996 0.9996 -2.795836e-02 -328.1529 1108.592)" class="st11" width="6.1" height="544.2"/>
		
			<rect x="366.8" y="407.1" transform="matrix(-2.795836e-02 -0.9996 0.9996 -2.795836e-02 -298.6812 1067.8744)" class="st11" width="6.1" height="544.2"/>
		
			<rect x="364.5" y="372.3" transform="matrix(-2.795836e-02 -0.9996 0.9996 -2.795836e-02 -266.3744 1029.7806)" class="st11" width="6.1" height="544.2"/>
		
			<rect x="378.5" y="720.1" transform="matrix(-2.795836e-02 -0.9996 0.9996 -2.795836e-02 -599.6636 1401.2932)" class="st11" width="6.1" height="544.2"/>
		
			<rect x="376.1" y="685.4" transform="matrix(-2.795836e-02 -0.9996 0.9996 -2.795836e-02 -567.3553 1363.1971)" class="st11" width="6.1" height="544.2"/>
		
			<rect x="376.4" y="650.6" transform="matrix(-2.795836e-02 -0.9996 0.9996 -2.795836e-02 -532.212 1327.7251)" class="st11" width="6.1" height="544.2"/>
	</g>
</g>
</svg>
