<?xml version="1.0" encoding="utf-8"?>
<!-- Generator: Adobe Illustrator 22.1.0, SVG Export Plug-In . SVG Version: 6.00 Build 0)  -->
<svg version="1.1" id="Layer_1" xmlns="http://www.w3.org/2000/svg" xmlns:xlink="http://www.w3.org/1999/xlink" x="0px" y="0px"
	 viewBox="0 0 1000 1000" style="enable-background:new 0 0 1000 1000;" xml:space="preserve">
<style type="text/css">
	.st0{clip-path:url(#SVGID_2_);}
	.st1{fill:none;stroke:#F3F2F2;stroke-width:3;stroke-miterlimit:10;}
	.st2{clip-path:url(#SVGID_4_);}
	.st3{clip-path:url(#SVGID_6_);}
	.st4{clip-path:url(#SVGID_8_);}
	.st5{clip-path:url(#SVGID_10_);}
	.st6{clip-path:url(#SVGID_12_);}
	.st7{clip-path:url(#SVGID_14_);}
	.st8{clip-path:url(#SVGID_16_);}
	.st9{clip-path:url(#SVGID_18_);fill:none;}
	.st10{clip-path:url(#SVGID_18_);}
	.st11{fill:#F9F7F7;}
	.st12{clip-path:url(#SVGID_20_);}
	.st13{clip-path:url(#SVGID_22_);fill:none;}
	.st14{clip-path:url(#SVGID_22_);}
	.st15{clip-path:url(#SVGID_24_);}
	.st16{clip-path:url(#SVGID_26_);}
	.st17{fill:#F3F2F2;}
	.st18{clip-path:url(#SVGID_28_);}
	.st19{clip-path:url(#SVGID_30_);}
	.st20{clip-path:url(#SVGID_32_);}
</style>
<g>
	<defs>
		<path id="SVGID_5_" d="M-422.9,263.6c-14.5,29.1-13.7,63.9-12.6,98.7c0.7,21.3,2.9,42.6-3.6,63.5c-3,9.6-5.9,19.2-9.6,28.6
			c-2.3,5.8-1.6,9.4,3.7,13.4c30.4,22.9,60.7,46,90.7,69.4c5.9,4.6,9.6,4.6,15.1-0.5c46.1-42.8,86.1-90.7,117.3-145.3
			c31-54.2,48.1-112.5,47.7-175.4c-0.1-18.1-3.2-35.7-10.8-52.4c-17.5-38.5-66.5-54.7-103.1-39.2c-22.1,9.4-41.6,22.6-59.8,38
			C-379.1,188.7-406.7,225.3-422.9,263.6z"/>
	</defs>
	<clipPath id="SVGID_2_">
		<use xlink:href="#SVGID_5_"  style="overflow:visible;"/>
	</clipPath>
	<g class="st0">
		<line class="st1" x1="111.1" y1="398" x2="-268.2" y2="540.6"/>
		<line class="st1" x1="121.6" y1="423" x2="-257.7" y2="565.6"/>
		<line class="st1" x1="127.9" y1="448.3" x2="-251.5" y2="590.9"/>
		<line class="st1" x1="137.9" y1="472.3" x2="-241.4" y2="614.9"/>
		<line class="st1" x1="147.9" y1="496.2" x2="-231.4" y2="638.8"/>
		<line class="st1" x1="158.4" y1="521.1" x2="-220.9" y2="663.7"/>
		<line class="st1" x1="164.7" y1="546.5" x2="-214.7" y2="689.1"/>
		<line class="st1" x1="172.8" y1="571.1" x2="-206.5" y2="713.7"/>
		<line class="st1" x1="37.3" y1="204.3" x2="-342" y2="346.9"/>
		<line class="st1" x1="47.8" y1="229.2" x2="-331.5" y2="371.8"/>
		<line class="st1" x1="55.9" y1="253.8" x2="-323.4" y2="396.4"/>
		<line class="st1" x1="64.1" y1="278.5" x2="-315.2" y2="421.1"/>
		<line class="st1" x1="74.1" y1="302.4" x2="-305.2" y2="445"/>
		<line class="st1" x1="84.6" y1="327.4" x2="-294.8" y2="470"/>
		<line class="st1" x1="92.7" y1="352" x2="-286.6" y2="494.6"/>
		<line class="st1" x1="102.7" y1="375.9" x2="-276.6" y2="518.5"/>
	</g>
	<g class="st0">
		<line class="st1" x1="-137.8" y1="-165" x2="4.8" y2="214.3"/>
		<line class="st1" x1="-113.1" y1="-173.2" x2="29.5" y2="206.1"/>
	</g>
</g>
<g>
	<defs>
		<path id="SVGID_7_" d="M-453.3,683.7c32.9-26.2,55-60.2,74.3-96.3c2.3-4.3,1.3-6.8-2.2-9.7c-30.9-25-61.7-50.1-92.4-75.3
			c-3.3-2.7-6-3.4-9.5-0.5c-32.7,27.4-63,56.9-81.1,96.4c-9.3,20.3-12.2,41.2-2.4,62.5c18.4,39.9,67.8,53.7,104,28.9
			C-459.3,687.7-456.1,685.6-453.3,683.7z"/>
	</defs>
	<clipPath id="SVGID_4_">
		<use xlink:href="#SVGID_7_"  style="overflow:visible;"/>
	</clipPath>
	<g class="st2">
		<line class="st1" x1="86.6" y1="456.2" x2="-292.7" y2="598.8"/>
		<line class="st1" x1="97" y1="481.1" x2="-282.3" y2="623.7"/>
		<line class="st1" x1="103.3" y1="506.5" x2="-276" y2="649.1"/>
		<line class="st1" x1="113.3" y1="530.4" x2="-266" y2="673"/>
		<line class="st1" x1="123.4" y1="554.3" x2="-256" y2="696.9"/>
		<line class="st1" x1="133.8" y1="579.3" x2="-245.5" y2="721.9"/>
		<line class="st1" x1="140.1" y1="604.6" x2="-239.2" y2="747.2"/>
		<line class="st1" x1="148.2" y1="629.2" x2="-231.1" y2="771.8"/>
		<line class="st1" x1="12.8" y1="262.4" x2="-366.6" y2="405"/>
		<line class="st1" x1="23.2" y1="287.4" x2="-356.1" y2="430"/>
		<line class="st1" x1="31.4" y1="312" x2="-348" y2="454.6"/>
		<line class="st1" x1="39.5" y1="336.6" x2="-339.8" y2="479.2"/>
		<line class="st1" x1="49.5" y1="360.5" x2="-329.8" y2="503.1"/>
		<line class="st1" x1="60" y1="385.5" x2="-319.3" y2="528.1"/>
		<line class="st1" x1="68.2" y1="410.1" x2="-311.2" y2="552.7"/>
		<line class="st1" x1="78.2" y1="434" x2="-301.2" y2="576.6"/>
	</g>
</g>
<g>
	<defs>
		<path id="SVGID_9_" d="M626,639.5c-9.4-13.7-55.2-46-73-126.5c-16.2-73.5-17-187.3,10.3-188c31.2-0.9,180.3,114.3,182.9,265
			c0.1,7.8,0.5,15.5,1.1,23.2c-37.9,13-75.5,26.7-113,40.6C631.9,649,629.2,644.2,626,639.5z"/>
	</defs>
	<clipPath id="SVGID_6_">
		<use xlink:href="#SVGID_9_"  style="overflow:visible;"/>
	</clipPath>
	<g class="st3">
		<line class="st1" x1="468.7" y1="553.6" x2="792.4" y2="433.6"/>
		<line class="st1" x1="475.9" y1="576.3" x2="799.6" y2="456.2"/>
		<line class="st1" x1="482.9" y1="598" x2="806.6" y2="477.9"/>
		<line class="st1" x1="489.8" y1="619.7" x2="813.5" y2="499.6"/>
		<line class="st1" x1="496.8" y1="641.4" x2="820.5" y2="521.3"/>
		<line class="st1" x1="504" y1="664" x2="827.7" y2="544"/>
		<line class="st1" x1="511" y1="685.7" x2="834.7" y2="565.7"/>
		<line class="st1" x1="517.9" y1="707.5" x2="841.6" y2="587.4"/>
		<line class="st1" x1="414.1" y1="379.7" x2="737.8" y2="259.6"/>
		<line class="st1" x1="421.3" y1="402.3" x2="745" y2="282.2"/>
		<line class="st1" x1="428.3" y1="424" x2="752" y2="303.9"/>
		<line class="st1" x1="435.2" y1="445.7" x2="758.9" y2="325.6"/>
		<line class="st1" x1="442.1" y1="467.4" x2="765.9" y2="347.3"/>
		<line class="st1" x1="449.4" y1="490.1" x2="773.1" y2="370"/>
		<line class="st1" x1="456.3" y1="511.8" x2="780.1" y2="391.7"/>
		<line class="st1" x1="463.3" y1="533.5" x2="787" y2="413.4"/>
	</g>
</g>
<path class="st1" d="M827.4,812.3c-23.1-64.1-39.8-129.9-40.9-199.3c-2.9-193.6-204.9-335.7-247.2-333.3
	c-37.1,2.1-36.4,148.2-14.7,242c23.8,102.8,85.9,142.3,98.6,159.6c20.5,27.8,27.7,59.3,30.1,94c4.1,58.9,20.6,113.1,48.5,135.6
	c34.2,27.6,96.6-0.7,105-12.1C817.7,884,836.2,863.4,827.4,812.3z"/>
<g>
	<defs>
		<path id="SVGID_11_" d="M693.5,857.6c-14-26.5-17.8-55.4-18.9-85c-0.1-3.5,1.4-5,4.9-6c30.1-8.8,60.2-17.7,90.3-26.6
			c3.2-1,5.4-0.7,6.8,2.2c13.5,27.2,24.5,55.2,23.6,86.9c-0.5,16.2-5.6,31.2-19.8,43c-26.5,22.2-65.7,18.5-82.6-7.9
			C696.3,861.9,694.8,859.6,693.5,857.6z"/>
	</defs>
	<clipPath id="SVGID_8_">
		<use xlink:href="#SVGID_11_"  style="overflow:visible;"/>
	</clipPath>
	<g class="st4">
		<line class="st1" x1="567.2" y1="901.6" x2="953.2" y2="795.7"/>
		<line class="st1" x1="573" y1="926.9" x2="959" y2="821"/>
		<line class="st1" x1="578.5" y1="951" x2="964.5" y2="845.1"/>
		<line class="st1" x1="584" y1="975.2" x2="970" y2="869.3"/>
		<line class="st1" x1="589.6" y1="999.4" x2="975.6" y2="893.5"/>
		<line class="st1" x1="595.3" y1="1024.6" x2="981.3" y2="918.7"/>
		<line class="st1" x1="600.9" y1="1048.8" x2="986.9" y2="942.9"/>
		<line class="st1" x1="606.4" y1="1073" x2="992.4" y2="967.1"/>
		<line class="st1" x1="524.1" y1="707.9" x2="910.1" y2="602"/>
		<line class="st1" x1="529.9" y1="733.1" x2="915.9" y2="627.2"/>
		<line class="st1" x1="535.4" y1="757.3" x2="921.4" y2="651.4"/>
		<line class="st1" x1="540.9" y1="781.5" x2="926.9" y2="675.6"/>
		<line class="st1" x1="546.5" y1="805.7" x2="932.5" y2="699.8"/>
		<line class="st1" x1="552.2" y1="830.9" x2="938.2" y2="725"/>
		<line class="st1" x1="557.8" y1="855.1" x2="943.8" y2="749.2"/>
		<line class="st1" x1="563.3" y1="879.2" x2="949.3" y2="773.3"/>
	</g>
</g>
<g>
	<defs>
		<path id="SVGID_13_" d="M409,481.5c0.2-18.6,22.4-76.8-11.2-162.3c-30.7-78-100.7-183.6-126.4-167.3
			c-29.4,18.6-95.5,217.7-4.1,358.6c4.7,7.3,9.2,14.7,13.4,22.1c43.1-11.5,86.3-22.3,129.6-32.8C409.4,493.9,408.9,487.8,409,481.5z
			"/>
	</defs>
	<clipPath id="SVGID_10_">
		<use xlink:href="#SVGID_13_"  style="overflow:visible;"/>
	</clipPath>
	<g class="st5">
		<line class="st1" x1="501" y1="304.3" x2="127.2" y2="394.7"/>
		<line class="st1" x1="508.3" y1="329.8" x2="134.6" y2="420.1"/>
		<line class="st1" x1="515.4" y1="354.1" x2="141.7" y2="444.5"/>
		<line class="st1" x1="522.5" y1="378.5" x2="148.7" y2="468.9"/>
		<line class="st1" x1="529.6" y1="402.9" x2="155.8" y2="493.2"/>
		<line class="st1" x1="537" y1="428.3" x2="163.2" y2="518.7"/>
		<line class="st1" x1="544" y1="452.7" x2="170.3" y2="543"/>
		<line class="st1" x1="551.1" y1="477" x2="177.4" y2="567.4"/>
		<line class="st1" x1="443.2" y1="109.6" x2="69.5" y2="200"/>
		<line class="st1" x1="450.6" y1="135.1" x2="76.8" y2="225.4"/>
		<line class="st1" x1="457.7" y1="159.4" x2="83.9" y2="249.8"/>
		<line class="st1" x1="464.8" y1="183.8" x2="91" y2="274.2"/>
		<line class="st1" x1="471.8" y1="208.2" x2="98.1" y2="298.5"/>
		<line class="st1" x1="479.2" y1="233.6" x2="105.5" y2="324"/>
		<line class="st1" x1="486.3" y1="258" x2="112.5" y2="348.3"/>
		<line class="st1" x1="493.4" y1="282.3" x2="119.6" y2="372.7"/>
	</g>
</g>
<path class="st1" d="M330.4,766.4c-18.5-73.6-44-144.8-86.2-209.5c-117.7-180.7-19.5-437.5,21.1-461.7
	c35.5-21.1,125.8,114.3,164,214.4c41.9,109.8,9.2,184.9,8.2,208.8c-1.6,38.4,11.2,72,30.6,105.6c32.9,57,51.3,117.3,39.5,155.4
	c-14.4,46.8-89.7,59.5-104.5,54.1C383.9,826.5,354,819.1,330.4,766.4z"/>
<g>
	<defs>
		<path id="SVGID_15_" d="M482.3,724.9c-3.5-33.2-18-62.2-35.4-90.3c-2.1-3.3-4.4-3.7-8.2-2.5c-33.3,10.6-66.6,21.1-100,31.6
			c-3.5,1.1-5.4,2.7-4.9,6.2c4.5,33.5,11.7,66.3,32.2,94.9c10.5,14.7,24.6,25.3,45,27.5c38.3,4,72.2-23.8,71.4-58.6
			C482.3,730.7,482.3,727.6,482.3,724.9z"/>
	</defs>
	<clipPath id="SVGID_12_">
		<use xlink:href="#SVGID_15_"  style="overflow:visible;"/>
	</clipPath>
	<g class="st6">
		<line class="st1" x1="626.3" y1="687.1" x2="203.9" y2="829.3"/>
		<line class="st1" x1="636.7" y1="714" x2="214.2" y2="856.2"/>
		<line class="st1" x1="646.6" y1="739.8" x2="224.1" y2="882"/>
		<line class="st1" x1="656.5" y1="765.6" x2="234.1" y2="907.8"/>
		<line class="st1" x1="666.5" y1="791.3" x2="244" y2="933.5"/>
		<line class="st1" x1="676.8" y1="818.2" x2="254.3" y2="960.4"/>
		<line class="st1" x1="686.8" y1="844" x2="264.3" y2="986.2"/>
		<line class="st1" x1="696.7" y1="869.8" x2="274.2" y2="1012"/>
		<line class="st1" x1="545.7" y1="481.3" x2="123.2" y2="623.5"/>
		<line class="st1" x1="556" y1="508.2" x2="133.5" y2="650.4"/>
		<line class="st1" x1="565.9" y1="534" x2="143.5" y2="676.2"/>
		<line class="st1" x1="575.9" y1="559.8" x2="153.4" y2="702"/>
		<line class="st1" x1="585.8" y1="585.6" x2="163.3" y2="727.8"/>
		<line class="st1" x1="596.2" y1="612.4" x2="173.7" y2="754.7"/>
		<line class="st1" x1="606.1" y1="638.2" x2="183.6" y2="780.4"/>
		<line class="st1" x1="616" y1="664" x2="193.5" y2="806.2"/>
	</g>
</g>
</svg>
