<?xml version="1.0" encoding="utf-8"?>
<!-- Generator: Adobe Illustrator 22.1.0, SVG Export Plug-In . SVG Version: 6.00 Build 0)  -->
<svg version="1.1" id="Layer_1" xmlns="http://www.w3.org/2000/svg" xmlns:xlink="http://www.w3.org/1999/xlink" x="0px" y="0px"
	 viewBox="0 0 1000 1000" style="enable-background:new 0 0 1000 1000;" xml:space="preserve">
<style type="text/css">
	.st0{clip-path:url(#SVGID_2_);}
	.st1{fill:none;stroke:#F3F2F2;stroke-width:3;stroke-miterlimit:10;}
	.st2{clip-path:url(#SVGID_4_);}
	.st3{clip-path:url(#SVGID_6_);}
	.st4{clip-path:url(#SVGID_8_);}
	.st5{clip-path:url(#SVGID_10_);}
	.st6{clip-path:url(#SVGID_12_);}
	.st7{clip-path:url(#SVGID_14_);}
	.st8{clip-path:url(#SVGID_16_);}
	.st9{clip-path:url(#SVGID_18_);fill:none;}
	.st10{clip-path:url(#SVGID_18_);}
	.st11{fill:#F9F7F7;}
	.st12{clip-path:url(#SVGID_20_);}
	.st13{clip-path:url(#SVGID_22_);fill:none;}
	.st14{clip-path:url(#SVGID_22_);}
	.st15{clip-path:url(#SVGID_24_);}
	.st16{clip-path:url(#SVGID_26_);}
	.st17{fill:#F3F2F2;}
	.st18{clip-path:url(#SVGID_28_);}
	.st19{clip-path:url(#SVGID_30_);}
	.st20{clip-path:url(#SVGID_32_);}
</style>
<g>
	<defs>
		<path id="SVGID_3_" d="M178.1-218.5c-6.8-41.5-0.3-81.5,9.6-121.2c1.2-4.7,3.6-6,8.2-5.7c39.7,2.2,79.3,4.3,119,6.3
			c4.2,0.2,6.7,1.5,7.3,6c5.9,42.3,8.5,84.4-4.7,125.9c-6.8,21.3-18.7,38.7-40.3,47.9c-40.5,17.2-86.3-5.8-96.5-48.5
			C179.9-211.6,178.9-215.3,178.1-218.5z"/>
	</defs>
	<clipPath id="SVGID_2_">
		<use xlink:href="#SVGID_3_"  style="overflow:visible;"/>
	</clipPath>
	<g class="st0">
		<line class="st1" x1="100.4" y1="5.7" x2="460.8" y2="-179.5"/>
		<line class="st1" x1="114.9" y1="27.4" x2="475.4" y2="-157.8"/>
		<line class="st1" x1="127.7" y1="50" x2="488.2" y2="-135.2"/>
	</g>
</g>
<g>
	<defs>
		<path id="SVGID_25_" d="M151.1,264.5C177.1,385,243.3,481,331.8,563.4c35.3,32.9,59.1,74.4,84.8,114.4
			c17.4,27.2,38.6,49.6,68.6,62.6c27.8,12.1,55.7,16.9,82-2.1c26.7-19.3,33.3-46.9,28.8-78.5c-4.3-30.3-17-56.6-37.5-78.9
			c-10.4-11.4-21.2-22.6-33.3-32c-52.8-40.8-79.7-95.4-83.9-160.7c-5.7-89.1-45.1-160.7-107.8-221.8c-22.8-22.2-49.5-36.2-79.6-44.6
			c-7.7,0-15.4,0-23,0c-41.1,10.6-68.5,35.6-80.1,77.2C150.9,220.8,151,242.7,151.1,264.5z"/>
	</defs>
	<clipPath id="SVGID_4_">
		<use xlink:href="#SVGID_25_"  style="overflow:visible;"/>
	</clipPath>
	<g class="st2">
		<path class="st17" d="M317.3-5.4c-18.8,9.6-40.2,8.5-60.2,14.1c-11.1,3.1-20.6,8.6-27.7,17.8c-6.5,8.4-10.6,18.4-16.5,27.2
			c-5.8,8.8-13,15.4-22.7,19.7c-11.8,5.2-24.7,8.5-37.3,11.2c-12.3,2.7-25.6,3.2-37.2,8.4c-11.9,5.3-18.5,16.6-25.6,26.9
			c-8,11.6-17.9,20.9-29.7,28.4c-11.7,7.4-25,14.2-38.1,18.7c-2.6,0.9-4.7-3.2-2.1-4.5c11.7-6.3,24.2-10.8,35.5-17.8
			c11-6.7,20.6-15,28.1-25.4c7-9.6,12.8-20.4,22.7-27.4c9.3-6.6,20.8-8.1,31.8-9.9c13.2-2.2,26.3-5.2,39-9.3
			c12.5-4,22.7-9.4,30.4-20.4c6.1-8.6,10.5-18.3,16.8-26.8c5.8-7.9,13.3-13.8,22.4-17.4c22.3-8.8,47.6-4.9,69.5-15
			C317.5-7.4,318.2-5.9,317.3-5.4z"/>
		<path class="st17" d="M301.8-29.7c-18.8,9.6-40.2,8.5-60.2,14.1c-11.1,3.1-20.6,8.6-27.7,17.8c-6.5,8.4-10.6,18.4-16.5,27.2
			c-5.8,8.8-13,15.4-22.7,19.7c-11.8,5.2-24.7,8.5-37.3,11.2c-12.3,2.7-25.6,3.2-37.2,8.4c-11.9,5.3-18.5,16.6-25.6,26.9
			c-8,11.6-17.9,20.9-29.7,28.4c-11.7,7.4-25,14.2-38.1,18.7c-2.6,0.9-4.7-3.2-2.1-4.5c11.7-6.3,24.2-10.8,35.5-17.8
			c11-6.7,20.6-15,28.1-25.4c7-9.6,12.8-20.4,22.7-27.4c9.3-6.6,20.8-8.1,31.8-9.9c13.2-2.2,26.3-5.2,39-9.3
			c12.5-4,22.7-9.4,30.4-20.4c6.1-8.6,10.5-18.3,16.8-26.8c5.8-7.9,13.3-13.8,22.4-17.4c22.3-8.8,47.6-4.9,69.5-15
			C301.9-31.7,302.6-30.1,301.8-29.7z"/>
		<path class="st17" d="M348.5,43.1c-18.8,9.6-40.2,8.5-60.2,14.1c-11.1,3.1-20.6,8.6-27.7,17.8c-6.5,8.4-10.6,18.4-16.5,27.2
			c-5.8,8.8-13,15.4-22.7,19.7c-11.8,5.2-24.7,8.5-37.3,11.2c-12.3,2.7-25.6,3.2-37.2,8.4c-11.9,5.3-18.5,16.6-25.6,26.9
			c-8,11.6-17.9,20.9-29.7,28.4c-11.7,7.4-25,14.2-38.1,18.7c-2.6,0.9-4.7-3.2-2.1-4.5c11.7-6.3,24.2-10.8,35.5-17.8
			c11-6.7,20.6-15,28.1-25.4c7-9.6,12.8-20.4,22.7-27.4c9.3-6.6,20.8-8.1,31.8-9.9c13.2-2.2,26.3-5.2,39-9.3
			c12.5-4,22.7-9.4,30.4-20.4c6.1-8.6,10.5-18.3,16.8-26.8c5.8-7.9,13.3-13.8,22.4-17.4c22.3-8.8,47.6-4.9,69.5-15
			C348.6,41.2,349.3,42.7,348.5,43.1z"/>
		<path class="st17" d="M332.9,18.8c-18.8,9.6-40.2,8.5-60.2,14.1c-11.1,3.1-20.6,8.6-27.7,17.8c-6.5,8.4-10.6,18.4-16.5,27.2
			c-5.8,8.8-13,15.4-22.7,19.7c-11.8,5.2-24.7,8.5-37.3,11.2c-12.3,2.7-25.6,3.2-37.2,8.4c-11.9,5.3-18.5,16.6-25.6,26.9
			c-8,11.6-17.9,20.9-29.7,28.4c-11.7,7.4-25,14.2-38.1,18.7c-2.6,0.9-4.7-3.2-2.1-4.5c11.7-6.3,24.2-10.8,35.5-17.8
			c11-6.7,20.6-15,28.1-25.4c7-9.6,12.8-20.4,22.7-27.4c9.3-6.6,20.8-8.1,31.8-9.9c13.2-2.2,26.3-5.2,39-9.3
			c12.5-4,22.7-9.4,30.4-20.4c6.1-8.6,10.5-18.3,16.8-26.8c5.8-7.9,13.3-13.8,22.4-17.4c22.3-8.8,47.6-4.9,69.5-15
			C333,16.9,333.8,18.4,332.9,18.8z"/>
		<path class="st17" d="M291.7,123.6c-6.5,8.4-10.6,18.4-16.5,27.2c-5.8,8.8-13,15.4-22.7,19.7c-11.8,5.2-24.7,8.5-37.3,11.2
			c-12.3,2.7-25.6,3.2-37.2,8.4c-11.9,5.3-18.5,16.6-25.6,26.9c-8,11.6-17.9,20.9-29.7,28.4c-11.7,7.4-25,14.2-38.1,18.7
			c-2.6,0.9-4.7-3.2-2.1-4.5c11.7-6.3,24.2-10.8,35.5-17.8c11-6.7,20.6-15,28.1-25.4c7-9.6,12.8-20.4,22.7-27.4
			c9.3-6.6,20.8-8.1,31.8-9.9c13.2-2.2,26.3-5.2,39-9.3c12.5-4,22.7-9.4,30.4-20.4c6.1-8.6,10.5-18.3,16.8-26.8
			c5.8-7.9,13.3-13.8,22.4-17.4c22.3-8.8,47.6-4.9,69.5-15c0.9-0.4,1.6,1.1,0.7,1.6c-18.8,9.6-40.2,8.5-60.2,14.1
			C308.3,108.9,298.7,114.4,291.7,123.6z"/>
		<path class="st17" d="M364,67.4c-18.8,9.6-40.2,8.5-60.2,14.1c-11.1,3.1-20.6,8.6-27.7,17.8c-6.5,8.4-10.6,18.4-16.5,27.2
			c-5.8,8.8-13,15.4-22.7,19.7c-11.8,5.2-24.7,8.5-37.3,11.2c-12.3,2.7-25.6,3.2-37.2,8.4c-11.9,5.3-18.5,16.6-25.6,26.9
			c-8,11.6-17.9,20.9-29.7,28.4c-11.7,7.4-25,14.2-38.1,18.7c-2.6,0.9-4.7-3.2-2.1-4.5c11.7-6.3,24.2-10.8,35.5-17.8
			c11-6.7,20.6-15,28.1-25.4c7-9.6,12.8-20.4,22.7-27.4c9.3-6.6,20.8-8.1,31.8-9.9c13.2-2.2,26.3-5.2,39-9.3
			c12.5-4,22.7-9.4,30.4-20.4c6.1-8.6,10.5-18.3,16.8-26.8c5.8-7.9,13.3-13.8,22.4-17.4c22.3-8.8,47.6-4.9,69.5-15
			C364.2,65.4,364.9,66.9,364,67.4z"/>
		<path class="st17" d="M317.1,175.8c-6.5,8.4-10.6,18.4-16.5,27.2c-5.8,8.8-13,15.4-22.7,19.7c-11.8,5.2-24.7,8.5-37.3,11.2
			c-12.3,2.7-25.6,3.2-37.2,8.4c-11.9,5.3-18.5,16.6-25.6,26.9c-8,11.6-17.9,20.9-29.7,28.4c-11.7,7.4-25,14.2-38.1,18.7
			c-2.6,0.9-4.7-3.2-2.1-4.5c11.7-6.3,24.2-10.8,35.5-17.8c11-6.7,20.6-15,28.1-25.4c7-9.6,12.8-20.4,22.7-27.4
			c9.3-6.6,20.8-8.1,31.8-9.9c13.2-2.2,26.3-5.2,39-9.3c12.5-4,22.7-9.4,30.4-20.4c6.1-8.6,10.5-18.3,16.8-26.8
			c5.8-7.9,13.3-13.8,22.4-17.4c22.3-8.8,47.6-4.9,69.5-15c0.9-0.4,1.6,1.1,0.7,1.6c-18.8,9.6-40.2,8.5-60.2,14.1
			C333.7,161.1,324.2,166.6,317.1,175.8z"/>
		<path class="st17" d="M155.9,244.3c7-9.6,12.8-20.4,22.7-27.4c9.3-6.6,20.8-8.1,31.8-9.9c13.2-2.2,26.3-5.2,39-9.3
			c12.5-4,22.7-9.4,30.4-20.4c6.1-8.6,10.5-18.3,16.8-26.8c5.8-7.9,13.3-13.8,22.4-17.4c22.3-8.8,47.6-4.9,69.5-15
			c0.9-0.4,1.6,1.1,0.7,1.6c-18.8,9.6-40.2,8.5-60.2,14.1c-11.1,3.1-20.6,8.6-27.7,17.8c-6.5,8.4-10.6,18.4-16.5,27.2
			c-5.8,8.8-13,15.4-22.7,19.7c-11.8,5.2-24.7,8.5-37.3,11.2c-12.3,2.7-25.6,3.2-37.2,8.4c-11.9,5.3-18.5,16.6-25.6,26.9
			c-8,11.6-17.9,20.9-29.7,28.4c-11.7,7.4-25,14.2-38.1,18.7c-2.6,0.9-4.7-3.2-2.1-4.5c11.7-6.3,24.2-10.8,35.5-17.8
			C138.7,263,148.3,254.7,155.9,244.3z"/>
		<path class="st17" d="M372.7,208.6c-11.1,3.1-20.6,8.6-27.7,17.8c-6.5,8.4-10.6,18.4-16.5,27.2c-5.8,8.8-13,15.4-22.7,19.7
			c-11.8,5.2-24.7,8.5-37.3,11.2c-12.3,2.7-25.6,3.2-37.2,8.4c-11.9,5.3-18.5,16.6-25.6,26.9c-8,11.6-17.9,20.9-29.7,28.4
			c-11.7,7.4-25,14.2-38.1,18.7c-2.6,0.9-4.7-3.2-2.1-4.5c11.7-6.3,24.2-10.8,35.5-17.8c11-6.7,20.6-15,28.1-25.4
			c7-9.6,12.8-20.4,22.7-27.4c9.3-6.6,20.8-8.1,31.8-9.9c13.2-2.2,26.3-5.2,39-9.3c12.5-4,22.7-9.4,30.4-20.4
			c6.1-8.6,10.5-18.3,16.8-26.8c5.8-7.9,13.3-13.8,22.4-17.4c22.3-8.8,47.6-4.9,69.5-15c0.9-0.4,1.6,1.1,0.7,1.6
			C414.1,204.1,392.7,203,372.7,208.6z"/>
		<path class="st17" d="M183.9,294.8c7-9.6,12.8-20.4,22.7-27.4c9.3-6.6,20.8-8.1,31.8-9.9c13.2-2.2,26.3-5.2,39-9.3
			c12.5-4,22.7-9.4,30.4-20.4c6.1-8.6,10.5-18.3,16.8-26.8c5.8-7.9,13.3-13.8,22.4-17.4c22.3-8.8,47.6-4.9,69.5-15
			c0.9-0.4,1.6,1.1,0.7,1.6c-18.8,9.6-40.2,8.5-60.2,14.1c-11.1,3.1-20.6,8.6-27.7,17.8c-6.5,8.4-10.6,18.4-16.5,27.2
			c-5.8,8.8-13,15.4-22.7,19.7c-11.8,5.2-24.7,8.5-37.3,11.2c-12.3,2.7-25.6,3.2-37.2,8.4c-11.9,5.3-18.5,16.6-25.6,26.9
			c-8,11.6-17.9,20.9-29.7,28.4c-11.7,7.4-25,14.2-38.1,18.7c-2.6,0.9-4.7-3.2-2.1-4.5c11.7-6.3,24.2-10.8,35.5-17.8
			C166.7,313.5,176.3,305.3,183.9,294.8z"/>
		<path class="st17" d="M464.1,243c-18.8,9.6-40.2,8.5-60.2,14.1c-11.1,3.1-20.6,8.6-27.7,17.8c-6.5,8.4-10.6,18.4-16.5,27.2
			c-5.8,8.8-13,15.4-22.7,19.7c-11.8,5.2-24.7,8.5-37.3,11.2c-12.3,2.7-25.6,3.2-37.2,8.4c-11.9,5.3-18.5,16.6-25.6,26.9
			c-8,11.6-17.9,20.9-29.7,28.4c-11.7,7.4-25,14.2-38.1,18.7c-2.6,0.9-4.7-3.2-2.1-4.5c11.7-6.3,24.2-10.8,35.5-17.8
			c11-6.7,20.6-15,28.1-25.4c7-9.6,12.8-20.4,22.7-27.4c9.3-6.6,20.8-8.1,31.8-9.9c13.2-2.2,26.3-5.2,39-9.3
			c12.5-4,22.7-9.4,30.4-20.4c6.1-8.6,10.5-18.3,16.8-26.8c5.8-7.9,13.3-13.8,22.4-17.4c22.3-8.8,47.6-4.9,69.5-15
			C464.2,241.1,464.9,242.6,464.1,243z"/>
		<path class="st17" d="M448.5,218.7c-18.8,9.6-40.2,8.5-60.2,14.1c-11.1,3.1-20.6,8.6-27.7,17.8c-6.5,8.4-10.6,18.4-16.5,27.2
			c-5.8,8.8-13,15.4-22.7,19.7c-11.8,5.2-24.7,8.5-37.3,11.2c-12.3,2.7-25.6,3.2-37.2,8.4c-11.9,5.3-18.5,16.6-25.6,26.9
			c-8,11.6-17.9,20.9-29.7,28.4c-11.7,7.4-25,14.2-38.1,18.7c-2.6,0.9-4.7-3.2-2.1-4.5c11.7-6.3,24.2-10.8,35.5-17.8
			c11-6.7,20.6-15,28.1-25.4c7-9.6,12.8-20.4,22.7-27.4c9.3-6.6,20.8-8.1,31.8-9.9c13.2-2.2,26.3-5.2,39-9.3
			c12.5-4,22.7-9.4,30.4-20.4c6.1-8.6,10.5-18.3,16.8-26.8c5.8-7.9,13.3-13.8,22.4-17.4c22.3-8.8,47.6-4.9,69.5-15
			C448.6,216.8,449.4,218.3,448.5,218.7z"/>
		<path class="st17" d="M407.3,323.5c-6.5,8.4-10.6,18.4-16.5,27.2c-5.8,8.8-13,15.4-22.7,19.7c-11.8,5.2-24.7,8.5-37.3,11.2
			c-12.3,2.7-25.6,3.2-37.2,8.4c-11.9,5.3-18.5,16.6-25.6,26.9c-8,11.6-17.9,20.9-29.7,28.4c-11.7,7.4-25,14.2-38.1,18.7
			c-2.6,0.9-4.7-3.2-2.1-4.5c11.7-6.3,24.2-10.8,35.5-17.8c11-6.7,20.6-15,28.1-25.4c7-9.6,12.8-20.4,22.7-27.4
			c9.3-6.6,20.8-8.1,31.8-9.9c13.2-2.2,26.3-5.2,39-9.3c12.5-4,22.7-9.4,30.4-20.4c6.1-8.6,10.5-18.3,16.8-26.8
			c5.8-7.9,13.3-13.8,22.4-17.4c22.3-8.8,47.6-4.9,69.5-15c0.9-0.4,1.6,1.1,0.7,1.6c-18.8,9.6-40.2,8.5-60.2,14.1
			C423.9,308.8,414.3,314.3,407.3,323.5z"/>
		<path class="st17" d="M479.6,267.3c-18.8,9.6-40.2,8.5-60.2,14.1c-11.1,3.1-20.6,8.6-27.7,17.8c-6.5,8.4-10.6,18.4-16.5,27.2
			c-5.8,8.8-13,15.4-22.7,19.7c-11.8,5.2-24.7,8.5-37.3,11.2c-12.3,2.7-25.6,3.2-37.2,8.4c-11.9,5.3-18.5,16.6-25.6,26.9
			c-8,11.6-17.9,20.9-29.7,28.4c-11.7,7.4-25,14.2-38.1,18.7c-2.6,0.9-4.7-3.2-2.1-4.5c11.7-6.3,24.2-10.8,35.5-17.8
			c11-6.7,20.6-15,28.1-25.4c7-9.6,12.8-20.4,22.7-27.4c9.3-6.6,20.8-8.1,31.8-9.9c13.2-2.2,26.3-5.2,39-9.3
			c12.5-4,22.7-9.4,30.4-20.4c6.1-8.6,10.5-18.3,16.8-26.8c5.8-7.9,13.3-13.8,22.4-17.4c22.3-8.8,47.6-4.9,69.5-15
			C479.8,265.3,480.5,266.8,479.6,267.3z"/>
		<path class="st17" d="M432.7,375.7c-6.5,8.4-10.6,18.4-16.5,27.2c-5.8,8.8-13,15.4-22.7,19.7c-11.8,5.2-24.7,8.5-37.3,11.2
			c-12.3,2.7-25.6,3.2-37.2,8.4c-11.9,5.3-18.5,16.6-25.6,26.9c-8,11.6-17.9,20.9-29.7,28.4c-11.7,7.4-25,14.2-38.1,18.7
			c-2.6,0.9-4.7-3.2-2.1-4.5c11.7-6.3,24.2-10.8,35.5-17.8c11-6.7,20.6-15,28.1-25.4c7-9.6,12.8-20.4,22.7-27.4
			c9.3-6.6,20.8-8.1,31.8-9.9c13.2-2.2,26.3-5.2,39-9.3c12.5-4,22.7-9.4,30.4-20.4c6.1-8.6,10.5-18.3,16.8-26.8
			c5.8-7.9,13.3-13.8,22.4-17.4c22.3-8.8,47.6-4.9,69.5-15c0.9-0.4,1.6,1.1,0.7,1.6c-18.8,9.6-40.2,8.5-60.2,14.1
			C449.3,361,439.8,366.5,432.7,375.7z"/>
		<path class="st17" d="M271.5,444.2c7-9.6,12.8-20.4,22.7-27.4c9.3-6.6,20.8-8.1,31.8-9.9c13.2-2.2,26.3-5.2,39-9.3
			c12.5-4,22.7-9.4,30.4-20.4c6.1-8.6,10.5-18.3,16.8-26.8c5.8-7.9,13.3-13.8,22.4-17.4c22.3-8.8,47.6-4.9,69.5-15
			c0.9-0.4,1.6,1.1,0.7,1.6c-18.8,9.6-40.2,8.5-60.2,14.1c-11.1,3.1-20.6,8.6-27.7,17.8c-6.5,8.4-10.6,18.4-16.5,27.2
			c-5.8,8.8-13,15.4-22.7,19.7c-11.8,5.2-24.7,8.5-37.3,11.2c-12.3,2.7-25.6,3.2-37.2,8.4c-11.9,5.3-18.5,16.6-25.6,26.9
			c-8,11.6-17.9,20.9-29.7,28.4c-11.7,7.4-25,14.2-38.1,18.7c-2.6,0.9-4.7-3.2-2.1-4.5c11.7-6.3,24.2-10.8,35.5-17.8
			C254.3,462.9,263.9,454.6,271.5,444.2z"/>
		<path class="st17" d="M483.5,411.3c-11.1,3.1-20.6,8.6-27.7,17.8c-6.5,8.4-10.6,18.4-16.5,27.2c-5.8,8.8-13,15.4-22.7,19.7
			c-11.8,5.2-24.7,8.5-37.3,11.2c-12.3,2.7-25.6,3.2-37.2,8.4c-11.9,5.3-18.5,16.6-25.6,26.9c-8,11.6-17.9,20.9-29.7,28.4
			c-11.7,7.4-25,14.2-38.1,18.7c-2.6,0.9-4.7-3.2-2.1-4.5c11.7-6.3,24.2-10.8,35.5-17.8c11-6.7,20.6-15,28.1-25.4
			c7-9.6,12.8-20.4,22.7-27.4c9.3-6.6,20.8-8.1,31.8-9.9c13.2-2.2,26.3-5.2,39-9.3c12.5-4,22.7-9.4,30.4-20.4
			c6.1-8.6,10.5-18.3,16.8-26.8c5.8-7.9,13.3-13.8,22.4-17.4c22.3-8.8,47.6-4.9,69.5-15c0.9-0.4,1.6,1.1,0.7,1.6
			C524.9,406.8,503.5,405.7,483.5,411.3z"/>
		<path class="st17" d="M294.6,497.5c7-9.6,12.8-20.4,22.7-27.4c9.3-6.6,20.8-8.1,31.8-9.9c13.2-2.2,26.3-5.2,39-9.3
			c12.5-4,22.7-9.4,30.4-20.4c6.1-8.6,10.5-18.3,16.8-26.8c5.8-7.9,13.3-13.8,22.4-17.4c22.3-8.8,47.6-4.9,69.5-15
			c0.9-0.4,1.6,1.1,0.7,1.6c-18.8,9.6-40.2,8.5-60.2,14.1c-11.1,3.1-20.6,8.6-27.7,17.8c-6.5,8.4-10.6,18.4-16.5,27.2
			c-5.8,8.8-13,15.4-22.7,19.7c-11.8,5.2-24.7,8.5-37.3,11.2c-12.3,2.7-25.6,3.2-37.2,8.4c-11.9,5.3-18.5,16.6-25.6,26.9
			c-8,11.6-17.9,20.9-29.7,28.4c-11.7,7.4-25,14.2-38.1,18.7c-2.6,0.9-4.7-3.2-2.1-4.5c11.7-6.3,24.2-10.8,35.5-17.8
			C277.4,516.2,287,508,294.6,497.5z"/>
		<path class="st17" d="M574.8,445.7c-18.8,9.6-40.2,8.5-60.2,14.1c-11.1,3.1-20.6,8.6-27.7,17.8c-6.5,8.4-10.6,18.4-16.5,27.2
			c-5.8,8.8-13,15.4-22.7,19.7c-11.8,5.2-24.7,8.5-37.3,11.2c-12.3,2.7-25.6,3.2-37.2,8.4c-11.9,5.3-18.5,16.6-25.6,26.9
			c-8,11.6-17.9,20.9-29.7,28.4c-11.7,7.4-25,14.2-38.1,18.7c-2.6,0.9-4.7-3.2-2.1-4.5c11.7-6.3,24.2-10.8,35.5-17.8
			c11-6.7,20.6-15,28.1-25.4c7-9.6,12.8-20.4,22.7-27.4c9.3-6.6,20.8-8.1,31.8-9.9c13.2-2.2,26.3-5.2,39-9.3
			c12.5-4,22.7-9.4,30.4-20.4c6.1-8.6,10.5-18.3,16.8-26.8c5.8-7.9,13.3-13.8,22.4-17.4c22.3-8.8,47.6-4.9,69.5-15
			C575,443.7,575.7,445.2,574.8,445.7z"/>
		<path class="st17" d="M559.3,421.4c-18.8,9.6-40.2,8.5-60.2,14.1c-11.1,3.1-20.6,8.6-27.7,17.8c-6.5,8.4-10.6,18.4-16.5,27.2
			c-5.8,8.8-13,15.4-22.7,19.7c-11.8,5.2-24.7,8.5-37.3,11.2c-12.3,2.7-25.6,3.2-37.2,8.4c-11.9,5.3-18.5,16.6-25.6,26.9
			c-8,11.6-17.9,20.9-29.7,28.4c-11.7,7.4-25,14.2-38.1,18.7c-2.6,0.9-4.7-3.2-2.1-4.5c11.7-6.3,24.2-10.8,35.5-17.8
			c11-6.7,20.6-15,28.1-25.4c7-9.6,12.8-20.4,22.7-27.4c9.3-6.6,20.8-8.1,31.8-9.9c13.2-2.2,26.3-5.2,39-9.3
			c12.5-4,22.7-9.4,30.4-20.4c6.1-8.6,10.5-18.3,16.8-26.8c5.8-7.9,13.3-13.8,22.4-17.4c22.3-8.8,47.6-4.9,69.5-15
			C559.4,419.5,560.1,421,559.3,421.4z"/>
		<path class="st17" d="M518,526.2c-6.5,8.4-10.6,18.4-16.5,27.2c-5.8,8.8-13,15.4-22.7,19.7c-11.8,5.2-24.7,8.5-37.3,11.2
			c-12.3,2.7-25.6,3.2-37.2,8.4c-11.9,5.3-18.5,16.6-25.6,26.9c-8,11.6-17.9,20.9-29.7,28.4c-11.7,7.4-25,14.2-38.1,18.7
			c-2.6,0.9-4.7-3.2-2.1-4.5c11.7-6.3,24.2-10.8,35.5-17.8c11-6.7,20.6-15,28.1-25.4c7-9.6,12.8-20.4,22.7-27.4
			c9.3-6.6,20.8-8.1,31.8-9.9c13.2-2.2,26.3-5.2,39-9.3c12.5-4,22.7-9.4,30.4-20.4c6.1-8.6,10.5-18.3,16.8-26.8
			c5.8-7.9,13.3-13.8,22.4-17.4c22.3-8.8,47.6-4.9,69.5-15c0.9-0.4,1.6,1.1,0.7,1.6c-18.8,9.6-40.2,8.5-60.2,14.1
			C534.7,511.4,525.1,517,518,526.2z"/>
		<path class="st17" d="M590.4,470c-18.8,9.6-40.2,8.5-60.2,14.1c-11.1,3.1-20.6,8.6-27.7,17.8c-6.5,8.4-10.6,18.4-16.5,27.2
			c-5.8,8.8-13,15.4-22.7,19.7c-11.8,5.2-24.7,8.5-37.3,11.2c-12.3,2.7-25.6,3.2-37.2,8.4c-11.9,5.3-18.5,16.6-25.6,26.9
			c-8,11.6-17.9,20.9-29.7,28.4c-11.7,7.4-25,14.2-38.1,18.7c-2.6,0.9-4.7-3.2-2.1-4.5c11.7-6.3,24.2-10.8,35.5-17.8
			c11-6.7,20.6-15,28.1-25.4c7-9.6,12.8-20.4,22.7-27.4c9.3-6.6,20.8-8.1,31.8-9.9c13.2-2.2,26.3-5.2,39-9.3
			c12.5-4,22.7-9.4,30.4-20.4c6.1-8.6,10.5-18.3,16.8-26.8c5.8-7.9,13.3-13.8,22.4-17.4c22.3-8.8,47.6-4.9,69.5-15
			C590.5,468,591.2,469.5,590.4,470z"/>
		<path class="st17" d="M543.5,578.4c-6.5,8.4-10.6,18.4-16.5,27.2c-5.8,8.8-13,15.4-22.7,19.7c-11.8,5.2-24.7,8.5-37.3,11.2
			c-12.3,2.7-25.6,3.2-37.2,8.4c-11.9,5.3-18.5,16.6-25.6,26.9c-8,11.6-17.9,20.9-29.7,28.4c-11.7,7.4-25,14.2-38.1,18.7
			c-2.6,0.9-4.7-3.2-2.1-4.5c11.7-6.3,24.2-10.8,35.5-17.8c11-6.7,20.6-15,28.1-25.4c7-9.6,12.8-20.4,22.7-27.4
			c9.3-6.6,20.8-8.1,31.8-9.9c13.2-2.2,26.3-5.2,39-9.3c12.5-4,22.7-9.4,30.4-20.4c6.1-8.6,10.5-18.3,16.8-26.8
			c5.8-7.9,13.3-13.8,22.4-17.4c22.3-8.8,47.6-4.9,69.5-15c0.9-0.4,1.6,1.1,0.7,1.6c-18.8,9.6-40.2,8.5-60.2,14.1
			C560.1,563.7,550.5,569.2,543.5,578.4z"/>
		<path class="st17" d="M382.3,646.8c7-9.6,12.8-20.4,22.7-27.4c9.3-6.6,20.8-8.1,31.8-9.9c13.2-2.2,26.3-5.2,39-9.3
			c12.5-4,22.7-9.4,30.4-20.4c6.1-8.6,10.5-18.3,16.8-26.8c5.8-7.9,13.3-13.8,22.4-17.4c22.3-8.8,47.6-4.9,69.5-15
			c0.9-0.4,1.6,1.1,0.7,1.6c-18.8,9.6-40.2,8.5-60.2,14.1c-11.1,3.1-20.6,8.6-27.7,17.8c-6.5,8.4-10.6,18.4-16.5,27.2
			c-5.8,8.8-13,15.4-22.7,19.7c-11.8,5.2-24.7,8.5-37.3,11.2c-12.3,2.7-25.6,3.2-37.2,8.4c-11.9,5.3-18.5,16.6-25.6,26.9
			c-8,11.6-17.9,20.9-29.7,28.4c-11.7,7.4-25,14.2-38.1,18.7c-2.6,0.9-4.7-3.2-2.1-4.5c11.7-6.3,24.2-10.8,35.5-17.8
			C365.1,665.5,374.7,657.3,382.3,646.8z"/>
		<path class="st17" d="M599.1,611.2c-11.1,3.1-20.6,8.6-27.7,17.8c-6.5,8.4-10.6,18.4-16.5,27.2c-5.8,8.8-13,15.4-22.7,19.7
			c-11.8,5.2-24.7,8.5-37.3,11.2c-12.3,2.7-25.6,3.2-37.2,8.4c-11.9,5.3-18.5,16.6-25.6,26.9c-8,11.6-17.9,20.9-29.7,28.4
			c-11.7,7.4-25,14.2-38.1,18.7c-2.6,0.9-4.7-3.2-2.1-4.5c11.7-6.3,24.2-10.8,35.5-17.8c11-6.7,20.6-15,28.1-25.4
			c7-9.6,12.8-20.4,22.7-27.4c9.3-6.6,20.8-8.1,31.8-9.9c13.2-2.2,26.3-5.2,39-9.3c12.5-4,22.7-9.4,30.4-20.4
			c6.1-8.6,10.5-18.3,16.8-26.8c5.8-7.9,13.3-13.8,22.4-17.4c22.3-8.8,47.6-4.9,69.5-15c0.9-0.4,1.6,1.1,0.7,1.6
			C640.5,606.7,619.1,605.6,599.1,611.2z"/>
		<path class="st17" d="M410.2,697.4c7-9.6,12.8-20.4,22.7-27.4c9.3-6.6,20.8-8.1,31.8-9.9c13.2-2.2,26.3-5.2,39-9.3
			c12.5-4,22.7-9.4,30.4-20.4c6.1-8.6,10.5-18.3,16.8-26.8c5.8-7.9,13.3-13.8,22.4-17.4c22.3-8.8,47.6-4.9,69.5-15
			c0.9-0.4,1.6,1.1,0.7,1.6c-18.8,9.6-40.2,8.5-60.2,14.1c-11.1,3.1-20.6,8.6-27.7,17.8c-6.5,8.4-10.6,18.4-16.5,27.2
			c-5.8,8.8-13,15.4-22.7,19.7c-11.8,5.2-24.7,8.5-37.3,11.2c-12.3,2.7-25.6,3.2-37.2,8.4c-11.9,5.3-18.5,16.6-25.6,26.9
			c-8,11.6-17.9,20.9-29.7,28.4c-11.7,7.4-25,14.2-38.1,18.7c-2.6,0.9-4.7-3.2-2.1-4.5c11.7-6.3,24.2-10.8,35.5-17.8
			C393,716.1,402.7,707.9,410.2,697.4z"/>
		<path class="st17" d="M690.4,645.6c-18.8,9.6-40.2,8.5-60.2,14.1c-11.1,3.1-20.6,8.6-27.7,17.8c-6.5,8.4-10.6,18.4-16.5,27.2
			c-5.8,8.8-13,15.4-22.7,19.7c-11.8,5.2-24.7,8.5-37.3,11.2c-12.3,2.7-25.6,3.2-37.2,8.4c-11.9,5.3-18.5,16.6-25.6,26.9
			c-8,11.6-17.9,20.9-29.7,28.4c-11.7,7.4-25,14.2-38.1,18.7c-2.6,0.9-4.7-3.2-2.1-4.5c11.7-6.3,24.2-10.8,35.5-17.8
			c11-6.7,20.6-15,28.1-25.4c7-9.6,12.8-20.4,22.7-27.4c9.3-6.6,20.8-8.1,31.8-9.9c13.2-2.2,26.3-5.2,39-9.3
			c12.5-4,22.7-9.4,30.4-20.4c6.1-8.6,10.5-18.3,16.8-26.8c5.8-7.9,13.3-13.8,22.4-17.4c22.3-8.8,47.6-4.9,69.5-15
			C690.6,643.6,691.3,645.2,690.4,645.6z"/>
		<path class="st17" d="M674.9,621.3c-18.8,9.6-40.2,8.5-60.2,14.1c-11.1,3.1-20.6,8.6-27.7,17.8c-6.5,8.4-10.6,18.4-16.5,27.2
			c-5.8,8.8-13,15.4-22.7,19.7c-11.8,5.2-24.7,8.5-37.3,11.2c-12.3,2.7-25.6,3.2-37.2,8.4c-11.9,5.3-18.5,16.6-25.6,26.9
			c-8,11.6-17.9,20.9-29.7,28.4c-11.7,7.4-25,14.2-38.1,18.7c-2.6,0.9-4.7-3.2-2.1-4.5c11.7-6.3,24.2-10.8,35.5-17.8
			c11-6.7,20.6-15,28.1-25.4c7-9.6,12.8-20.4,22.7-27.4c9.3-6.6,20.8-8.1,31.8-9.9c13.2-2.2,26.3-5.2,39-9.3
			c12.5-4,22.7-9.4,30.4-20.4c6.1-8.6,10.5-18.3,16.8-26.8c5.8-7.9,13.3-13.8,22.4-17.4c22.3-8.8,47.6-4.9,69.5-15
			C675,619.4,675.7,620.9,674.9,621.3z"/>
		<path class="st17" d="M633.6,726.1c-6.5,8.4-10.6,18.4-16.5,27.2c-5.8,8.8-13,15.4-22.7,19.7c-11.8,5.2-24.7,8.5-37.3,11.2
			c-12.3,2.7-25.6,3.2-37.2,8.4c-11.9,5.3-18.5,16.6-25.6,26.9c-8,11.6-17.9,20.9-29.7,28.4c-11.7,7.4-25,14.2-38.1,18.7
			c-2.6,0.9-4.7-3.2-2.1-4.5c11.7-6.3,24.2-10.8,35.5-17.8c11-6.7,20.6-15,28.1-25.4c7-9.6,12.8-20.4,22.7-27.4
			c9.3-6.6,20.8-8.1,31.8-9.9c13.2-2.2,26.3-5.2,39-9.3c12.5-4,22.7-9.4,30.4-20.4c6.1-8.6,10.5-18.3,16.8-26.8
			c5.8-7.9,13.3-13.8,22.4-17.4c22.3-8.8,47.6-4.9,69.5-15c0.9-0.4,1.6,1.1,0.7,1.6c-18.8,9.6-40.2,8.5-60.2,14.1
			C650.3,711.3,640.7,716.9,633.6,726.1z"/>
		<path class="st17" d="M706,669.9c-18.8,9.6-40.2,8.5-60.2,14.1c-11.1,3.1-20.6,8.6-27.7,17.8c-6.5,8.4-10.6,18.4-16.5,27.2
			c-5.8,8.8-13,15.4-22.7,19.7c-11.8,5.2-24.7,8.5-37.3,11.2c-12.3,2.7-25.6,3.2-37.2,8.4c-11.9,5.3-18.5,16.6-25.6,26.9
			c-8,11.6-17.9,20.9-29.7,28.4c-11.7,7.4-25,14.2-38.1,18.7c-2.6,0.9-4.7-3.2-2.1-4.5c11.7-6.3,24.2-10.8,35.5-17.8
			c11-6.7,20.6-15,28.1-25.4c7-9.6,12.8-20.4,22.7-27.4c9.3-6.6,20.8-8.1,31.8-9.9c13.2-2.2,26.3-5.2,39-9.3
			c12.5-4,22.7-9.4,30.4-20.4c6.1-8.6,10.5-18.3,16.8-26.8c5.8-7.9,13.3-13.8,22.4-17.4c22.3-8.8,47.6-4.9,69.5-15
			C706.1,667.9,706.8,669.4,706,669.9z"/>
		<path class="st17" d="M449.8,914.3c11.7-6.3,24.2-10.8,35.5-17.8c11-6.7,20.6-15,28.1-25.4c7-9.6,12.8-20.4,22.7-27.4
			c9.3-6.6,20.8-8.1,31.8-9.9c13.2-2.2,26.3-5.2,39-9.3c12.5-4,22.7-9.4,30.4-20.4c6.1-8.6,10.5-18.3,16.8-26.8
			c5.8-7.9,13.3-13.8,22.4-17.4c22.3-8.8,47.6-4.9,69.5-15c0.9-0.4,1.6,1.1,0.7,1.6c-18.8,9.6-40.2,8.5-60.2,14.1
			c-11.1,3.1-20.6,8.6-27.7,17.8c-6.5,8.4-10.6,18.4-16.5,27.2c-5.8,8.8-13,15.4-22.7,19.7c-11.8,5.2-24.7,8.5-37.3,11.2
			c-12.3,2.7-25.6,3.2-37.2,8.4c-11.9,5.3-18.5,16.6-25.6,26.9c-8,11.6-17.9,20.9-29.7,28.4c-11.7,7.4-25,14.2-38.1,18.7
			C449.3,919.7,447.2,915.6,449.8,914.3z"/>
		<path class="st17" d="M497.9,846.7c7-9.6,12.8-20.4,22.7-27.4c9.3-6.6,20.8-8.1,31.8-9.9c13.2-2.2,26.3-5.2,39-9.3
			c12.5-4,22.7-9.4,30.4-20.4c6.1-8.6,10.5-18.3,16.8-26.8c5.8-7.9,13.3-13.8,22.4-17.4c22.3-8.8,47.6-4.9,69.5-15
			c0.9-0.4,1.6,1.1,0.7,1.6c-18.8,9.6-40.2,8.5-60.2,14.1c-11.1,3.1-20.6,8.6-27.7,17.8c-6.5,8.4-10.6,18.4-16.5,27.2
			c-5.8,8.8-13,15.4-22.7,19.7c-11.8,5.2-24.7,8.5-37.3,11.2c-12.3,2.7-25.6,3.2-37.2,8.4c-11.9,5.3-18.5,16.6-25.6,26.9
			c-8,11.6-17.9,20.9-29.7,28.4c-11.7,7.4-25,14.2-38.1,18.7c-2.6,0.9-4.7-3.2-2.1-4.5c11.7-6.3,24.2-10.8,35.5-17.8
			C480.7,865.4,490.3,857.2,497.9,846.7z"/>
	</g>
</g>
<g>
	<defs>
		<path id="SVGID_27_" d="M719.1,230.7c70.2,101.3,95,215.2,94.7,336.2c-0.1,48.2,13.9,94,25.6,140.1c7.9,31.3,9.9,62.1-1.2,92.9
			c-10.2,28.6-25.7,52.2-57.6,58.4c-32.4,6.3-57-7.8-77-32.7c-19.1-23.9-29.6-51.1-32-81.3c-1.2-15.3-2-31-0.6-46.2
			c6.4-66.4-15.2-123.4-60-171.1c-61.2-65.1-86.5-142.8-88.2-230.3c-0.6-31.8,7.4-60.9,21.8-88.6c5.2-5.6,10.5-11.2,15.7-16.8
			c35.9-22.7,72.8-25.7,111.1-5.8C687.4,200.6,703.2,215.6,719.1,230.7z"/>
	</defs>
	<clipPath id="SVGID_6_">
		<use xlink:href="#SVGID_27_"  style="overflow:visible;"/>
	</clipPath>
	<g class="st3">
		<path class="st17" d="M408.5,167.5c19.9-7.2,33.7-23.5,51.4-34.3c9.8-6,20.4-9.2,32-8c10.6,1.1,20.7,4.8,31.2,6.6
			c10.4,1.7,20.1,1,29.9-3.1c11.9-5,23.1-12.2,33.6-19.6c10.3-7.2,19.8-16.6,31.5-21.5c12-5,24.8-2.2,37.2-0.3
			c13.9,2.1,27.5,1.2,41.1-2.3c13.4-3.5,27.5-8.5,39.7-15.1c2.4-1.3,0.9-5.6-1.9-4.7c-12.6,4.2-24.4,10.2-37.3,13.8
			c-12.4,3.4-25,4.8-37.8,3.2c-11.8-1.5-23.7-4.6-35.6-2.1c-11.2,2.3-20.2,9.7-29,16.5c-10.6,8.2-21.8,15.6-33.5,22.1
			c-11.5,6.4-22.4,10.1-35.7,8.3c-10.4-1.5-20.5-4.8-31-6c-9.7-1.1-19.2,0.3-28.1,4.5c-21.7,10.2-36.1,31.4-58.5,40.5
			C406.9,166.3,407.5,167.8,408.5,167.5z"/>
		<path class="st17" d="M401.4,139.6c19.9-7.2,33.7-23.5,51.4-34.3c9.8-6,20.4-9.2,32-8c10.6,1.1,20.7,4.8,31.2,6.6
			c10.4,1.7,20.1,1,29.9-3.1c11.9-5,23.1-12.2,33.6-19.6c10.3-7.2,19.8-16.6,31.5-21.5c12-5,24.8-2.2,37.2-0.3
			c13.9,2.1,27.5,1.2,41.1-2.3c13.4-3.5,27.5-8.5,39.7-15.1c2.4-1.3,0.9-5.6-1.9-4.7c-12.6,4.2-24.4,10.2-37.3,13.8
			c-12.4,3.4-25,4.8-37.8,3.2c-11.8-1.5-23.7-4.6-35.6-2.1c-11.2,2.3-20.2,9.7-29,16.5c-10.6,8.2-21.8,15.6-33.5,22.1
			c-11.5,6.4-22.4,10.1-35.7,8.3c-10.4-1.5-20.5-4.8-31-6c-9.7-1.1-19.2,0.3-28.1,4.5c-21.7,10.2-36.1,31.4-58.5,40.5
			C399.8,138.3,400.5,139.9,401.4,139.6z"/>
		<path class="st17" d="M422.6,223.4c19.9-7.2,33.7-23.5,51.4-34.3c9.8-6,20.4-9.2,32-8c10.6,1.1,20.7,4.8,31.2,6.6
			c10.4,1.7,20.1,1,29.9-3.1c11.9-5,23.1-12.2,33.6-19.6c10.3-7.2,19.8-16.6,31.5-21.5c12-5,24.8-2.2,37.2-0.3
			c13.9,2.1,27.5,1.2,41.1-2.3c13.4-3.5,27.5-8.5,39.7-15.1c2.4-1.3,0.9-5.6-1.9-4.7c-12.6,4.2-24.4,10.2-37.3,13.8
			c-12.4,3.4-25,4.8-37.8,3.2c-11.8-1.5-23.7-4.6-35.6-2.1c-11.2,2.3-20.2,9.7-29,16.5c-10.6,8.2-21.8,15.6-33.5,22.1
			c-11.5,6.4-22.4,10.1-35.7,8.3c-10.4-1.5-20.5-4.8-31-6c-9.7-1.1-19.2,0.3-28.1,4.5c-21.7,10.2-36.1,31.4-58.5,40.5
			C421.1,222.2,421.7,223.7,422.6,223.4z"/>
		<path class="st17" d="M415.5,195.5c19.9-7.2,33.7-23.5,51.4-34.3c9.8-6,20.4-9.2,32-8c10.6,1.1,20.7,4.8,31.2,6.6
			c10.4,1.7,20.1,1,29.9-3.1c11.9-5,23.1-12.2,33.6-19.6c10.3-7.2,19.8-16.6,31.5-21.5c12-5,24.8-2.2,37.2-0.3
			c13.9,2.1,27.5,1.2,41.1-2.3c13.4-3.5,27.5-8.5,39.7-15.1c2.4-1.3,0.9-5.6-1.9-4.7c-12.6,4.2-24.4,10.2-37.3,13.8
			c-12.4,3.4-25,4.8-37.8,3.2c-11.8-1.5-23.7-4.6-35.6-2.1c-11.2,2.3-20.2,9.7-29,16.5c-10.6,8.2-21.8,15.6-33.5,22.1
			c-11.5,6.4-22.4,10.1-35.7,8.3c-10.4-1.5-20.5-4.8-31-6c-9.7-1.1-19.2,0.3-28.1,4.5c-21.7,10.2-36.1,31.4-58.5,40.5
			C414,194.2,414.6,195.8,415.5,195.5z"/>
		<path class="st17" d="M520.2,237c10.6,1.1,20.7,4.8,31.2,6.6c10.4,1.7,20.1,1,29.9-3.1c11.9-5,23.1-12.2,33.6-19.6
			c10.3-7.2,19.8-16.6,31.5-21.5c12-5,24.8-2.2,37.2-0.3c13.9,2.1,27.5,1.2,41.1-2.3c13.4-3.5,27.5-8.5,39.7-15.1
			c2.4-1.3,0.9-5.6-1.9-4.7c-12.6,4.2-24.4,10.2-37.3,13.8c-12.4,3.4-25,4.8-37.8,3.2c-11.8-1.5-23.7-4.6-35.6-2.1
			c-11.2,2.3-20.2,9.7-29,16.5c-10.6,8.2-21.8,15.6-33.5,22.1c-11.5,6.4-22.4,10.1-35.7,8.3c-10.4-1.5-20.5-4.8-31-6
			c-9.7-1.1-19.2,0.3-28.1,4.5c-21.7,10.2-36.1,31.4-58.5,40.5c-0.9,0.4-0.3,1.9,0.6,1.6c19.9-7.2,33.7-23.5,51.4-34.3
			C498.1,239,508.6,235.8,520.2,237z"/>
		<path class="st17" d="M429.7,251.4c19.9-7.2,33.7-23.5,51.4-34.3c9.8-6,20.4-9.2,32-8c10.6,1.1,20.7,4.8,31.2,6.6
			c10.4,1.7,20.1,1,29.9-3.1c11.9-5,23.1-12.2,33.6-19.6c10.3-7.2,19.8-16.6,31.5-21.5c12-5,24.8-2.2,37.2-0.3
			c13.9,2.1,27.5,1.2,41.1-2.3c13.4-3.5,27.5-8.5,39.7-15.1c2.4-1.3,0.9-5.6-1.9-4.7c-12.6,4.2-24.4,10.2-37.3,13.8
			c-12.4,3.4-25,4.8-37.8,3.2c-11.8-1.5-23.7-4.6-35.6-2.1c-11.2,2.3-20.2,9.7-29,16.5c-10.6,8.2-21.8,15.6-33.5,22.1
			c-11.5,6.4-22.4,10.1-35.7,8.3c-10.4-1.5-20.5-4.8-31-6c-9.7-1.1-19.2,0.3-28.1,4.5c-21.7,10.2-36.1,31.4-58.5,40.5
			C428.2,250.1,428.8,251.7,429.7,251.4z"/>
		<path class="st17" d="M540.9,291.2c10.6,1.1,20.7,4.8,31.2,6.6c10.4,1.7,20.1,1,29.9-3.1c11.9-5,23.1-12.2,33.6-19.6
			c10.3-7.2,19.8-16.6,31.5-21.5c12-5,24.8-2.2,37.2-0.3c13.9,2.1,27.5,1.2,41.1-2.3c13.4-3.5,27.5-8.5,39.7-15.1
			c2.4-1.3,0.9-5.6-1.9-4.7c-12.6,4.2-24.4,10.2-37.3,13.8c-12.4,3.4-25,4.8-37.8,3.2c-11.8-1.5-23.7-4.6-35.6-2.1
			c-11.2,2.3-20.2,9.7-29,16.5c-10.6,8.2-21.8,15.6-33.5,22.1c-11.5,6.4-22.4,10.1-35.7,8.3c-10.4-1.5-20.5-4.8-31-6
			c-9.7-1.1-19.2,0.3-28.1,4.5c-21.7,10.2-36.1,31.4-58.5,40.5c-0.9,0.4-0.3,1.9,0.6,1.6c19.9-7.2,33.7-23.5,51.4-34.3
			C518.8,293.3,529.4,290.1,540.9,291.2z"/>
		<path class="st17" d="M701,220.3c-11.8-1.5-23.7-4.6-35.6-2.1c-11.2,2.3-20.2,9.7-29,16.5c-10.6,8.2-21.8,15.6-33.5,22.1
			c-11.5,6.4-22.4,10.1-35.7,8.3c-10.4-1.5-20.5-4.8-31-6c-9.7-1.1-19.2,0.3-28.1,4.5c-21.7,10.2-36.1,31.4-58.5,40.5
			c-0.9,0.4-0.3,1.9,0.6,1.6c19.9-7.2,33.7-23.5,51.4-34.3c9.8-6,20.4-9.2,32-8c10.6,1.1,20.7,4.8,31.2,6.6
			c10.4,1.7,20.1,1,29.9-3.1c11.9-5,23.1-12.2,33.6-19.6c10.3-7.2,19.8-16.6,31.5-21.5c12-5,24.8-2.2,37.2-0.3
			c13.9,2.1,27.5,1.2,41.1-2.3c13.4-3.5,27.5-8.5,39.7-15.1c2.4-1.3,0.9-5.6-1.9-4.7c-12.6,4.2-24.4,10.2-37.3,13.8
			C726.5,220.5,713.9,221.9,701,220.3z"/>
		<path class="st17" d="M526.8,354.2c9.8-6,20.4-9.2,32-8c10.6,1.1,20.7,4.8,31.2,6.6c10.4,1.7,20.1,1,29.9-3.1
			c11.9-5,23.1-12.2,33.6-19.6c10.3-7.2,19.8-16.6,31.5-21.5c12-5,24.8-2.2,37.2-0.3c13.9,2.1,27.5,1.2,41.1-2.3
			c13.4-3.5,27.5-8.5,39.7-15.1c2.4-1.3,0.9-5.6-1.9-4.7c-12.6,4.2-24.4,10.2-37.3,13.8c-12.4,3.4-25,4.8-37.8,3.2
			c-11.8-1.5-23.7-4.6-35.6-2.1c-11.2,2.3-20.2,9.7-29,16.5c-10.6,8.2-21.8,15.6-33.5,22.1c-11.5,6.4-22.4,10.1-35.7,8.3
			c-10.4-1.5-20.5-4.8-31-6c-9.7-1.1-19.2,0.3-28.1,4.5c-21.7,10.2-36.1,31.4-58.5,40.5c-0.9,0.4-0.3,1.9,0.6,1.6
			C495.2,381.4,509.1,365,526.8,354.2z"/>
		<path class="st17" d="M718.9,275.3c-11.8-1.5-23.7-4.6-35.6-2.1c-11.2,2.3-20.2,9.7-29,16.5c-10.6,8.2-21.8,15.6-33.5,22.1
			c-11.5,6.4-22.4,10.1-35.7,8.3c-10.4-1.5-20.5-4.8-31-6c-9.7-1.1-19.2,0.3-28.1,4.5c-21.7,10.2-36.1,31.4-58.5,40.5
			c-0.9,0.4-0.3,1.9,0.6,1.6c19.9-7.2,33.7-23.5,51.4-34.3c9.8-6,20.4-9.2,32-8c10.6,1.1,20.7,4.8,31.2,6.6
			c10.4,1.7,20.1,1,29.9-3.1c11.9-5,23.1-12.2,33.6-19.6c10.3-7.2,19.8-16.6,31.5-21.5c12-5,24.8-2.2,37.2-0.3
			c13.9,2.1,27.5,1.2,41.1-2.3c13.4-3.5,27.5-8.5,39.7-15.1c2.4-1.3,0.9-5.6-1.9-4.7c-12.6,4.2-24.4,10.2-37.3,13.8
			C744.3,275.5,731.7,276.9,718.9,275.3z"/>
		<path class="st17" d="M489.5,444.4c19.9-7.2,33.7-23.5,51.4-34.3c9.8-6,20.4-9.2,32-8c10.6,1.1,20.7,4.8,31.2,6.6
			c10.4,1.7,20.1,1,29.9-3.1c11.9-5,23.1-12.2,33.6-19.6c10.3-7.2,19.8-16.6,31.5-21.5c12-5,24.8-2.2,37.2-0.3
			c13.9,2.1,27.5,1.2,41.1-2.3c13.4-3.5,27.5-8.5,39.7-15.1c2.4-1.3,0.9-5.6-1.9-4.7c-12.6,4.2-24.4,10.2-37.3,13.8
			c-12.4,3.4-25,4.8-37.8,3.2c-11.8-1.5-23.7-4.6-35.6-2.1c-11.2,2.3-20.2,9.7-29,16.5c-10.6,8.2-21.8,15.6-33.5,22.1
			c-11.5,6.4-22.4,10.1-35.7,8.3c-10.4-1.5-20.5-4.8-31-6c-9.7-1.1-19.2,0.3-28.1,4.5c-21.7,10.2-36.1,31.4-58.5,40.5
			C488,443.2,488.6,444.8,489.5,444.4z"/>
		<path class="st17" d="M482.5,416.5c19.9-7.2,33.7-23.5,51.4-34.3c9.8-6,20.4-9.2,32-8c10.6,1.1,20.7,4.8,31.2,6.6
			c10.4,1.7,20.1,1,29.9-3.1c11.9-5,23.1-12.2,33.6-19.6c10.3-7.2,19.8-16.6,31.5-21.5c12-5,24.8-2.2,37.2-0.3
			c13.9,2.1,27.5,1.2,41.1-2.3c13.4-3.5,27.5-8.5,39.7-15.1c2.4-1.3,0.9-5.6-1.9-4.7c-12.6,4.2-24.4,10.2-37.3,13.8
			c-12.4,3.4-25,4.8-37.8,3.2c-11.8-1.5-23.7-4.6-35.6-2.1c-11.2,2.3-20.2,9.7-29,16.5c-10.6,8.2-21.8,15.6-33.5,22.1
			c-11.5,6.4-22.4,10.1-35.7,8.3c-10.4-1.5-20.5-4.8-31-6c-9.7-1.1-19.2,0.3-28.1,4.5c-21.7,10.2-36.1,31.4-58.5,40.5
			C480.9,415.2,481.5,416.8,482.5,416.5z"/>
		<path class="st17" d="M587.1,458c10.6,1.1,20.7,4.8,31.2,6.6c10.4,1.7,20.1,1,29.9-3.1c11.9-5,23.1-12.2,33.6-19.6
			c10.3-7.2,19.8-16.6,31.5-21.5c12-5,24.8-2.2,37.2-0.3c13.9,2.1,27.5,1.2,41.1-2.3c13.4-3.5,27.5-8.5,39.7-15.1
			c2.4-1.3,0.9-5.6-1.9-4.7c-12.6,4.2-24.4,10.2-37.3,13.8c-12.4,3.4-25,4.8-37.8,3.2c-11.8-1.5-23.7-4.6-35.6-2.1
			c-11.2,2.3-20.2,9.7-29,16.5c-10.6,8.2-21.8,15.6-33.5,22.1c-11.5,6.4-22.4,10.1-35.7,8.3c-10.4-1.5-20.5-4.8-31-6
			c-9.7-1.1-19.2,0.3-28.1,4.5c-21.7,10.2-36.1,31.4-58.5,40.5c-0.9,0.4-0.3,1.9,0.6,1.6c19.9-7.2,33.7-23.5,51.4-34.3
			C565,460.1,575.6,456.9,587.1,458z"/>
		<path class="st17" d="M496.6,472.4c19.9-7.2,33.7-23.5,51.4-34.3c9.8-6,20.4-9.2,32-8c10.6,1.1,20.7,4.8,31.2,6.6
			c10.4,1.7,20.1,1,29.9-3.1c11.9-5,23.1-12.2,33.6-19.6c10.3-7.2,19.8-16.6,31.5-21.5c12-5,24.8-2.2,37.2-0.3
			c13.9,2.1,27.5,1.2,41.1-2.3c13.4-3.5,27.5-8.5,39.7-15.1c2.4-1.3,0.9-5.6-1.9-4.7c-12.6,4.2-24.4,10.2-37.3,13.8
			c-12.4,3.4-25,4.8-37.8,3.2c-11.8-1.5-23.7-4.6-35.6-2.1c-11.2,2.3-20.2,9.7-29,16.5c-10.6,8.2-21.8,15.6-33.5,22.1
			c-11.5,6.4-22.4,10.1-35.7,8.3c-10.4-1.5-20.5-4.8-31-6c-9.7-1.1-19.2,0.3-28.1,4.5c-21.7,10.2-36.1,31.4-58.5,40.5
			C495.1,471.1,495.7,472.7,496.6,472.4z"/>
		<path class="st17" d="M607.9,512.2c10.6,1.1,20.7,4.8,31.2,6.6c10.4,1.7,20.1,1,29.9-3.1c11.9-5,23.1-12.2,33.6-19.6
			c10.3-7.2,19.8-16.6,31.5-21.5c12-5,24.8-2.2,37.2-0.3c13.9,2.1,27.5,1.2,41.1-2.3c13.4-3.5,27.5-8.5,39.7-15.1
			c2.4-1.3,0.9-5.6-1.9-4.7c-12.6,4.2-24.4,10.2-37.3,13.8c-12.4,3.4-25,4.8-37.8,3.2c-11.8-1.5-23.7-4.6-35.6-2.1
			c-11.2,2.3-20.2,9.7-29,16.5c-10.6,8.2-21.8,15.6-33.5,22.1c-11.5,6.4-22.4,10.1-35.7,8.3c-10.4-1.5-20.5-4.8-31-6
			c-9.7-1.1-19.2,0.3-28.1,4.5c-21.7,10.2-36.1,31.4-58.5,40.5c-0.9,0.4-0.3,1.9,0.6,1.6c19.9-7.2,33.7-23.5,51.4-34.3
			C585.7,514.3,596.3,511.1,607.9,512.2z"/>
		<path class="st17" d="M768,441.3c-11.8-1.5-23.7-4.6-35.6-2.1c-11.2,2.3-20.2,9.7-29,16.5c-10.6,8.2-21.8,15.6-33.5,22.1
			c-11.5,6.4-22.4,10.1-35.7,8.3c-10.4-1.5-20.5-4.8-31-6c-9.7-1.1-19.2,0.3-28.1,4.5c-21.7,10.2-36.1,31.4-58.5,40.5
			c-0.9,0.4-0.3,1.9,0.6,1.6c19.9-7.2,33.7-23.5,51.4-34.3c9.8-6,20.4-9.2,32-8c10.6,1.1,20.7,4.8,31.2,6.6
			c10.4,1.7,20.1,1,29.9-3.1c11.9-5,23.1-12.2,33.6-19.6c10.3-7.2,19.8-16.6,31.5-21.5c12-5,24.8-2.2,37.2-0.3
			c13.9,2.1,27.5,1.2,41.1-2.3c13.4-3.5,27.5-8.5,39.7-15.1c2.4-1.3,0.9-5.6-1.9-4.7c-12.6,4.2-24.4,10.2-37.3,13.8
			C793.4,441.6,780.8,442.9,768,441.3z"/>
		<path class="st17" d="M599.1,573.6c9.8-6,20.4-9.2,32-8c10.6,1.1,20.7,4.8,31.2,6.6c10.4,1.7,20.1,1,29.9-3.1
			c11.9-5,23.1-12.2,33.6-19.6c10.3-7.2,19.8-16.6,31.5-21.5c12-5,24.8-2.2,37.2-0.3c13.9,2.1,27.5,1.2,41.1-2.3
			c13.4-3.5,27.5-8.5,39.7-15.1c2.4-1.3,0.9-5.6-1.9-4.7c-12.6,4.2-24.4,10.2-37.3,13.8c-12.4,3.4-25,4.8-37.8,3.2
			c-11.8-1.5-23.7-4.6-35.6-2.1c-11.2,2.3-20.2,9.7-29,16.5c-10.6,8.2-21.8,15.6-33.5,22.1c-11.5,6.4-22.4,10.1-35.7,8.3
			c-10.4-1.5-20.5-4.8-31-6c-9.7-1.1-19.2,0.3-28.1,4.5c-21.7,10.2-36.1,31.4-58.5,40.5c-0.9,0.4-0.3,1.9,0.6,1.6
			C567.5,600.7,581.4,584.3,599.1,573.6z"/>
		<path class="st17" d="M791.1,494.7c-11.8-1.5-23.7-4.6-35.6-2.1c-11.2,2.3-20.2,9.7-29,16.5c-10.6,8.2-21.8,15.6-33.5,22.1
			c-11.5,6.4-22.4,10.1-35.7,8.3c-10.4-1.5-20.5-4.8-31-6c-9.7-1.1-19.2,0.3-28.1,4.5c-21.7,10.2-36.1,31.4-58.5,40.5
			c-0.9,0.4-0.3,1.9,0.6,1.6c19.9-7.2,33.7-23.5,51.4-34.3c9.8-6,20.4-9.2,32-8c10.6,1.1,20.7,4.8,31.2,6.6
			c10.4,1.7,20.1,1,29.9-3.1c11.9-5,23.1-12.2,33.6-19.6c10.3-7.2,19.8-16.6,31.5-21.5c12-5,24.8-2.2,37.2-0.3
			c13.9,2.1,27.5,1.2,41.1-2.3c13.4-3.5,27.5-8.5,39.7-15.1c2.4-1.3,0.9-5.6-1.9-4.7c-12.6,4.2-24.4,10.2-37.3,13.8
			C816.5,494.9,803.9,496.3,791.1,494.7z"/>
		<path class="st17" d="M561.8,663.8c19.9-7.2,33.7-23.5,51.4-34.3c9.8-6,20.4-9.2,32-8c10.6,1.1,20.7,4.8,31.2,6.6
			c10.4,1.7,20.1,1,29.9-3.1c11.9-5,23.1-12.2,33.6-19.6c10.3-7.2,19.8-16.6,31.5-21.5c12-5,24.8-2.2,37.2-0.3
			c13.9,2.1,27.5,1.2,41.1-2.3c13.4-3.5,27.5-8.5,39.7-15.1c2.4-1.3,0.9-5.6-1.9-4.7c-12.6,4.2-24.4,10.2-37.3,13.8
			c-12.4,3.4-25,4.8-37.8,3.2c-11.8-1.5-23.7-4.6-35.6-2.1c-11.2,2.3-20.2,9.7-29,16.5c-10.6,8.2-21.8,15.6-33.5,22.1
			c-11.5,6.4-22.4,10.1-35.7,8.3c-10.4-1.5-20.5-4.8-31-6c-9.7-1.1-19.2,0.3-28.1,4.5c-21.7,10.2-36.1,31.4-58.5,40.5
			C560.3,662.6,560.9,664.1,561.8,663.8z"/>
		<path class="st17" d="M554.7,635.8c19.9-7.2,33.7-23.5,51.4-34.3c9.8-6,20.4-9.2,32-8c10.6,1.1,20.7,4.8,31.2,6.6
			c10.4,1.7,20.1,1,29.9-3.1c11.9-5,23.1-12.2,33.6-19.6c10.3-7.2,19.8-16.6,31.5-21.5c12-5,24.8-2.2,37.2-0.3
			c13.9,2.1,27.5,1.2,41.1-2.3c13.4-3.5,27.5-8.5,39.7-15.1c2.4-1.3,0.9-5.6-1.9-4.7c-12.6,4.2-24.4,10.2-37.3,13.8
			c-12.4,3.4-25,4.8-37.8,3.2c-11.8-1.5-23.7-4.6-35.6-2.1c-11.2,2.3-20.2,9.7-29,16.5c-10.6,8.2-21.8,15.6-33.5,22.1
			c-11.5,6.4-22.4,10.1-35.7,8.3c-10.4-1.5-20.5-4.8-31-6c-9.7-1.1-19.2,0.3-28.1,4.5c-21.7,10.2-36.1,31.4-58.5,40.5
			C553.2,634.6,553.8,636.2,554.7,635.8z"/>
		<path class="st17" d="M659.4,677.4c10.6,1.1,20.7,4.8,31.2,6.6c10.4,1.7,20.1,1,29.9-3.1c11.9-5,23.1-12.2,33.6-19.6
			c10.3-7.2,19.8-16.6,31.5-21.5c12-5,24.8-2.2,37.2-0.3c13.9,2.1,27.5,1.2,41.1-2.3c13.4-3.5,27.5-8.5,39.7-15.1
			c2.4-1.3,0.9-5.6-1.9-4.7c-12.6,4.2-24.4,10.2-37.3,13.8c-12.4,3.4-25,4.8-37.8,3.2c-11.8-1.5-23.7-4.6-35.6-2.1
			c-11.2,2.3-20.2,9.7-29,16.5c-10.6,8.2-21.8,15.6-33.5,22.1c-11.5,6.4-22.4,10.1-35.7,8.3c-10.4-1.5-20.5-4.8-31-6
			c-9.7-1.1-19.2,0.3-28.1,4.5c-21.7,10.2-36.1,31.4-58.5,40.5c-0.9,0.4-0.3,1.9,0.6,1.6c19.9-7.2,33.7-23.5,51.4-34.3
			C637.2,679.4,647.8,676.2,659.4,677.4z"/>
		<path class="st17" d="M568.9,691.7c19.9-7.2,33.7-23.5,51.4-34.3c9.8-6,20.4-9.2,32-8c10.6,1.1,20.7,4.8,31.2,6.6
			c10.4,1.7,20.1,1,29.9-3.1c11.9-5,23.1-12.2,33.6-19.6c10.3-7.2,19.8-16.6,31.5-21.5c12-5,24.8-2.2,37.2-0.3
			c13.9,2.1,27.5,1.2,41.1-2.3c13.4-3.5,27.5-8.5,39.7-15.1c2.4-1.3,0.9-5.6-1.9-4.7c-12.6,4.2-24.4,10.2-37.3,13.8
			c-12.4,3.4-25,4.8-37.8,3.2c-11.8-1.5-23.7-4.6-35.6-2.1c-11.2,2.3-20.2,9.7-29,16.5c-10.6,8.2-21.8,15.6-33.5,22.1
			c-11.5,6.4-22.4,10.1-35.7,8.3c-10.4-1.5-20.5-4.8-31-6c-9.7-1.1-19.2,0.3-28.1,4.5c-21.7,10.2-36.1,31.4-58.5,40.5
			C567.4,690.5,568,692.1,568.9,691.7z"/>
		<path class="st17" d="M680.1,731.6c10.6,1.1,20.7,4.8,31.2,6.6c10.4,1.7,20.1,1,29.9-3.1c11.9-5,23.1-12.2,33.6-19.6
			c10.3-7.2,19.8-16.6,31.5-21.5c12-5,24.8-2.2,37.2-0.3c13.9,2.1,27.5,1.2,41.1-2.3c13.4-3.5,27.5-8.5,39.7-15.1
			c2.4-1.3,0.9-5.6-1.9-4.7c-12.6,4.2-24.4,10.2-37.3,13.8c-12.4,3.4-25,4.8-37.8,3.2c-11.8-1.5-23.7-4.6-35.6-2.1
			c-11.2,2.3-20.2,9.7-29,16.5c-10.6,8.2-21.8,15.6-33.5,22.1c-11.5,6.4-22.4,10.1-35.7,8.3c-10.4-1.5-20.5-4.8-31-6
			c-9.7-1.1-19.2,0.3-28.1,4.5c-21.7,10.2-36.1,31.4-58.5,40.5c-0.9,0.4-0.3,1.9,0.6,1.6c19.9-7.2,33.7-23.5,51.4-34.3
			C658,733.7,668.6,730.5,680.1,731.6z"/>
		<path class="st17" d="M840.2,660.7c-11.8-1.5-23.7-4.6-35.6-2.1c-11.2,2.3-20.2,9.7-29,16.5c-10.6,8.2-21.8,15.6-33.5,22.1
			c-11.5,6.4-22.4,10.1-35.7,8.3c-10.4-1.5-20.5-4.8-31-6c-9.7-1.1-19.2,0.3-28.1,4.5c-21.7,10.2-36.1,31.4-58.5,40.5
			c-0.9,0.4-0.3,1.9,0.6,1.6c19.9-7.2,33.7-23.5,51.4-34.3c9.8-6,20.4-9.2,32-8c10.6,1.1,20.7,4.8,31.2,6.6
			c10.4,1.7,20.1,1,29.9-3.1c11.9-5,23.1-12.2,33.6-19.6c10.3-7.2,19.8-16.6,31.5-21.5c12-5,24.8-2.2,37.2-0.3
			c13.9,2.1,27.5,1.2,41.1-2.3c13.4-3.5,27.5-8.5,39.7-15.1c2.4-1.3,0.9-5.6-1.9-4.7c-12.6,4.2-24.4,10.2-37.3,13.8
			C865.6,660.9,853,662.3,840.2,660.7z"/>
		<path class="st17" d="M666,794.6c9.8-6,20.4-9.2,32-8c10.6,1.1,20.7,4.8,31.2,6.6c10.4,1.7,20.1,1,29.9-3.1
			c11.9-5,23.1-12.2,33.6-19.6c10.3-7.2,19.8-16.6,31.5-21.5c12-5,24.8-2.2,37.2-0.3c13.9,2.1,27.5,1.2,41.1-2.3
			c13.4-3.5,27.5-8.5,39.7-15.1c2.4-1.3,0.9-5.6-1.9-4.7c-12.6,4.2-24.4,10.2-37.3,13.8c-12.4,3.4-25,4.8-37.8,3.2
			c-11.8-1.5-23.7-4.6-35.6-2.1c-11.2,2.3-20.2,9.7-29,16.5c-10.6,8.2-21.8,15.6-33.5,22.1c-11.5,6.4-22.4,10.1-35.7,8.3
			c-10.4-1.5-20.5-4.8-31-6c-9.7-1.1-19.2,0.3-28.1,4.5c-21.7,10.2-36.1,31.4-58.5,40.5c-0.9,0.4-0.3,1.9,0.6,1.6
			C634.4,821.8,648.3,805.4,666,794.6z"/>
		<path class="st17" d="M858.1,715.7c-11.8-1.5-23.7-4.6-35.6-2.1c-11.2,2.3-20.2,9.7-29,16.5c-10.6,8.2-21.8,15.6-33.5,22.1
			c-11.5,6.4-22.4,10.1-35.7,8.3c-10.4-1.5-20.5-4.8-31-6c-9.7-1.1-19.2,0.3-28.1,4.5c-21.7,10.2-36.1,31.4-58.5,40.5
			c-0.9,0.4-0.3,1.9,0.6,1.6c19.9-7.2,33.7-23.5,51.4-34.3c9.8-6,20.4-9.2,32-8c10.6,1.1,20.7,4.8,31.2,6.6
			c10.4,1.7,20.1,1,29.9-3.1c11.9-5,23.1-12.2,33.6-19.6c10.3-7.2,19.8-16.6,31.5-21.5c12-5,24.8-2.2,37.2-0.3
			c13.9,2.1,27.5,1.2,41.1-2.3c13.4-3.5,27.5-8.5,39.7-15.1c2.4-1.3,0.9-5.6-1.9-4.7c-12.6,4.2-24.4,10.2-37.3,13.8
			C883.5,715.9,870.9,717.3,858.1,715.7z"/>
		<path class="st17" d="M628.7,884.8c19.9-7.2,33.7-23.5,51.4-34.3c9.8-6,20.4-9.2,32-8c10.6,1.1,20.7,4.8,31.2,6.6
			c10.4,1.7,20.1,1,29.9-3.1c11.9-5,23.1-12.2,33.6-19.6c10.3-7.2,19.8-16.6,31.5-21.5c12-5,24.8-2.2,37.2-0.3
			c13.9,2.1,27.5,1.2,41.1-2.3c13.4-3.5,27.5-8.5,39.7-15.1c2.4-1.3,0.9-5.6-1.9-4.7c-12.6,4.2-24.4,10.2-37.3,13.8
			c-12.4,3.4-25,4.8-37.8,3.2c-11.8-1.5-23.7-4.6-35.6-2.1c-11.2,2.3-20.2,9.7-29,16.5c-10.6,8.2-21.8,15.6-33.5,22.1
			c-11.5,6.4-22.4,10.1-35.7,8.3c-10.4-1.5-20.5-4.8-31-6c-9.7-1.1-19.2,0.3-28.1,4.5c-21.7,10.2-36.1,31.4-58.5,40.5
			C627.2,883.6,627.8,885.1,628.7,884.8z"/>
		<path class="st17" d="M621.7,856.9c19.9-7.2,33.7-23.5,51.4-34.3c9.8-6,20.4-9.2,32-8c10.6,1.1,20.7,4.8,31.2,6.6
			c10.4,1.7,20.1,1,29.9-3.1c11.9-5,23.1-12.2,33.6-19.6c10.3-7.2,19.8-16.6,31.5-21.5c12-5,24.8-2.2,37.2-0.3
			c13.9,2.1,27.5,1.2,41.1-2.3c13.4-3.5,27.5-8.5,39.7-15.1c2.4-1.3,0.9-5.6-1.9-4.7c-12.6,4.2-24.4,10.2-37.3,13.8
			c-12.4,3.4-25,4.8-37.8,3.2c-11.8-1.5-23.7-4.6-35.6-2.1c-11.2,2.3-20.2,9.7-29,16.5c-10.6,8.2-21.8,15.6-33.5,22.1
			c-11.5,6.4-22.4,10.1-35.7,8.3c-10.4-1.5-20.5-4.8-31-6c-9.7-1.1-19.2,0.3-28.1,4.5c-21.7,10.2-36.1,31.4-58.5,40.5
			C620.1,855.6,620.7,857.2,621.7,856.9z"/>
		<path class="st17" d="M726.3,898.4c10.6,1.1,20.7,4.8,31.2,6.6c10.4,1.7,20.1,1,29.9-3.1c11.9-5,23.1-12.2,33.6-19.6
			c10.3-7.2,19.8-16.6,31.5-21.5c12-5,24.8-2.2,37.2-0.3c13.9,2.1,27.5,1.2,41.1-2.3c13.4-3.5,27.5-8.5,39.7-15.1
			c2.4-1.3,0.9-5.6-1.9-4.7c-12.6,4.2-24.4,10.2-37.3,13.8c-12.4,3.4-25,4.8-37.8,3.2c-11.8-1.5-23.7-4.6-35.6-2.1
			c-11.2,2.3-20.2,9.7-29,16.5c-10.6,8.2-21.8,15.6-33.5,22.1c-11.5,6.4-22.4,10.1-35.7,8.3c-10.4-1.5-20.5-4.8-31-6
			c-9.7-1.1-19.2,0.3-28.1,4.5c-21.7,10.2-36.1,31.4-58.5,40.5c-0.9,0.4-0.3,1.9,0.6,1.6c19.9-7.2,33.7-23.5,51.4-34.3
			C704.2,900.4,714.8,897.2,726.3,898.4z"/>
		<path class="st17" d="M635.8,912.8c19.9-7.2,33.7-23.5,51.4-34.3c9.8-6,20.4-9.2,32-8c10.6,1.1,20.7,4.8,31.2,6.6
			c10.4,1.7,20.1,1,29.9-3.1c11.9-5,23.1-12.2,33.6-19.6c10.3-7.2,19.8-16.6,31.5-21.5c12-5,24.8-2.2,37.2-0.3
			c13.9,2.1,27.5,1.2,41.1-2.3c13.4-3.5,27.5-8.5,39.7-15.1c2.4-1.3,0.9-5.6-1.9-4.7c-12.6,4.2-24.4,10.2-37.3,13.8
			c-12.4,3.4-25,4.8-37.8,3.2c-11.8-1.5-23.7-4.6-35.6-2.1c-11.2,2.3-20.2,9.7-29,16.5c-10.6,8.2-21.8,15.6-33.5,22.1
			c-11.5,6.4-22.4,10.1-35.7,8.3c-10.4-1.5-20.5-4.8-31-6c-9.7-1.1-19.2,0.3-28.1,4.5c-21.7,10.2-36.1,31.4-58.5,40.5
			C634.3,911.5,634.9,913.1,635.8,912.8z"/>
		<path class="st17" d="M989.4,892.7c-12.6,4.2-24.4,10.2-37.3,13.8c-12.4,3.4-25,4.8-37.8,3.2c-11.8-1.5-23.7-4.6-35.6-2.1
			c-11.2,2.3-20.2,9.7-29,16.5c-10.6,8.2-21.8,15.6-33.5,22.1c-11.5,6.4-22.4,10.1-35.7,8.3c-10.4-1.5-20.5-4.8-31-6
			c-9.7-1.1-19.2,0.3-28.1,4.5c-21.7,10.2-36.1,31.4-58.5,40.5c-0.9,0.4-0.3,1.9,0.6,1.6c19.9-7.2,33.7-23.5,51.4-34.3
			c9.8-6,20.4-9.2,32-8c10.6,1.1,20.7,4.8,31.2,6.6c10.4,1.7,20.1,1,29.9-3.1c11.9-5,23.1-12.2,33.6-19.6
			c10.3-7.2,19.8-16.6,31.5-21.5c12-5,24.8-2.2,37.2-0.3c13.9,2.1,27.5,1.2,41.1-2.3c13.4-3.5,27.5-8.5,39.7-15.1
			C993.7,896.1,992.1,891.8,989.4,892.7z"/>
		<path class="st17" d="M907.2,881.7c-11.8-1.5-23.7-4.6-35.6-2.1c-11.2,2.3-20.2,9.7-29,16.5c-10.6,8.2-21.8,15.6-33.5,22.1
			c-11.5,6.4-22.4,10.1-35.7,8.3c-10.4-1.5-20.5-4.8-31-6c-9.7-1.1-19.2,0.3-28.1,4.5c-21.7,10.2-36.1,31.4-58.5,40.5
			c-0.9,0.4-0.3,1.9,0.6,1.6c19.9-7.2,33.7-23.5,51.4-34.3c9.8-6,20.4-9.2,32-8c10.6,1.1,20.7,4.8,31.2,6.6
			c10.4,1.7,20.1,1,29.9-3.1c11.9-5,23.1-12.2,33.6-19.6c10.3-7.2,19.8-16.6,31.5-21.5c12-5,24.8-2.2,37.2-0.3
			c13.9,2.1,27.5,1.2,41.1-2.3c13.4-3.5,27.5-8.5,39.7-15.1c2.4-1.3,0.9-5.6-1.9-4.7c-12.6,4.2-24.4,10.2-37.3,13.8
			C932.6,881.9,920,883.3,907.2,881.7z"/>
	</g>
</g>
</svg>
