<?xml version="1.0" encoding="utf-8"?>
<!-- Generator: Adobe Illustrator 22.1.0, SVG Export Plug-In . SVG Version: 6.00 Build 0)  -->
<svg version="1.1" id="Layer_1" xmlns="http://www.w3.org/2000/svg" xmlns:xlink="http://www.w3.org/1999/xlink" x="0px" y="0px"
	 viewBox="0 0 1000 1000" style="enable-background:new 0 0 1000 1000;" xml:space="preserve">
<style type="text/css">
	.st0{clip-path:url(#SVGID_2_);}
	.st1{fill:none;stroke:#F3F2F2;stroke-width:3;stroke-miterlimit:10;}
	.st2{clip-path:url(#SVGID_4_);}
	.st3{clip-path:url(#SVGID_6_);}
	.st4{clip-path:url(#SVGID_8_);}
	.st5{clip-path:url(#SVGID_10_);}
	.st6{clip-path:url(#SVGID_12_);}
	.st7{clip-path:url(#SVGID_14_);}
	.st8{clip-path:url(#SVGID_16_);}
	.st9{clip-path:url(#SVGID_18_);fill:none;}
	.st10{clip-path:url(#SVGID_18_);}
	.st11{fill:#F9F7F7;}
	.st12{clip-path:url(#SVGID_20_);}
	.st13{clip-path:url(#SVGID_22_);fill:none;}
	.st14{clip-path:url(#SVGID_22_);}
	.st15{clip-path:url(#SVGID_24_);}
	.st16{clip-path:url(#SVGID_26_);}
	.st17{fill:#F3F2F2;}
	.st18{clip-path:url(#SVGID_28_);}
	.st19{clip-path:url(#SVGID_30_);}
	.st20{clip-path:url(#SVGID_32_);}
</style>
<g>
	<defs>
		<path id="SVGID_1_" d="M437.8,469.8c-8.8,31.2-32.8,56.5-57,81.6c-14.8,15.3-30.8,29.7-40,49.5c-4.2,9.1-8.5,18.2-12.1,27.6
			c-2.2,5.8-5.2,8.1-11.7,7.5c-37.9-3.5-75.9-6.7-113.8-9.6c-7.4-0.6-10.2-3.1-10.8-10.5c-5.4-62.7-2.8-125,10.7-186.5
			c13.4-61,40-115.6,82.4-162c12.2-13.3,26.3-24.3,43.2-31.6c38.8-16.7,86,4.1,102.7,40.2c10.1,21.8,15.7,44.7,18.8,68.3
			C455.7,385,451.5,430.6,437.8,469.8z"/>
	</defs>
	<clipPath id="SVGID_2_">
		<use xlink:href="#SVGID_1_"  style="overflow:visible;"/>
	</clipPath>
	<g class="st0">
		<line class="st1" x1="-48.1" y1="210.7" x2="137.1" y2="571.1"/>
		<line class="st1" x1="-72.6" y1="222.1" x2="112.6" y2="582.6"/>
		<line class="st1" x1="-94.2" y1="236.7" x2="91" y2="597.1"/>
		<line class="st1" x1="-117.7" y1="247.7" x2="67.5" y2="608.1"/>
		<line class="st1" x1="-141.2" y1="258.7" x2="44" y2="619.1"/>
		<line class="st1" x1="-165.8" y1="270.1" x2="19.5" y2="630.6"/>
		<line class="st1" x1="136.8" y1="116.7" x2="322" y2="477.2"/>
		<line class="st1" x1="112.3" y1="128.2" x2="297.5" y2="488.6"/>
		<line class="st1" x1="89.7" y1="141" x2="274.9" y2="501.4"/>
		<line class="st1" x1="67.1" y1="153.7" x2="252.3" y2="514.2"/>
		<line class="st1" x1="43.6" y1="164.7" x2="228.8" y2="525.2"/>
		<line class="st1" x1="19.1" y1="176.2" x2="204.3" y2="536.6"/>
		<line class="st1" x1="-3.5" y1="188.9" x2="181.7" y2="549.4"/>
		<line class="st1" x1="-27" y1="199.9" x2="158.2" y2="560.4"/>
		<line class="st1" x1="61.8" y1="848.5" x2="422.2" y2="663.2"/>
		<line class="st1" x1="73.2" y1="873" x2="433.7" y2="687.8"/>
		<line class="st1" x1="87.8" y1="894.6" x2="448.3" y2="709.4"/>
		<line class="st1" x1="98.8" y1="918.1" x2="459.2" y2="732.9"/>
		<line class="st1" x1="109.8" y1="941.6" x2="470.2" y2="756.4"/>
		<line class="st1" x1="121.2" y1="966.1" x2="481.7" y2="780.9"/>
		<line class="st1" x1="135.8" y1="987.8" x2="496.2" y2="802.6"/>
		<line class="st1" x1="148.6" y1="1010.4" x2="509" y2="825.2"/>
		<line class="st1" x1="-32.2" y1="663.6" x2="328.3" y2="478.4"/>
		<line class="st1" x1="-20.7" y1="688.1" x2="339.7" y2="502.9"/>
		<line class="st1" x1="-7.9" y1="710.7" x2="352.5" y2="525.5"/>
		<line class="st1" x1="4.8" y1="733.3" x2="365.3" y2="548.1"/>
		<line class="st1" x1="15.8" y1="756.8" x2="376.3" y2="571.6"/>
		<line class="st1" x1="27.3" y1="781.3" x2="387.7" y2="596.1"/>
		<line class="st1" x1="40.1" y1="803.9" x2="400.5" y2="618.7"/>
		<line class="st1" x1="51" y1="827.4" x2="411.5" y2="642.2"/>
	</g>
	<g class="st0">
		<line class="st1" x1="698.4" y1="737.9" x2="513.2" y2="377.5"/>
		<line class="st1" x1="722.9" y1="726.4" x2="537.7" y2="366"/>
		<line class="st1" x1="744.6" y1="711.9" x2="559.4" y2="351.4"/>
		<line class="st1" x1="768.1" y1="700.9" x2="582.9" y2="340.5"/>
		<line class="st1" x1="791.6" y1="689.9" x2="606.4" y2="329.5"/>
		<line class="st1" x1="816.1" y1="678.5" x2="630.9" y2="318"/>
		<line class="st1" x1="837.8" y1="663.9" x2="652.6" y2="303.4"/>
		<line class="st1" x1="860.4" y1="651.1" x2="675.2" y2="290.7"/>
		<line class="st1" x1="513.6" y1="831.9" x2="328.4" y2="471.4"/>
		<line class="st1" x1="538.1" y1="820.4" x2="352.9" y2="459.9"/>
		<line class="st1" x1="560.7" y1="807.6" x2="375.5" y2="447.2"/>
		<line class="st1" x1="583.2" y1="794.9" x2="398" y2="434.4"/>
		<line class="st1" x1="606.7" y1="783.9" x2="421.5" y2="423.4"/>
		<line class="st1" x1="631.3" y1="772.4" x2="446" y2="412"/>
		<line class="st1" x1="653.8" y1="759.6" x2="468.6" y2="399.2"/>
		<line class="st1" x1="677.3" y1="748.6" x2="492.1" y2="388.2"/>
		<line class="st1" x1="588.6" y1="100.1" x2="228.1" y2="285.3"/>
		<line class="st1" x1="577.1" y1="75.6" x2="216.7" y2="260.8"/>
		<line class="st1" x1="562.6" y1="53.9" x2="202.1" y2="239.1"/>
		<line class="st1" x1="551.6" y1="30.4" x2="191.1" y2="215.7"/>
		<line class="st1" x1="540.6" y1="7" x2="180.1" y2="192.2"/>
		<line class="st1" x1="529.1" y1="-17.6" x2="168.7" y2="167.6"/>
		<line class="st1" x1="514.6" y1="-39.2" x2="154.1" y2="146"/>
		<line class="st1" x1="501.8" y1="-61.8" x2="141.3" y2="123.4"/>
		<line class="st1" x1="682.5" y1="285" x2="322.1" y2="470.2"/>
		<line class="st1" x1="671.1" y1="260.5" x2="310.6" y2="445.7"/>
		<line class="st1" x1="658.3" y1="237.9" x2="297.8" y2="423.1"/>
		<line class="st1" x1="645.5" y1="215.3" x2="285.1" y2="400.5"/>
		<line class="st1" x1="634.5" y1="191.8" x2="274.1" y2="377"/>
		<line class="st1" x1="623.1" y1="167.3" x2="262.6" y2="352.5"/>
		<line class="st1" x1="610.3" y1="144.7" x2="249.9" y2="329.9"/>
		<line class="st1" x1="599.3" y1="121.2" x2="238.9" y2="306.4"/>
	</g>
</g>
<g>
	<defs>
		<path id="SVGID_3_" d="M178.1,801.5c-6.8-41.5-0.3-81.5,9.6-121.2c1.2-4.7,3.6-6,8.2-5.7c39.7,2.2,79.3,4.3,119,6.3
			c4.2,0.2,6.7,1.5,7.3,6c5.9,42.3,8.5,84.4-4.7,125.9c-6.8,21.3-18.7,38.7-40.3,47.9c-40.5,17.2-86.3-5.8-96.5-48.5
			C179.9,808.4,178.9,804.7,178.1,801.5z"/>
	</defs>
	<clipPath id="SVGID_4_">
		<use xlink:href="#SVGID_3_"  style="overflow:visible;"/>
	</clipPath>
	<g class="st2">
		<line class="st1" x1="-68.9" y1="270.2" x2="116.3" y2="630.7"/>
		<line class="st1" x1="-93.4" y1="281.7" x2="91.8" y2="642.2"/>
		<line class="st1" x1="-115.1" y1="296.3" x2="70.1" y2="656.7"/>
		<line class="st1" x1="-138.6" y1="307.2" x2="46.6" y2="667.7"/>
		<line class="st1" x1="-162.1" y1="318.2" x2="23.1" y2="678.7"/>
		<line class="st1" x1="115.9" y1="176.3" x2="301.1" y2="536.7"/>
		<line class="st1" x1="91.4" y1="187.8" x2="276.6" y2="548.2"/>
		<line class="st1" x1="68.8" y1="200.5" x2="254" y2="561"/>
		<line class="st1" x1="46.2" y1="213.3" x2="231.5" y2="573.7"/>
		<line class="st1" x1="22.7" y1="224.3" x2="208" y2="584.7"/>
		<line class="st1" x1="-1.8" y1="235.7" x2="183.4" y2="596.2"/>
		<line class="st1" x1="-24.3" y1="248.5" x2="160.9" y2="609"/>
		<line class="st1" x1="-47.8" y1="259.5" x2="137.4" y2="619.9"/>
		<line class="st1" x1="40.9" y1="908" x2="401.4" y2="722.8"/>
		<line class="st1" x1="52.4" y1="932.5" x2="412.8" y2="747.3"/>
		<line class="st1" x1="66.9" y1="954.2" x2="427.4" y2="769"/>
		<line class="st1" x1="77.9" y1="977.7" x2="438.4" y2="792.5"/>
		<line class="st1" x1="88.9" y1="1001.2" x2="449.4" y2="816"/>
		<line class="st1" x1="100.4" y1="1025.7" x2="460.8" y2="840.5"/>
		<line class="st1" x1="114.9" y1="1047.4" x2="475.4" y2="862.2"/>
		<line class="st1" x1="127.7" y1="1070" x2="488.2" y2="884.8"/>
		<line class="st1" x1="-53" y1="723.2" x2="307.4" y2="538"/>
		<line class="st1" x1="-41.6" y1="747.7" x2="318.9" y2="562.5"/>
		<line class="st1" x1="-28.8" y1="770.3" x2="331.6" y2="585.1"/>
		<line class="st1" x1="-16" y1="792.9" x2="344.4" y2="607.6"/>
		<line class="st1" x1="-5" y1="816.3" x2="355.4" y2="631.1"/>
		<line class="st1" x1="6.4" y1="840.9" x2="366.9" y2="655.7"/>
		<line class="st1" x1="19.2" y1="863.4" x2="379.6" y2="678.2"/>
		<line class="st1" x1="30.2" y1="886.9" x2="390.6" y2="701.7"/>
	</g>
</g>
<g>
	<defs>
		<path id="SVGID_5_" d="M597.1,263.6c-14.5,29.1-13.7,63.9-12.6,98.7c0.7,21.3,2.9,42.6-3.6,63.5c-3,9.6-5.9,19.2-9.6,28.6
			c-2.3,5.8-1.6,9.4,3.7,13.4c30.4,22.9,60.7,46,90.7,69.4c5.9,4.6,9.6,4.6,15.1-0.5c46.1-42.8,86.1-90.7,117.3-145.3
			c31-54.2,48.1-112.5,47.7-175.4c-0.1-18.1-3.2-35.7-10.8-52.4c-17.5-38.5-66.5-54.7-103.1-39.2c-22.1,9.4-41.6,22.6-59.8,38
			C640.9,188.7,613.3,225.3,597.1,263.6z"/>
	</defs>
	<clipPath id="SVGID_6_">
		<use xlink:href="#SVGID_5_"  style="overflow:visible;"/>
	</clipPath>
	<g class="st3">
		<line class="st1" x1="1131.1" y1="398" x2="751.8" y2="540.6"/>
		<line class="st1" x1="1141.6" y1="423" x2="762.3" y2="565.6"/>
		<line class="st1" x1="1147.9" y1="448.3" x2="768.5" y2="590.9"/>
		<line class="st1" x1="1157.9" y1="472.3" x2="778.6" y2="614.9"/>
		<line class="st1" x1="1167.9" y1="496.2" x2="788.6" y2="638.8"/>
		<line class="st1" x1="1178.4" y1="521.1" x2="799.1" y2="663.7"/>
		<line class="st1" x1="1184.7" y1="546.5" x2="805.3" y2="689.1"/>
		<line class="st1" x1="1192.8" y1="571.1" x2="813.5" y2="713.7"/>
		<line class="st1" x1="1057.3" y1="204.3" x2="678" y2="346.9"/>
		<line class="st1" x1="1067.8" y1="229.2" x2="688.5" y2="371.8"/>
		<line class="st1" x1="1075.9" y1="253.8" x2="696.6" y2="396.4"/>
		<line class="st1" x1="1084.1" y1="278.5" x2="704.8" y2="421.1"/>
		<line class="st1" x1="1094.1" y1="302.4" x2="714.8" y2="445"/>
		<line class="st1" x1="1104.6" y1="327.4" x2="725.2" y2="470"/>
		<line class="st1" x1="1112.7" y1="352" x2="733.4" y2="494.6"/>
		<line class="st1" x1="1122.7" y1="375.9" x2="743.4" y2="518.5"/>
		<line class="st1" x1="621.3" y1="796.7" x2="478.7" y2="417.4"/>
		<line class="st1" x1="596.4" y1="807.2" x2="453.8" y2="427.8"/>
		<line class="st1" x1="571" y1="813.4" x2="428.4" y2="434.1"/>
		<line class="st1" x1="547.1" y1="823.5" x2="404.5" y2="444.1"/>
		<line class="st1" x1="523.2" y1="833.5" x2="380.6" y2="454.1"/>
		<line class="st1" x1="498.2" y1="843.9" x2="355.6" y2="464.6"/>
		<line class="st1" x1="472.9" y1="850.2" x2="330.3" y2="470.9"/>
		<line class="st1" x1="448.3" y1="858.4" x2="305.7" y2="479"/>
		<line class="st1" x1="815.1" y1="722.9" x2="672.5" y2="343.5"/>
		<line class="st1" x1="790.2" y1="733.3" x2="647.6" y2="354"/>
		<line class="st1" x1="765.5" y1="741.5" x2="622.9" y2="362.2"/>
		<line class="st1" x1="740.9" y1="749.6" x2="598.3" y2="370.3"/>
		<line class="st1" x1="717" y1="759.7" x2="574.4" y2="380.3"/>
		<line class="st1" x1="692" y1="770.1" x2="549.4" y2="390.8"/>
		<line class="st1" x1="667.4" y1="778.3" x2="524.8" y2="398.9"/>
		<line class="st1" x1="643.5" y1="788.3" x2="500.9" y2="409"/>
	</g>
	<g class="st3">
		<line class="st1" x1="224" y1="287.1" x2="603.3" y2="144.5"/>
		<line class="st1" x1="213.5" y1="262.2" x2="592.9" y2="119.6"/>
		<line class="st1" x1="207.3" y1="236.8" x2="586.6" y2="94.2"/>
		<line class="st1" x1="197.2" y1="212.9" x2="576.6" y2="70.3"/>
		<line class="st1" x1="187.2" y1="189" x2="566.5" y2="46.4"/>
		<line class="st1" x1="176.8" y1="164" x2="556.1" y2="21.4"/>
		<line class="st1" x1="170.5" y1="138.7" x2="549.8" y2="-3.9"/>
		<line class="st1" x1="162.3" y1="114.1" x2="541.7" y2="-28.5"/>
		<line class="st1" x1="297.8" y1="480.9" x2="677.1" y2="338.3"/>
		<line class="st1" x1="287.4" y1="456" x2="666.7" y2="313.4"/>
		<line class="st1" x1="279.2" y1="431.3" x2="658.5" y2="288.7"/>
		<line class="st1" x1="271.1" y1="406.7" x2="650.4" y2="264.1"/>
		<line class="st1" x1="261" y1="382.8" x2="640.4" y2="240.2"/>
		<line class="st1" x1="250.6" y1="357.8" x2="629.9" y2="215.2"/>
		<line class="st1" x1="242.4" y1="333.2" x2="621.8" y2="190.6"/>
		<line class="st1" x1="232.4" y1="309.3" x2="611.7" y2="166.7"/>
		<line class="st1" x1="733.8" y1="-111.5" x2="876.4" y2="267.8"/>
		<line class="st1" x1="758.8" y1="-122" x2="901.4" y2="257.3"/>
		<line class="st1" x1="784.1" y1="-128.3" x2="926.7" y2="251.1"/>
		<line class="st1" x1="808" y1="-138.3" x2="950.6" y2="241"/>
		<line class="st1" x1="831.9" y1="-148.3" x2="974.5" y2="231"/>
		<line class="st1" x1="856.9" y1="-158.8" x2="999.5" y2="220.6"/>
		<line class="st1" x1="882.2" y1="-165" x2="1024.8" y2="214.3"/>
		<line class="st1" x1="906.9" y1="-173.2" x2="1049.5" y2="206.1"/>
		<line class="st1" x1="540" y1="-37.7" x2="682.6" y2="341.6"/>
		<line class="st1" x1="565" y1="-48.2" x2="707.6" y2="331.2"/>
		<line class="st1" x1="589.6" y1="-56.3" x2="732.2" y2="323"/>
		<line class="st1" x1="614.2" y1="-64.5" x2="756.8" y2="314.9"/>
		<line class="st1" x1="638.2" y1="-74.5" x2="780.8" y2="304.8"/>
		<line class="st1" x1="663.1" y1="-84.9" x2="805.7" y2="294.4"/>
		<line class="st1" x1="687.7" y1="-93.1" x2="830.3" y2="286.2"/>
		<line class="st1" x1="711.7" y1="-103.1" x2="854.3" y2="276.2"/>
	</g>
</g>
<g>
	<defs>
		<path id="SVGID_7_" d="M566.7,683.7c32.9-26.2,55-60.2,74.3-96.3c2.3-4.3,1.3-6.8-2.2-9.7c-30.9-25-61.7-50.1-92.4-75.3
			c-3.3-2.7-6-3.4-9.5-0.5c-32.7,27.4-63,56.9-81.1,96.4c-9.3,20.3-12.2,41.2-2.4,62.5c18.4,39.9,67.8,53.7,104,28.9
			C560.7,687.7,563.9,685.6,566.7,683.7z"/>
	</defs>
	<clipPath id="SVGID_8_">
		<use xlink:href="#SVGID_7_"  style="overflow:visible;"/>
	</clipPath>
	<g class="st4">
		<line class="st1" x1="1106.6" y1="456.2" x2="727.3" y2="598.8"/>
		<line class="st1" x1="1117" y1="481.1" x2="737.7" y2="623.7"/>
		<line class="st1" x1="1123.3" y1="506.5" x2="744" y2="649.1"/>
		<line class="st1" x1="1133.3" y1="530.4" x2="754" y2="673"/>
		<line class="st1" x1="1143.4" y1="554.3" x2="764" y2="696.9"/>
		<line class="st1" x1="1153.8" y1="579.3" x2="774.5" y2="721.9"/>
		<line class="st1" x1="1160.1" y1="604.6" x2="780.8" y2="747.2"/>
		<line class="st1" x1="1168.2" y1="629.2" x2="788.9" y2="771.8"/>
		<line class="st1" x1="1032.8" y1="262.4" x2="653.4" y2="405"/>
		<line class="st1" x1="1043.2" y1="287.4" x2="663.9" y2="430"/>
		<line class="st1" x1="1051.4" y1="312" x2="672" y2="454.6"/>
		<line class="st1" x1="1059.5" y1="336.6" x2="680.2" y2="479.2"/>
		<line class="st1" x1="1069.5" y1="360.5" x2="690.2" y2="503.1"/>
		<line class="st1" x1="1080" y1="385.5" x2="700.7" y2="528.1"/>
		<line class="st1" x1="1088.2" y1="410.1" x2="708.8" y2="552.7"/>
		<line class="st1" x1="1098.2" y1="434" x2="718.8" y2="576.6"/>
		<line class="st1" x1="596.8" y1="854.8" x2="454.2" y2="475.5"/>
		<line class="st1" x1="571.8" y1="865.3" x2="429.2" y2="486"/>
		<line class="st1" x1="546.5" y1="871.6" x2="403.9" y2="492.2"/>
		<line class="st1" x1="522.6" y1="881.6" x2="380" y2="502.3"/>
		<line class="st1" x1="498.6" y1="891.6" x2="356" y2="512.3"/>
		<line class="st1" x1="473.7" y1="902.1" x2="331.1" y2="522.8"/>
		<line class="st1" x1="448.3" y1="908.4" x2="305.7" y2="529"/>
		<line class="st1" x1="423.7" y1="916.5" x2="281.1" y2="537.2"/>
		<line class="st1" x1="790.6" y1="781" x2="648" y2="401.7"/>
		<line class="st1" x1="765.6" y1="791.5" x2="623" y2="412.2"/>
		<line class="st1" x1="741" y1="799.6" x2="598.4" y2="420.3"/>
		<line class="st1" x1="716.3" y1="807.8" x2="573.7" y2="428.4"/>
		<line class="st1" x1="692.4" y1="817.8" x2="549.8" y2="438.5"/>
		<line class="st1" x1="667.5" y1="828.3" x2="524.9" y2="448.9"/>
		<line class="st1" x1="642.8" y1="836.4" x2="500.2" y2="457.1"/>
		<line class="st1" x1="618.9" y1="846.4" x2="476.3" y2="467.1"/>
	</g>
</g>
<g>
	<defs>
		<path id="SVGID_25_" d="M151.1,1284.5c25.9,120.5,92.2,216.5,180.7,298.9c35.3,32.9,59.1,74.4,84.8,114.4
			c17.4,27.2,38.6,49.6,68.6,62.6c27.8,12.1,55.7,16.9,82-2.1c26.7-19.3,33.3-46.9,28.8-78.5c-4.3-30.3-17-56.6-37.5-78.9
			c-10.4-11.4-21.2-22.6-33.3-32c-52.8-40.8-79.7-95.4-83.9-160.7c-5.7-89.1-45.1-160.7-107.8-221.8c-22.8-22.2-49.5-36.2-79.6-44.6
			c-7.7,0-15.4,0-23,0c-41.1,10.6-68.5,35.6-80.1,77.2C150.9,1240.8,151,1262.7,151.1,1284.5z"/>
	</defs>
	<clipPath id="SVGID_10_">
		<use xlink:href="#SVGID_25_"  style="overflow:visible;"/>
	</clipPath>
	<g class="st5">
		<path class="st17" d="M301.8,990.3c-18.8,9.6-40.2,8.5-60.2,14.1c-11.1,3.1-20.6,8.6-27.7,17.8c-6.5,8.4-10.6,18.4-16.5,27.2
			c-5.8,8.8-13,15.4-22.7,19.7c-11.8,5.2-24.7,8.5-37.3,11.2c-12.3,2.7-25.6,3.2-37.2,8.4c-11.9,5.3-18.5,16.6-25.6,26.9
			c-8,11.6-17.9,20.9-29.7,28.4c-11.7,7.4-25,14.2-38.1,18.7c-2.6,0.9-4.7-3.2-2.1-4.5c11.7-6.3,24.2-10.8,35.5-17.8
			c11-6.7,20.6-15,28.1-25.4c7-9.6,12.8-20.4,22.7-27.4c9.3-6.6,20.8-8.1,31.8-9.9c13.2-2.2,26.3-5.2,39-9.3
			c12.5-4,22.7-9.4,30.4-20.4c6.1-8.6,10.5-18.3,16.8-26.8c5.8-7.9,13.3-13.8,22.4-17.4c22.3-8.8,47.6-4.9,69.5-15
			C301.9,988.3,302.6,989.9,301.8,990.3z"/>
	</g>
</g>
</svg>
