<?xml version="1.0" encoding="utf-8"?>
<!-- Generator: Adobe Illustrator 22.1.0, SVG Export Plug-In . SVG Version: 6.00 Build 0)  -->
<svg version="1.1" id="Layer_1" xmlns="http://www.w3.org/2000/svg" xmlns:xlink="http://www.w3.org/1999/xlink" x="0px" y="0px"
	 viewBox="0 0 1200 1200" style="enable-background:new 0 0 1200 1200;" xml:space="preserve">
<style type="text/css">
	.st0{fill:#6DD1B9;}
	.st1{fill:#6DD1B9;stroke:#6DD1B9;stroke-width:5;stroke-miterlimit:10;}
	.st2{fill:#6DD1B9;stroke:#6DD1B9;stroke-width:3;stroke-miterlimit:10;}
	.st3{fill:#6DD1B9;stroke:#6DD1B9;stroke-width:9;stroke-miterlimit:10;}
	.st4{fill:#6DD1B9;stroke:#6DCDB8;stroke-width:8;stroke-miterlimit:10;}
	.st5{fill:#6DD1B9;stroke:#6DD1B9;stroke-width:4;stroke-miterlimit:10;}
	.st6{fill:none;stroke:#6DD1B9;stroke-width:21;stroke-miterlimit:10;}
	.st7{fill:none;stroke:#6DD1B9;stroke-width:20;stroke-miterlimit:10;}
	.st8{fill:#6DCDB8;stroke:#6DCDB8;stroke-width:8;stroke-miterlimit:10;}
	.st9{fill:#6DCDB8;stroke:#6DD1B9;stroke-width:7;stroke-miterlimit:10;}
	.st10{fill:#6DCDB8;stroke:#6DD1B9;stroke-width:8;stroke-miterlimit:10;}
</style>
<path class="st10" d="M654.8,556.5c23.5,85.8-14.4,174.2-86.9,218.3c2,5.8,4.2,11.5,6.7,17.1c80.9-47.7,123.6-145.3,97.6-240.2
	c-1.4-5.3-3.1-10.4-4.9-15.5c-5.5,2.7-10.9,5.6-16.1,8.8C652.6,548.8,653.8,552.6,654.8,556.5z"/>
<path class="st10" d="M517.9,796.3C414,824.7,306.4,763.3,278,659.4c-28.4-103.9,33-211.5,136.9-239.9c94-25.7,191,22.1,229.6,108.3
	c5.2-3.1,10.5-5.9,16-8.5C618,425.9,512.4,374.2,410.2,402.1c-113.5,31-180.6,148.6-149.6,262.1c31,113.5,148.6,180.6,262.1,149.6
	c12.6-3.4,24.6-7.9,36-13.4c-2.5-5.5-4.8-11.1-6.8-16.8C541.1,788.8,529.8,793.1,517.9,796.3z"/>
<path class="st10" d="M696.5,506c-12.6,3.4-24.6,7.9-36,13.4c2.5,5.5,4.8,11.1,6.8,16.8c10.7-5.2,22-9.5,33.9-12.7
	c103.9-28.4,211.5,33,239.9,136.9c28.4,103.9-33,211.5-136.9,239.9c-94,25.7-191-22.1-229.6-108.3c-5.2,3.1-10.5,5.9-16,8.5
	c42.6,93.5,148.2,145.2,250.4,117.3c113.5-31,180.6-148.6,149.6-262.1S810,475,696.5,506z"/>
<path class="st10" d="M651.3,545c-2-5.8-4.2-11.5-6.7-17.1C563.6,575.6,521,673.3,547,768.1c1.4,5.3,3.1,10.4,4.9,15.5
	c5.5-2.7,10.9-5.6,16.1-8.8c-1.3-3.8-2.5-7.6-3.5-11.5C541,677.5,578.8,589.1,651.3,545z"/>
</svg>
