<?xml version="1.0" encoding="utf-8"?>
<!-- Generator: Adobe Illustrator 22.1.0, SVG Export Plug-In . SVG Version: 6.00 Build 0)  -->
<svg version="1.1" id="Layer_1" xmlns="http://www.w3.org/2000/svg" xmlns:xlink="http://www.w3.org/1999/xlink" x="0px" y="0px"
	 viewBox="0 0 500 500" style="enable-background:new 0 0 500 500;" xml:space="preserve">
<style type="text/css">
	.st0{clip-path:url(#SVGID_2_);}
	.st1{fill:#F3F2F2;}
	.st2{clip-path:url(#SVGID_4_);}
	.st3{clip-path:url(#SVGID_6_);}
	.st4{fill:none;stroke:#F3F2F2;stroke-width:3;stroke-miterlimit:10;}
	.st5{clip-path:url(#SVGID_8_);}
	.st6{clip-path:url(#SVGID_10_);}
	.st7{clip-path:url(#SVGID_12_);}
	.st8{clip-path:url(#SVGID_14_);fill:none;}
	.st9{clip-path:url(#SVGID_14_);}
	.st10{fill:#F9F7F7;}
	.st11{clip-path:url(#SVGID_16_);}
	.st12{clip-path:url(#SVGID_18_);fill:none;}
	.st13{clip-path:url(#SVGID_18_);}
	.st14{clip-path:url(#SVGID_20_);}
	.st15{clip-path:url(#SVGID_22_);}
	.st16{clip-path:url(#SVGID_24_);}
	.st17{clip-path:url(#SVGID_26_);}
	.st18{clip-path:url(#SVGID_28_);}
	.st19{clip-path:url(#SVGID_30_);}
	.st20{clip-path:url(#SVGID_32_);}
	.st21{clip-path:url(#SVGID_34_);}
	.st22{fill:none;stroke:#F9F7F7;stroke-width:3;stroke-miterlimit:10;}
	.st23{clip-path:url(#SVGID_36_);}
	.st24{clip-path:url(#SVGID_36_);fill:#F9F7F7;}
	.st25{clip-path:url(#SVGID_38_);}
	.st26{clip-path:url(#SVGID_40_);}
	.st27{clip-path:url(#SVGID_40_);fill:#F9F7F7;}
	.st28{clip-path:url(#SVGID_42_);}
	.st29{clip-path:url(#SVGID_44_);}
	.st30{clip-path:url(#SVGID_46_);}
	.st31{clip-path:url(#SVGID_48_);}
	.st32{clip-path:url(#SVGID_48_);fill:#F9F7F7;}
	.st33{clip-path:url(#SVGID_50_);fill:none;}
	.st34{clip-path:url(#SVGID_50_);}
</style>
<g>
	<defs>
		<path id="SVGID_23_" d="M-192.6,411.2c-13.6-16.7-20.3-36.6-25.3-57.3c-0.6-2.5,0.3-3.7,2.6-4.9c20-10.4,40-20.9,60-31.5
			c2.1-1.1,3.7-1.3,5.1,0.6c13.3,17.3,25,35.5,28.8,58c1.9,11.5,0.4,22.8-7.9,33.1c-15.6,19.4-43.8,22.3-59.3,6
			C-190,413.9-191.4,412.5-192.6,411.2z"/>
	</defs>
	<clipPath id="SVGID_2_">
		<use xlink:href="#SVGID_23_"  style="overflow:visible;"/>
	</clipPath>
	<g class="st0">
		<line class="st4" x1="-253.3" y1="509.6" x2="4.1" y2="380.7"/>
		<line class="st4" x1="-246" y1="525.9" x2="11.4" y2="396.9"/>
		<line class="st4" x1="-238.3" y1="542.9" x2="19" y2="413.9"/>
		<line class="st4" x1="-231" y1="559.1" x2="26.3" y2="430.2"/>
		<line class="st4" x1="-223.7" y1="575.4" x2="33.6" y2="446.5"/>
	</g>
</g>
<g>
	<defs>
		<path id="SVGID_29_" d="M427.6,136.7c-24.1,80.1-74.6,141.2-139.5,191.7c-25.9,20.2-44.4,46.8-64.1,72.4
			c-13.4,17.4-29,31.3-50.3,38.3c-19.7,6.5-39,8.1-56-6.4c-17.3-14.7-20.3-33.9-15.6-55c4.6-20.3,14.7-37.3,29.8-51.2
			c7.7-7.1,15.7-14.1,24.5-19.7c38.3-24.4,59.6-59.8,65.9-103.9c8.6-60.1,39.4-106.3,85.5-143.8c16.8-13.7,35.8-21.5,56.9-25.4
			c5.3,0.5,10.5,0.9,15.8,1.4c27.6,9.7,45,28.3,50.8,57.2C430,107.1,428.8,121.9,427.6,136.7z"/>
	</defs>
	<clipPath id="SVGID_4_">
		<use xlink:href="#SVGID_29_"  style="overflow:visible;"/>
	</clipPath>
	<g class="st2">
		<polygon class="st10" points="83.4,50.4 84.9,46.2 465.4,181.8 463.9,186 		"/>
		<polygon class="st10" points="93.2,25.6 94.6,21.4 475.1,157.1 473.7,161.3 		"/>
		<polygon class="st10" points="98.8,0.6 100.2,-3.6 480.7,132 479.2,136.2 		"/>
		<polygon class="st10" points="108.1,-23.1 109.6,-27.3 490.1,108.3 488.6,112.5 		"/>
		<polygon class="st10" points="117.5,-46.8 118.9,-51 499.4,84.6 497.9,88.8 		"/>
		<polygon class="st10" points="127.2,-71.5 128.7,-75.7 509.2,59.9 507.7,64.1 		"/>
		<polygon class="st10" points="132.8,-96.6 134.3,-100.8 514.8,34.9 513.3,39.1 		"/>
		<polygon class="st10" points="140.3,-120.9 141.7,-125.1 522.2,10.5 520.7,14.7 		"/>
		<polygon class="st10" points="15,242.2 16.5,238 397,373.7 395.5,377.8 		"/>
		<polygon class="st10" points="24.8,217.5 26.2,213.3 406.7,348.9 405.3,353.1 		"/>
		<polygon class="st10" points="32.2,193.1 33.7,188.9 414.2,324.6 412.7,328.7 		"/>
		<polygon class="st10" points="39.7,168.7 41.2,164.6 421.7,300.2 420.2,304.4 		"/>
		<polygon class="st10" points="49.1,145 50.5,140.9 431,276.5 429.5,280.7 		"/>
		<polygon class="st10" points="58.8,120.3 60.3,116.1 440.8,251.8 439.3,256 		"/>
		<polygon class="st10" points="66.3,96 67.8,91.8 448.2,227.4 446.8,231.6 		"/>
		<polygon class="st10" points="75.6,72.3 77.1,68.1 457.6,203.7 456.1,207.9 		"/>
		<polygon class="st10" points="-49.5,434.7 -48.1,430.5 332.4,566.1 330.9,570.3 		"/>
		<polygon class="st10" points="-39.8,409.9 -38.3,405.7 342.2,541.4 340.7,545.6 		"/>
		<polygon class="st10" points="-34.2,384.9 -32.7,380.7 347.7,516.3 346.3,520.5 		"/>
		<polygon class="st10" points="-24.9,361.2 -23.4,357 357.1,492.6 355.6,496.8 		"/>
		<polygon class="st10" points="-15.5,337.5 -14,333.3 366.4,469 365,473.1 		"/>
		<polygon class="st10" points="-5.8,312.8 -4.3,308.6 376.2,444.2 374.7,448.4 		"/>
		<polygon class="st10" points="-0.2,287.7 1.3,283.5 381.8,419.2 380.3,423.4 		"/>
		<polygon class="st10" points="7.3,263.4 8.8,259.2 389.2,394.8 387.8,399 		"/>
		<polygon class="st10" points="-66.7,480.3 -65.2,476.1 315.3,611.7 313.8,615.9 		"/>
		<polygon class="st10" points="-57.3,456.6 -55.9,452.4 324.6,588 323.1,592.2 		"/>
	</g>
</g>
<g>
	<defs>
		<path id="SVGID_31_" d="M297.4-464c-69.5,46.5-113.5,112.2-143.5,188.7c-11.9,30.5-32.2,55.9-51,82.1
			c-12.8,17.8-21.7,36.7-22.4,59c-0.7,20.6,3.2,39.3,21.8,51.2c18.9,12.1,37.9,9.3,56.7-1.5c18-10.3,31.4-24.9,40.4-43.4
			c4.6-9.4,9-19,11.9-29c12.5-43.5,40.3-74.1,80.5-93.1c54.8-25.8,90.1-68.6,113-123.4c8.3-19.9,10.4-40.3,8.3-61.4
			c-1.9-4.8-3.8-9.7-5.8-14.5c-17-23.3-39.6-34.3-68.7-31.3C324.9-475.1,311.1-469.6,297.4-464z"/>
	</defs>
	<clipPath id="SVGID_6_">
		<use xlink:href="#SVGID_31_"  style="overflow:visible;"/>
	</clipPath>
	<g class="st3">
		
			<rect x="-20.6" y="-307.2" transform="matrix(0.8266 -0.5627 0.5627 0.8266 57.7378 -29.1117)" class="st10" width="4.4" height="397.9"/>
		
			<rect x="1.9" y="-321.4" transform="matrix(0.8266 -0.5627 0.5627 0.8266 69.588 -18.8938)" class="st10" width="4.4" height="397.9"/>
		
			<rect x="21.3" y="-338.2" transform="matrix(0.8266 -0.5627 0.5627 0.8266 82.3983 -10.9095)" class="st10" width="4.4" height="397.9"/>
		
			<rect x="42.8" y="-351.7" transform="matrix(0.8266 -0.5627 0.5627 0.8266 93.7549 -1.1172)" class="st10" width="4.4" height="397.9"/>
		
			<rect x="-104.4" y="-251.4" transform="matrix(0.8266 -0.5627 0.5627 0.8266 11.7859 -66.5909)" class="st10" width="4.4" height="397.9"/>
		
			<rect x="-81.9" y="-265.5" transform="matrix(0.8266 -0.5627 0.5627 0.8266 23.6362 -56.3732)" class="st10" width="4.4" height="397.9"/>
		
			<rect x="-61.4" y="-280.7" transform="matrix(0.8266 -0.5627 0.5627 0.8266 35.72 -47.4847)" class="st10" width="4.4" height="397.9"/>
		
			<rect x="-39.9" y="-294.2" transform="matrix(0.8266 -0.5627 0.5627 0.8266 47.0766 -37.6924)" class="st10" width="4.4" height="397.9"/>
	</g>
</g>
<g>
	<defs>
		<circle id="SVGID_37_" cx="-246.1" cy="800.7" r="85"/>
	</defs>
	<clipPath id="SVGID_8_">
		<use xlink:href="#SVGID_37_"  style="overflow:visible;"/>
	</clipPath>
	<g class="st5">
		<g>
			<line class="st22" x1="91.4" y1="372" x2="-189" y2="667.6"/>
			<line class="st22" x1="72.4" y1="352.6" x2="-208.1" y2="648.1"/>
			<line class="st22" x1="51.4" y1="336.8" x2="-229.1" y2="632.4"/>
			<line class="st22" x1="33.1" y1="318.2" x2="-247.3" y2="613.7"/>
			<line class="st22" x1="14.9" y1="299.6" x2="-265.5" y2="595.1"/>
			<line class="st22" x1="223" y1="496.7" x2="-57.5" y2="792.3"/>
			<line class="st22" x1="203.4" y1="479.6" x2="-77.1" y2="775.1"/>
			<line class="st22" x1="183.7" y1="462.4" x2="-96.7" y2="757.9"/>
			<line class="st22" x1="165.5" y1="443.7" x2="-115" y2="739.3"/>
			<line class="st22" x1="146.5" y1="424.3" x2="-134" y2="719.8"/>
			<line class="st22" x1="126.8" y1="407.1" x2="-153.6" y2="702.6"/>
			<line class="st22" x1="108.6" y1="388.5" x2="-171.8" y2="684"/>
		</g>
	</g>
</g>
<g>
	<defs>
		<path id="SVGID_49_" d="M226.4,817.6c-53.4-37.9-61-80.1-20.7-130.7c45.3-56.9,107.7-90,173.4-117.1c24.5-10.1,34.3,4.1,32.6,26.1
			c-5.4,69.6-18,137.9-54.2,198.8C326.6,847,277.8,854.1,226.4,817.6z"/>
	</defs>
	<clipPath id="SVGID_10_">
		<use xlink:href="#SVGID_49_"  style="overflow:visible;"/>
	</clipPath>
	<g class="st6">
		<path class="st1" d="M819,462.6c-1-0.8-2-1.7-3-2.5c-0.1,0.2-0.2,0.4-0.4,0.6c-14.2,22-43.7,28.2-65.7,14
			c-22-14.2-28.2-43.7-14-65.7c2.6-4.1,4.6-8.3,6-12.7c6.6-21.4-1.4-45.5-21.1-58.3c-19.7-12.8-45-10.3-61.8,4.5
			c-3.5,3-6.6,6.6-9.2,10.6c-14.2,22-43.7,28.2-65.7,14c-22-14.2-28.2-43.7-14-65.7c2.6-4.1,4.6-8.3,6-12.7
			c6.6-21.4-1.4-45.5-21.1-58.3s-45-10.3-61.8,4.5c-3.5,3-6.6,6.6-9.2,10.6c-14.2,22-43.7,28.2-65.7,14c-22-14.2-28.2-43.7-14-65.7
			c2.6-4.1,4.6-8.3,6-12.7c6.6-21.4-1.4-45.5-21.1-58.3c-23.6-15.3-55.1-8.7-70.6,14.6c1.1,0.7,2.1,1.5,3.2,2.2
			c14.4-21.6,43.5-27.6,65.3-13.5c22,14.2,28.2,43.7,14,65.7c-2.6,4.1-4.6,8.3-6,12.7c-6.6,21.4,1.4,45.5,21.1,58.3
			c19.7,12.8,45,10.3,61.8-4.5c3.5-3,6.6-6.6,9.2-10.6c14.2-22,43.7-28.2,65.7-14c22,14.2,28.2,43.7,14,65.7
			c-2.6,4.1-4.6,8.3-6,12.7c-6.6,21.4,1.4,45.5,21.1,58.3c19.7,12.8,45,10.3,61.8-4.5c3.5-3,6.6-6.6,9.2-10.6
			c14.2-22,43.7-28.2,65.7-14c22,14.2,28.2,43.7,14,65.7c-2.6,4.1-4.6,8.3-6,12.7c-6.6,21.4,1.4,45.5,21.1,58.3
			c23.8,15.4,55.6,8.6,71-15.1C818.9,462.8,818.9,462.7,819,462.6z"/>
		<path class="st1" d="M804.2,485.4c-1-0.8-2-1.7-3-2.5c-0.1,0.2-0.2,0.4-0.4,0.6c-14.2,22-43.7,28.2-65.7,14
			c-22-14.2-28.2-43.7-14-65.7c2.6-4.1,4.6-8.3,6-12.7c6.6-21.4-1.4-45.5-21.1-58.3c-19.7-12.8-45-10.3-61.8,4.5
			c-3.5,3-6.6,6.6-9.2,10.6c-14.2,22-43.7,28.2-65.7,14c-22-14.2-28.2-43.7-14-65.7c2.6-4.1,4.6-8.3,6-12.7
			c6.6-21.4-1.4-45.5-21.1-58.3s-45-10.3-61.8,4.5c-3.5,3-6.6,6.6-9.2,10.6c-14.2,22-43.7,28.2-65.7,14c-22-14.2-28.2-43.7-14-65.7
			c2.6-4.1,4.6-8.3,6-12.7c6.6-21.4-1.4-45.5-21.1-58.3c-23.6-15.3-55.1-8.7-70.6,14.6c1.1,0.7,2.1,1.5,3.2,2.2
			c14.4-21.6,43.5-27.6,65.3-13.5c22,14.2,28.2,43.7,14,65.7c-2.6,4.1-4.6,8.3-6,12.7c-6.6,21.4,1.4,45.5,21.1,58.3
			c19.7,12.8,45,10.3,61.8-4.5c3.5-3,6.6-6.6,9.2-10.6c14.2-22,43.7-28.2,65.7-14c22,14.2,28.2,43.7,14,65.7
			c-2.6,4.1-4.6,8.3-6,12.7c-6.6,21.4,1.4,45.5,21.1,58.3c19.7,12.8,45,10.3,61.8-4.5c3.5-3,6.6-6.6,9.2-10.6
			c14.2-22,43.7-28.2,65.7-14c22,14.2,28.2,43.7,14,65.7c-2.6,4.1-4.6,8.3-6,12.7c-6.6,21.4,1.4,45.5,21.1,58.3
			c23.8,15.4,55.6,8.6,71-15.1C804.1,485.5,804.2,485.4,804.2,485.4z"/>
		<path class="st1" d="M787.4,511.4c-1-0.8-2-1.7-3-2.5c-0.1,0.2-0.2,0.4-0.4,0.6c-14.2,22-43.7,28.2-65.7,14
			c-22-14.2-28.2-43.7-14-65.7c2.6-4.1,4.6-8.3,6-12.7c6.6-21.4-1.4-45.5-21.1-58.3c-19.7-12.8-45-10.3-61.8,4.5
			c-3.5,3-6.6,6.6-9.2,10.6c-14.2,22-43.7,28.2-65.7,14c-22-14.2-28.2-43.7-14-65.7c2.6-4.1,4.6-8.3,6-12.7
			c6.6-21.4-1.4-45.5-21.1-58.3s-45-10.3-61.8,4.5c-3.5,3-6.6,6.6-9.2,10.6c-14.2,22-43.7,28.2-65.7,14c-22-14.2-28.2-43.7-14-65.7
			c2.6-4.1,4.6-8.3,6-12.7c6.6-21.4-1.4-45.5-21.1-58.3c-23.6-15.3-55.1-8.7-70.6,14.6c1.1,0.7,2.1,1.5,3.2,2.2
			c14.4-21.6,43.5-27.6,65.3-13.5c22,14.2,28.2,43.7,14,65.7c-2.6,4.1-4.6,8.3-6,12.7c-6.6,21.4,1.4,45.5,21.1,58.3
			c19.7,12.8,45,10.3,61.8-4.5c3.5-3,6.6-6.6,9.2-10.6c14.2-22,43.7-28.2,65.7-14c22,14.2,28.2,43.7,14,65.7
			c-2.6,4.1-4.6,8.3-6,12.7c-6.6,21.4,1.4,45.5,21.1,58.3c19.7,12.8,45,10.3,61.8-4.5c3.5-3,6.6-6.6,9.2-10.6
			c14.2-22,43.7-28.2,65.7-14c22,14.2,28.2,43.7,14,65.7c-2.6,4.1-4.6,8.3-6,12.7c-6.6,21.4,1.4,45.5,21.1,58.3
			c23.8,15.4,55.6,8.6,71-15.1C787.3,511.5,787.3,511.4,787.4,511.4z"/>
		<path class="st1" d="M772.6,534.1c-1-0.8-2-1.7-3-2.5c-0.1,0.2-0.2,0.4-0.4,0.6c-14.2,22-43.7,28.2-65.7,14
			c-22-14.2-28.2-43.7-14-65.7c2.6-4.1,4.6-8.3,6-12.7c6.6-21.4-1.4-45.5-21.1-58.3c-19.7-12.8-45-10.3-61.8,4.5
			c-3.5,3-6.6,6.6-9.2,10.6c-14.2,22-43.7,28.2-65.7,14c-22-14.2-28.2-43.7-14-65.7c2.6-4.1,4.6-8.3,6-12.7
			c6.6-21.4-1.4-45.5-21.1-58.3c-19.7-12.8-45-10.3-61.8,4.5c-3.5,3-6.6,6.6-9.2,10.6c-14.2,22-43.7,28.2-65.7,14
			c-22-14.2-28.2-43.7-14-65.7c2.6-4.1,4.6-8.3,6-12.7c6.6-21.4-1.4-45.5-21.1-58.3c-23.6-15.3-55.1-8.7-70.6,14.6
			c1.1,0.7,2.1,1.5,3.2,2.2c14.4-21.6,43.5-27.6,65.3-13.5c22,14.2,28.2,43.7,14,65.7c-2.6,4.1-4.6,8.3-6,12.7
			c-6.6,21.4,1.4,45.5,21.1,58.3c19.7,12.8,45,10.3,61.8-4.5c3.5-3,6.6-6.6,9.2-10.6c14.2-22,43.7-28.2,65.7-14
			c22,14.2,28.2,43.7,14,65.7c-2.6,4.1-4.6,8.3-6,12.7c-6.6,21.4,1.4,45.5,21.1,58.3c19.7,12.8,45,10.3,61.8-4.5
			c3.5-3,6.6-6.6,9.2-10.6c14.2-22,43.7-28.2,65.7-14c22,14.2,28.2,43.7,14,65.7c-2.6,4.1-4.6,8.3-6,12.7
			c-6.6,21.4,1.4,45.5,21.1,58.3c23.8,15.4,55.6,8.6,71-15.1C772.5,534.3,772.6,534.2,772.6,534.1z"/>
		<path class="st1" d="M753.6,563.4c-1-0.8-2-1.7-3-2.5c-0.1,0.2-0.2,0.4-0.4,0.6c-14.2,22-43.7,28.2-65.7,14
			c-22-14.2-28.2-43.7-14-65.7c2.6-4.1,4.6-8.3,6-12.7c6.6-21.4-1.4-45.5-21.1-58.3c-19.7-12.8-45-10.3-61.8,4.5
			c-3.5,3-6.6,6.6-9.2,10.6c-14.2,22-43.7,28.2-65.7,14c-22-14.2-28.2-43.7-14-65.7c2.6-4.1,4.6-8.3,6-12.7
			c6.6-21.4-1.4-45.5-21.1-58.3c-19.7-12.8-45-10.3-61.8,4.5c-3.5,3-6.6,6.6-9.2,10.6c-14.2,22-43.7,28.2-65.7,14
			c-22-14.2-28.2-43.7-14-65.7c2.6-4.1,4.6-8.3,6-12.7c6.6-21.4-1.4-45.5-21.1-58.3c-23.6-15.3-55.1-8.7-70.6,14.6
			c1.1,0.7,2.1,1.5,3.2,2.2c14.4-21.6,43.5-27.6,65.3-13.5c22,14.2,28.2,43.7,14,65.7c-2.6,4.1-4.6,8.3-6,12.7
			c-6.6,21.4,1.4,45.5,21.1,58.3c19.7,12.8,45,10.3,61.8-4.5c3.5-3,6.6-6.6,9.2-10.6c14.2-22,43.7-28.2,65.7-14
			c22,14.2,28.2,43.7,14,65.7c-2.6,4.1-4.6,8.3-6,12.7c-6.6,21.4,1.4,45.5,21.1,58.3c19.7,12.8,45,10.3,61.8-4.5
			c3.5-3,6.6-6.6,9.2-10.6c14.2-22,43.7-28.2,65.7-14c22,14.2,28.2,43.7,14,65.7c-2.6,4.1-4.6,8.3-6,12.7
			c-6.6,21.4,1.4,45.5,21.1,58.3c23.8,15.4,55.6,8.6,71-15.1C753.5,563.5,753.6,563.5,753.6,563.4z"/>
		<path class="st1" d="M739.9,584.5c-1-0.8-2-1.7-3-2.5c-0.1,0.2-0.2,0.4-0.4,0.6c-14.2,22-43.7,28.2-65.7,14s-28.2-43.7-14-65.7
			c2.6-4.1,4.6-8.3,6-12.7c6.6-21.4-1.4-45.5-21.1-58.3c-19.7-12.8-45-10.3-61.8,4.5c-3.5,3-6.6,6.6-9.2,10.6
			c-14.2,22-43.7,28.2-65.7,14c-22-14.2-28.2-43.7-14-65.7c2.6-4.1,4.6-8.3,6-12.7c6.6-21.4-1.4-45.5-21.1-58.3
			c-19.7-12.8-45-10.3-61.8,4.5c-3.5,3-6.6,6.6-9.2,10.6c-14.2,22-43.7,28.2-65.7,14c-22-14.2-28.2-43.7-14-65.7
			c2.6-4.1,4.6-8.3,6-12.7c6.6-21.4-1.4-45.5-21.1-58.3c-23.6-15.3-55.1-8.7-70.6,14.6c1.1,0.7,2.1,1.5,3.2,2.2
			c14.4-21.6,43.5-27.6,65.3-13.5c22,14.2,28.2,43.7,14,65.7c-2.6,4.1-4.6,8.3-6,12.7c-6.6,21.4,1.4,45.5,21.1,58.3
			c19.7,12.8,45,10.3,61.8-4.5c3.5-3,6.6-6.6,9.2-10.6c14.2-22,43.7-28.2,65.7-14c22,14.2,28.2,43.7,14,65.7
			c-2.6,4.1-4.6,8.3-6,12.7c-6.6,21.4,1.4,45.5,21.1,58.3s45,10.3,61.8-4.5c3.5-3,6.6-6.6,9.2-10.6c14.2-22,43.7-28.2,65.7-14
			s28.2,43.7,14,65.7c-2.6,4.1-4.6,8.3-6,12.7c-6.6,21.4,1.4,45.5,21.1,58.3c23.8,15.4,55.6,8.6,71-15.1
			C739.8,584.7,739.9,584.6,739.9,584.5z"/>
		<path class="st1" d="M726.2,605.7c-1-0.8-2-1.7-3-2.5c-0.1,0.2-0.2,0.4-0.4,0.6c-14.2,22-43.7,28.2-65.7,14
			c-22-14.2-28.2-43.7-14-65.7c2.6-4.1,4.6-8.3,6-12.7c6.6-21.4-1.4-45.5-21.1-58.3s-45-10.3-61.8,4.5c-3.5,3-6.6,6.6-9.2,10.6
			c-14.2,22-43.7,28.2-65.7,14c-22-14.2-28.2-43.7-14-65.7c2.6-4.1,4.6-8.3,6-12.7c6.6-21.4-1.4-45.5-21.1-58.3
			c-19.7-12.8-45-10.3-61.8,4.5c-3.5,3-6.6,6.6-9.2,10.6c-14.2,22-43.7,28.2-65.7,14c-22-14.2-28.2-43.7-14-65.7
			c2.6-4.1,4.6-8.3,6-12.7c6.6-21.4-1.4-45.5-21.1-58.3c-23.6-15.3-55.1-8.7-70.6,14.6c1.1,0.7,2.1,1.5,3.2,2.2
			c14.4-21.6,43.5-27.6,65.3-13.5c22,14.2,28.2,43.7,14,65.7c-2.6,4.1-4.6,8.3-6,12.7c-6.6,21.4,1.4,45.5,21.1,58.3
			c19.7,12.8,45,10.3,61.8-4.5c3.5-3,6.6-6.6,9.2-10.6c14.2-22,43.7-28.2,65.7-14c22,14.2,28.2,43.7,14,65.7
			c-2.6,4.1-4.6,8.3-6,12.7c-6.6,21.4,1.4,45.5,21.1,58.3c19.7,12.8,45,10.3,61.8-4.5c3.5-3,6.6-6.6,9.2-10.6
			c14.2-22,43.7-28.2,65.7-14c22,14.2,28.2,43.7,14,65.7c-2.6,4.1-4.6,8.3-6,12.7c-6.6,21.4,1.4,45.5,21.1,58.3
			c23.8,15.4,55.6,8.6,71-15.1C726.1,605.8,726.2,605.7,726.2,605.7z"/>
		<path class="st1" d="M710.4,630c-1-0.8-2-1.7-3-2.5c-0.1,0.2-0.2,0.4-0.4,0.6c-14.2,22-43.7,28.2-65.7,14
			c-22-14.2-28.2-43.7-14-65.7c2.6-4.1,4.6-8.3,6-12.7c6.6-21.4-1.4-45.5-21.1-58.3c-19.7-12.8-45-10.3-61.8,4.5
			c-3.5,3-6.6,6.6-9.2,10.6c-14.2,22-43.7,28.2-65.7,14c-22-14.2-28.2-43.7-14-65.7c2.6-4.1,4.6-8.3,6-12.7
			c6.6-21.4-1.4-45.5-21.1-58.3c-19.7-12.8-45-10.3-61.8,4.5c-3.5,3-6.6,6.6-9.2,10.6c-14.2,22-43.7,28.2-65.7,14
			c-22-14.2-28.2-43.7-14-65.7c2.6-4.1,4.6-8.3,6-12.7c6.6-21.4-1.4-45.5-21.1-58.3c-23.6-15.3-55.1-8.7-70.6,14.6
			c1.1,0.7,2.1,1.5,3.2,2.2c14.4-21.6,43.5-27.6,65.3-13.5c22,14.2,28.2,43.7,14,65.7c-2.6,4.1-4.6,8.3-6,12.7
			c-6.6,21.4,1.4,45.5,21.1,58.3c19.7,12.8,45,10.3,61.8-4.5c3.5-3,6.6-6.6,9.2-10.6c14.2-22,43.7-28.2,65.7-14
			c22,14.2,28.2,43.7,14,65.7c-2.6,4.1-4.6,8.3-6,12.7c-6.6,21.4,1.4,45.5,21.1,58.3c19.7,12.8,45,10.3,61.8-4.5
			c3.5-3,6.6-6.6,9.2-10.6c14.2-22,43.7-28.2,65.7-14c22,14.2,28.2,43.7,14,65.7c-2.6,4.1-4.6,8.3-6,12.7
			c-6.6,21.4,1.4,45.5,21.1,58.3c23.8,15.4,55.6,8.6,71-15.1C710.3,630.2,710.4,630.1,710.4,630z"/>
		<path class="st1" d="M694.6,654.4c-1-0.8-2-1.7-3-2.5c-0.1,0.2-0.2,0.4-0.4,0.6c-14.2,22-43.7,28.2-65.7,14s-28.2-43.7-14-65.7
			c2.6-4.1,4.6-8.3,6-12.7c6.6-21.4-1.4-45.5-21.1-58.3s-45-10.3-61.8,4.5c-3.5,3-6.6,6.6-9.2,10.6c-14.2,22-43.7,28.2-65.7,14
			c-22-14.2-28.2-43.7-14-65.7c2.6-4.1,4.6-8.3,6-12.7c6.6-21.4-1.4-45.5-21.1-58.3s-45-10.3-61.8,4.5c-3.5,3-6.6,6.6-9.2,10.6
			c-14.2,22-43.7,28.2-65.7,14c-22-14.2-28.2-43.7-14-65.7c2.6-4.1,4.6-8.3,6-12.7c6.6-21.4-1.4-45.5-21.1-58.3
			c-23.6-15.3-55.1-8.7-70.6,14.6c1.1,0.7,2.1,1.5,3.2,2.2c14.4-21.6,43.5-27.6,65.3-13.5c22,14.2,28.2,43.7,14,65.7
			c-2.6,4.1-4.6,8.3-6,12.7c-6.6,21.4,1.4,45.5,21.1,58.3c19.7,12.8,45,10.3,61.8-4.5c3.5-3,6.6-6.6,9.2-10.6
			c14.2-22,43.7-28.2,65.7-14c22,14.2,28.2,43.7,14,65.7c-2.6,4.1-4.6,8.3-6,12.7c-6.6,21.4,1.4,45.5,21.1,58.3
			c19.7,12.8,45,10.3,61.8-4.5c3.5-3,6.6-6.6,9.2-10.6c14.2-22,43.7-28.2,65.7-14s28.2,43.7,14,65.7c-2.6,4.1-4.6,8.3-6,12.7
			c-6.6,21.4,1.4,45.5,21.1,58.3c23.8,15.4,55.6,8.6,71-15.1C694.5,654.6,694.6,654.5,694.6,654.4z"/>
		<path class="st1" d="M678.8,678.8c-1-0.8-2-1.7-3-2.5c-0.1,0.2-0.2,0.4-0.4,0.6c-14.2,22-43.7,28.2-65.7,14
			c-22-14.2-28.2-43.7-14-65.7c2.6-4.1,4.6-8.3,6-12.7c6.6-21.4-1.4-45.5-21.1-58.3s-45-10.3-61.8,4.5c-3.5,3-6.6,6.6-9.2,10.6
			c-14.2,22-43.7,28.2-65.7,14c-22-14.2-28.2-43.7-14-65.7c2.6-4.1,4.6-8.3,6-12.7c6.6-21.4-1.4-45.5-21.1-58.3
			c-19.7-12.8-45-10.3-61.8,4.5c-3.5,3-6.6,6.6-9.2,10.6c-14.2,22-43.7,28.2-65.7,14c-22-14.2-28.2-43.7-14-65.7
			c2.6-4.1,4.6-8.3,6-12.7c6.6-21.4-1.4-45.5-21.1-58.3c-23.6-15.3-55.1-8.7-70.6,14.6c1.1,0.7,2.1,1.5,3.2,2.2
			c14.4-21.6,43.5-27.6,65.3-13.5c22,14.2,28.2,43.7,14,65.7c-2.6,4.1-4.6,8.3-6,12.7c-6.6,21.4,1.4,45.5,21.1,58.3
			c19.7,12.8,45,10.3,61.8-4.5c3.5-3,6.6-6.6,9.2-10.6c14.2-22,43.7-28.2,65.7-14c22,14.2,28.2,43.7,14,65.7
			c-2.6,4.1-4.6,8.3-6,12.7c-6.6,21.4,1.4,45.5,21.1,58.3s45,10.3,61.8-4.5c3.5-3,6.6-6.6,9.2-10.6c14.2-22,43.7-28.2,65.7-14
			c22,14.2,28.2,43.7,14,65.7c-2.6,4.1-4.6,8.3-6,12.7c-6.6,21.4,1.4,45.5,21.1,58.3c23.8,15.4,55.6,8.6,71-15.1
			C678.7,678.9,678.7,678.9,678.8,678.8z"/>
		<path class="st1" d="M665.1,699.9c-1-0.8-2-1.7-3-2.5c-0.1,0.2-0.2,0.4-0.4,0.6c-14.2,22-43.7,28.2-65.7,14
			c-22-14.2-28.2-43.7-14-65.7c2.6-4.1,4.6-8.3,6-12.7c6.6-21.4-1.4-45.5-21.1-58.3c-19.7-12.8-45-10.3-61.8,4.5
			c-3.5,3-6.6,6.6-9.2,10.6c-14.2,22-43.7,28.2-65.7,14c-22-14.2-28.2-43.7-14-65.7c2.6-4.1,4.6-8.3,6-12.7
			c6.6-21.4-1.4-45.5-21.1-58.3c-19.7-12.8-45-10.3-61.8,4.5c-3.5,3-6.6,6.6-9.2,10.6c-14.2,22-43.7,28.2-65.7,14
			c-22-14.2-28.2-43.7-14-65.7c2.6-4.1,4.6-8.3,6-12.7c6.6-21.4-1.4-45.5-21.1-58.3c-23.6-15.3-55.1-8.7-70.6,14.6
			c1.1,0.7,2.1,1.5,3.2,2.2c14.4-21.6,43.5-27.6,65.3-13.5c22,14.2,28.2,43.7,14,65.7c-2.6,4.1-4.6,8.3-6,12.7
			c-6.6,21.4,1.4,45.5,21.1,58.3c19.7,12.8,45,10.3,61.8-4.5c3.5-3,6.6-6.6,9.2-10.6c14.2-22,43.7-28.2,65.7-14
			c22,14.2,28.2,43.7,14,65.7c-2.6,4.1-4.6,8.3-6,12.7c-6.6,21.4,1.4,45.5,21.1,58.3c19.7,12.8,45,10.3,61.8-4.5
			c3.5-3,6.6-6.6,9.2-10.6c14.2-22,43.7-28.2,65.7-14c22,14.2,28.2,43.7,14,65.7c-2.6,4.1-4.6,8.3-6,12.7
			c-6.6,21.4,1.4,45.5,21.1,58.3c23.8,15.4,55.6,8.6,71-15.1C665,700.1,665,700,665.1,699.9z"/>
		<path class="st1" d="M647.2,727.6c-1-0.8-2-1.7-3-2.5c-0.1,0.2-0.2,0.4-0.4,0.6c-14.2,22-43.7,28.2-65.7,14
			c-22-14.2-28.2-43.7-14-65.7c2.6-4.1,4.6-8.3,6-12.7c6.6-21.4-1.4-45.5-21.1-58.3c-19.7-12.8-45-10.3-61.8,4.5
			c-3.5,3-6.6,6.6-9.2,10.6c-14.2,22-43.7,28.2-65.7,14c-22-14.2-28.2-43.7-14-65.7c2.6-4.1,4.6-8.3,6-12.7
			c6.6-21.4-1.4-45.5-21.1-58.3c-19.7-12.8-45-10.3-61.8,4.5c-3.5,3-6.6,6.6-9.2,10.6c-14.2,22-43.7,28.2-65.7,14
			c-22-14.2-28.2-43.7-14-65.7c2.6-4.1,4.6-8.3,6-12.7c6.6-21.4-1.4-45.5-21.1-58.3c-23.6-15.3-55.1-8.7-70.6,14.6
			c1.1,0.7,2.1,1.5,3.2,2.2c14.4-21.6,43.5-27.6,65.3-13.5c22,14.2,28.2,43.7,14,65.7c-2.6,4.1-4.6,8.3-6,12.7
			c-6.6,21.4,1.4,45.5,21.1,58.3c19.7,12.8,45,10.3,61.8-4.5c3.5-3,6.6-6.6,9.2-10.6c14.2-22,43.7-28.2,65.7-14
			c22,14.2,28.2,43.7,14,65.7c-2.6,4.1-4.6,8.3-6,12.7c-6.6,21.4,1.4,45.5,21.1,58.3c19.7,12.8,45,10.3,61.8-4.5
			c3.5-3,6.6-6.6,9.2-10.6c14.2-22,43.7-28.2,65.7-14c22,14.2,28.2,43.7,14,65.7c-2.6,4.1-4.6,8.3-6,12.7
			c-6.6,21.4,1.4,45.5,21.1,58.3c23.8,15.4,55.6,8.6,71-15.1C647.1,727.7,647.1,727.6,647.2,727.6z"/>
		<path class="st1" d="M632.4,750.3c-1-0.8-2-1.7-3-2.5c-0.1,0.2-0.2,0.4-0.4,0.6c-14.2,22-43.7,28.2-65.7,14s-28.2-43.7-14-65.7
			c2.6-4.1,4.6-8.3,6-12.7c6.6-21.4-1.4-45.5-21.1-58.3s-45-10.3-61.8,4.5c-3.5,3-6.6,6.6-9.2,10.6c-14.2,22-43.7,28.2-65.7,14
			c-22-14.2-28.2-43.7-14-65.7c2.6-4.1,4.6-8.3,6-12.7c6.6-21.4-1.4-45.5-21.1-58.3c-19.7-12.8-45-10.3-61.8,4.5
			c-3.5,3-6.6,6.6-9.2,10.6c-14.2,22-43.7,28.2-65.7,14s-28.2-43.7-14-65.7c2.6-4.1,4.6-8.3,6-12.7c6.6-21.4-1.4-45.5-21.1-58.3
			c-23.6-15.3-55.1-8.7-70.6,14.6c1.1,0.7,2.1,1.5,3.2,2.2c14.4-21.6,43.5-27.6,65.3-13.5c22,14.2,28.2,43.7,14,65.7
			c-2.6,4.1-4.6,8.3-6,12.7c-6.6,21.4,1.4,45.5,21.1,58.3s45,10.3,61.8-4.5c3.5-3,6.6-6.6,9.2-10.6c14.2-22,43.7-28.2,65.7-14
			c22,14.2,28.2,43.7,14,65.7c-2.6,4.1-4.6,8.3-6,12.7c-6.6,21.4,1.4,45.5,21.1,58.3c19.7,12.8,45,10.3,61.8-4.5
			c3.5-3,6.6-6.6,9.2-10.6c14.2-22,43.7-28.2,65.7-14c22,14.2,28.2,43.7,14,65.7c-2.6,4.1-4.6,8.3-6,12.7
			c-6.6,21.4,1.4,45.5,21.1,58.3c23.8,15.4,55.6,8.6,71-15.1C632.3,750.5,632.4,750.4,632.4,750.3z"/>
		<path class="st1" d="M617.6,773.1c-1-0.8-2-1.7-3-2.5c-0.1,0.2-0.2,0.4-0.4,0.6c-14.2,22-43.7,28.2-65.7,14s-28.2-43.7-14-65.7
			c2.6-4.1,4.6-8.3,6-12.7c6.6-21.4-1.4-45.5-21.1-58.3s-45-10.3-61.8,4.5c-3.5,3-6.6,6.6-9.2,10.6c-14.2,22-43.7,28.2-65.7,14
			c-22-14.2-28.2-43.7-14-65.7c2.6-4.1,4.6-8.3,6-12.7c6.6-21.4-1.4-45.5-21.1-58.3c-19.7-12.8-45-10.3-61.8,4.5
			c-3.5,3-6.6,6.6-9.2,10.6c-14.2,22-43.7,28.2-65.7,14s-28.2-43.7-14-65.7c2.6-4.1,4.6-8.3,6-12.7c6.6-21.4-1.4-45.5-21.1-58.3
			c-23.6-15.3-55.1-8.7-70.6,14.6c1.1,0.7,2.1,1.5,3.2,2.2c14.4-21.6,43.5-27.6,65.3-13.5c22,14.2,28.2,43.7,14,65.7
			c-2.6,4.1-4.6,8.3-6,12.7c-6.6,21.4,1.4,45.5,21.1,58.3s45,10.3,61.8-4.5c3.5-3,6.6-6.6,9.2-10.6c14.2-22,43.7-28.2,65.7-14
			c22,14.2,28.2,43.7,14,65.7c-2.6,4.1-4.6,8.3-6,12.7c-6.6,21.4,1.4,45.5,21.1,58.3s45,10.3,61.8-4.5c3.5-3,6.6-6.6,9.2-10.6
			c14.2-22,43.7-28.2,65.7-14s28.2,43.7,14,65.7c-2.6,4.1-4.6,8.3-6,12.7c-6.6,21.4,1.4,45.5,21.1,58.3c23.8,15.4,55.6,8.6,71-15.1
			C617.5,773.2,617.6,773.1,617.6,773.1z"/>
		<path class="st1" d="M598.7,802.3c-1-0.8-2-1.7-3-2.5c-0.1,0.2-0.2,0.4-0.4,0.6c-14.2,22-43.7,28.2-65.7,14s-28.2-43.7-14-65.7
			c2.6-4.1,4.6-8.3,6-12.7c6.6-21.4-1.4-45.5-21.1-58.3c-19.7-12.8-45-10.3-61.8,4.5c-3.5,3-6.6,6.6-9.2,10.6
			c-14.2,22-43.7,28.2-65.7,14c-22-14.2-28.2-43.7-14-65.7c2.6-4.1,4.6-8.3,6-12.7c6.6-21.4-1.4-45.5-21.1-58.3
			c-19.7-12.8-45-10.3-61.8,4.5c-3.5,3-6.6,6.6-9.2,10.6c-14.2,22-43.7,28.2-65.7,14c-22-14.2-28.2-43.7-14-65.7
			c2.6-4.1,4.6-8.3,6-12.7c6.6-21.4-1.4-45.5-21.1-58.3c-23.6-15.3-55.1-8.7-70.6,14.6c1.1,0.7,2.1,1.5,3.2,2.2
			c14.4-21.6,43.5-27.6,65.3-13.5c22,14.2,28.2,43.7,14,65.7c-2.6,4.1-4.6,8.3-6,12.7c-6.6,21.4,1.4,45.5,21.1,58.3
			s45,10.3,61.8-4.5c3.5-3,6.6-6.6,9.2-10.6c14.2-22,43.7-28.2,65.7-14c22,14.2,28.2,43.7,14,65.7c-2.6,4.1-4.6,8.3-6,12.7
			c-6.6,21.4,1.4,45.5,21.1,58.3c19.7,12.8,45,10.3,61.8-4.5c3.5-3,6.6-6.6,9.2-10.6c14.2-22,43.7-28.2,65.7-14
			c22,14.2,28.2,43.7,14,65.7c-2.6,4.1-4.6,8.3-6,12.7c-6.6,21.4,1.4,45.5,21.1,58.3c23.8,15.4,55.6,8.6,71-15.1
			C598.6,802.5,598.6,802.4,598.7,802.3z"/>
		<path class="st1" d="M580.7,830c-1-0.8-2-1.7-3-2.5c-0.1,0.2-0.2,0.4-0.4,0.6c-14.2,22-43.7,28.2-65.7,14
			c-22-14.2-28.2-43.7-14-65.7c2.6-4.1,4.6-8.3,6-12.7c6.6-21.4-1.4-45.5-21.1-58.3c-19.7-12.8-45-10.3-61.8,4.5
			c-3.5,3-6.6,6.6-9.2,10.6c-14.2,22-43.7,28.2-65.7,14c-22-14.2-28.2-43.7-14-65.7c2.6-4.1,4.6-8.3,6-12.7
			c6.6-21.4-1.4-45.5-21.1-58.3c-19.7-12.8-45-10.3-61.8,4.5c-3.5,3-6.6,6.6-9.2,10.6c-14.2,22-43.7,28.2-65.7,14
			c-22-14.2-28.2-43.7-14-65.7c2.6-4.1,4.6-8.3,6-12.7c6.6-21.4-1.4-45.5-21.1-58.3c-23.6-15.3-55.1-8.7-70.6,14.6
			c1.1,0.7,2.1,1.5,3.2,2.2c14.4-21.6,43.5-27.6,65.3-13.5c22,14.2,28.2,43.7,14,65.7c-2.6,4.1-4.6,8.3-6,12.7
			c-6.6,21.4,1.4,45.5,21.1,58.3c19.7,12.8,45,10.3,61.8-4.5c3.5-3,6.6-6.6,9.2-10.6c14.2-22,43.7-28.2,65.7-14
			c22,14.2,28.2,43.7,14,65.7c-2.6,4.1-4.6,8.3-6,12.7c-6.6,21.4,1.4,45.5,21.1,58.3c19.7,12.8,45,10.3,61.8-4.5
			c3.5-3,6.6-6.6,9.2-10.6c14.2-22,43.7-28.2,65.7-14c22,14.2,28.2,43.7,14,65.7c-2.6,4.1-4.6,8.3-6,12.7
			c-6.6,21.4,1.4,45.5,21.1,58.3c23.8,15.4,55.6,8.6,71-15.1C580.7,830.1,580.7,830,580.7,830z"/>
	</g>
</g>
</svg>
