<?xml version="1.0" encoding="utf-8"?>
<!-- Generator: Adobe Illustrator 22.1.0, SVG Export Plug-In . SVG Version: 6.00 Build 0)  -->
<svg version="1.1" id="Layer_1" xmlns="http://www.w3.org/2000/svg" xmlns:xlink="http://www.w3.org/1999/xlink" x="0px" y="0px"
	 viewBox="0 0 1200 1200" style="enable-background:new 0 0 1200 1200;" xml:space="preserve">
<style type="text/css">
	.st0{fill:#6DD1B9;}
	.st1{fill:#6DD1B9;stroke:#6DD1B9;stroke-width:5;stroke-miterlimit:10;}
	.st2{fill:#6DD1B9;stroke:#6DD1B9;stroke-width:3;stroke-miterlimit:10;}
	.st3{fill:#6DD1B9;stroke:#6DD1B9;stroke-width:9;stroke-miterlimit:10;}
	.st4{fill:#6DD1B9;stroke:#6DCDB8;stroke-width:8;stroke-miterlimit:10;}
	.st5{fill:#6DD1B9;stroke:#6DD1B9;stroke-width:4;stroke-miterlimit:10;}
	.st6{fill:none;stroke:#6DD1B9;stroke-width:21;stroke-miterlimit:10;}
	.st7{fill:none;stroke:#6DD1B9;stroke-width:20;stroke-miterlimit:10;}
	.st8{fill:#6DCDB8;stroke:#6DCDB8;stroke-width:8;stroke-miterlimit:10;}
	.st9{fill:#6DCDB8;stroke:#6DD1B9;stroke-width:7;stroke-miterlimit:10;}
	.st10{fill:#6DCDB8;stroke:#6DD1B9;stroke-width:8;stroke-miterlimit:10;}
</style>
<path class="st4" d="M1029.2,942L909.2,453.2c-6.7-27.2-30.9-46.2-58.8-46.2H765V300.5c0-71.7-58.3-130-130-130s-130,58.3-130,130
	V407h-83.5c-27.9,0-52.1,18.9-58.8,46L241.1,941.8c-4.5,18.2-0.5,37.2,11.1,51.9c11.6,14.8,29,23.3,47.7,23.3h670.4
	c18.7,0,36.1-8.5,47.7-23.2C1029.5,979.1,1033.6,960.2,1029.2,942z M520,300.5c0-63.4,51.6-115,115-115s115,51.6,115,115V407H520
	V300.5z M1005.6,985.3c-8.8,10.8-22.2,16.7-36.1,16.7H299.9c-14.1,0-27.2-6.4-35.9-17.5c-8.7-11.1-11.7-25.4-8.3-39.1l121.6-488.8
	c5.1-20.4,23.3-34.6,44.2-34.6H505v33.2c0,8.2,6.5,15,14.8,15.3l0.2,0V422h230v34.5c0,7.9,7.1,13.8,14.8,12.4l0.2,0V422h85.4
	c21.1,0,39.3,14.3,44.3,34.7l119.9,488.8C1018,959.5,1014.7,974.1,1005.6,985.3z"/>
</svg>
