<?xml version="1.0" encoding="utf-8"?>
<!-- Generator: Adobe Illustrator 22.1.0, SVG Export Plug-In . SVG Version: 6.00 Build 0)  -->
<svg version="1.1" id="Layer_1" xmlns="http://www.w3.org/2000/svg" xmlns:xlink="http://www.w3.org/1999/xlink" x="0px" y="0px"
	 viewBox="0 0 1200 1200" style="enable-background:new 0 0 1200 1200;" xml:space="preserve">
<style type="text/css">
	.st0{fill:#6DD1B9;}
	.st1{fill:#6DD1B9;stroke:#6DD1B9;stroke-width:5;stroke-miterlimit:10;}
	.st2{fill:#6DD1B9;stroke:#6DD1B9;stroke-width:3;stroke-miterlimit:10;}
	.st3{fill:#6DD1B9;stroke:#6DD1B9;stroke-width:9;stroke-miterlimit:10;}
	.st4{fill:#6DD1B9;stroke:#6DCDB8;stroke-width:8;stroke-miterlimit:10;}
	.st5{fill:#6DD1B9;stroke:#6DD1B9;stroke-width:4;stroke-miterlimit:10;}
	.st6{fill:none;stroke:#6DD1B9;stroke-width:21;stroke-miterlimit:10;}
	.st7{fill:none;stroke:#6DD1B9;stroke-width:20;stroke-miterlimit:10;}
	.st8{fill:#6DCDB8;stroke:#6DCDB8;stroke-width:8;stroke-miterlimit:10;}
	.st9{fill:#6DCDB8;stroke:#6DD1B9;stroke-width:7;stroke-miterlimit:10;}
	.st10{fill:#6DCDB8;stroke:#6DD1B9;stroke-width:8;stroke-miterlimit:10;}
</style>
<g>
	<path class="st0" d="M462.9,591.4c-69.2,0-125.4-56.3-125.4-125.4c0-28.3,20.5-83.2,60.9-163c29.9-59,60.1-110.7,60.4-111.2
		l4.8-8.1l4.7,8.1c0.3,0.5,30.3,52.1,59.8,111.2c40,79.8,60.2,134.7,60.2,163C588.4,535.1,532.1,591.4,462.9,591.4z M463.5,205.5
		c-22.3,38.8-115,203.8-115,260.4c0,63.1,51.3,114.4,114.4,114.4S577.4,529,577.4,465.9C577.4,409.3,485.6,244.4,463.5,205.5z"/>
	<path class="st0" d="M462.9,595.9c-71.7,0-129.9-58.3-129.9-129.9c0-29.1,20.6-84.6,61.4-165.1c29.8-59,60.3-110.9,60.6-111.4
		l8.7-14.7l8.6,14.8c0.3,0.5,30.3,52.2,60,111.4c40.3,80.5,60.7,136,60.7,165C592.9,537.6,534.6,595.9,462.9,595.9z M463.6,192.5
		l-0.9,1.5c-0.3,0.5-30.6,52.2-60.3,110.9c-40.1,79.2-60.4,133.4-60.4,161c0,66.7,54.3,120.9,120.9,120.9s120.9-54.3,120.9-120.9
		c0-27.6-20.1-81.8-59.8-161C494.6,246,464.7,194.5,464.4,194L463.6,192.5z M462.9,584.9c-65.6,0-118.9-53.4-118.9-118.9
		c0-24.7,16.7-71.4,49.6-138.8c26-53.3,54.8-104.3,66-123.8l3.9-6.8l3.9,6.9c26.8,47.2,114.4,205.8,114.4,262.6
		C581.9,531.5,528.5,584.9,462.9,584.9z M463.5,214.6C437.9,259.7,353,413.1,353,465.9c0,60.6,49.3,109.9,109.9,109.9
		s109.9-49.3,109.9-109.9C572.9,413.1,488.9,259.7,463.5,214.6z"/>
</g>
<g>
	<path class="st0" d="M798.1,647c-69.2,0-125.4-56.3-125.4-125.4c0-28.3,20.5-83.2,60.9-163c29.9-59,60.1-110.7,60.4-111.2l4.8-8.1
		l4.7,8.1c0.3,0.5,30.3,52.1,59.8,111.2c40,79.8,60.2,134.7,60.2,163C923.5,590.7,867.2,647,798.1,647z M798.6,261.2
		c-22.3,38.8-115,203.8-115,260.4c0,63.1,51.3,114.4,114.4,114.4s114.4-51.3,114.4-114.4C912.5,465,820.7,300,798.6,261.2z"/>
	<path class="st0" d="M798.1,651.5c-71.7,0-129.9-58.3-129.9-129.9c0-29.1,20.6-84.6,61.4-165.1c29.8-59,60.3-110.9,60.6-111.4
		l8.7-14.7l8.6,14.8c0.3,0.5,30.3,52.2,60,111.4c40.3,80.5,60.7,136,60.7,165C928,593.2,869.7,651.5,798.1,651.5z M798.7,248.2
		l-0.9,1.5c-0.3,0.5-30.6,52.2-60.3,110.9c-40.1,79.2-60.4,133.4-60.4,161c0,66.7,54.3,120.9,120.9,120.9S919,588.3,919,521.6
		c0-27.6-20.1-81.8-59.8-161c-29.5-58.9-59.4-110.4-59.7-110.9L798.7,248.2z M798.1,640.5c-65.6,0-118.9-53.4-118.9-118.9
		c0-24.7,16.7-71.4,49.6-138.8c26-53.3,54.8-104.3,66-123.8l3.9-6.8l3.9,6.9C829.4,306.2,917,464.8,917,521.6
		C917,587.2,863.6,640.5,798.1,640.5z M798.6,270.3C773,315.4,688.1,468.7,688.1,521.6c0,60.6,49.3,109.9,109.9,109.9
		S908,582.2,908,521.6C908,468.7,824,315.4,798.6,270.3z"/>
</g>
<g>
	<path class="st0" d="M611.3,931.4c-69.2,0-125.4-56.3-125.4-125.4c0-28.3,20.5-83.2,60.9-163c29.9-59,60.1-110.7,60.4-111.2
		l4.8-8.1l4.7,8.1c0.3,0.5,30.3,52.1,59.8,111.2c40,79.8,60.2,134.7,60.2,163C736.8,875.1,680.5,931.4,611.3,931.4z M611.9,545.6
		c-22.3,38.8-115,203.8-115,260.4c0,63.1,51.3,114.4,114.4,114.4S725.8,869.1,725.8,806C725.8,749.4,634,584.4,611.9,545.6z"/>
	<path class="st0" d="M611.3,935.9c-71.7,0-129.9-58.3-129.9-129.9c0-29.1,20.6-84.6,61.4-165.1c29.8-59,60.3-110.9,60.6-111.4
		l8.7-14.7l8.6,14.8c0.3,0.5,30.3,52.2,60,111.4c40.3,80.5,60.7,136,60.7,165C741.3,877.6,683,935.9,611.3,935.9z M612,532.6
		l-0.9,1.5c-0.3,0.5-30.6,52.2-60.3,110.9c-40.1,79.2-60.4,133.4-60.4,161c0,66.7,54.3,120.9,120.9,120.9S732.3,872.7,732.3,806
		c0-27.6-20.1-81.8-59.8-161C643,586,613.1,534.6,612.8,534.1L612,532.6z M611.3,924.9c-65.6,0-118.9-53.4-118.9-118.9
		c0-24.7,16.7-71.4,49.6-138.8c26-53.3,54.8-104.3,66-123.8l3.9-6.8l3.9,6.9c26.8,47.2,114.4,205.8,114.4,262.6
		C730.3,871.6,676.9,924.9,611.3,924.9z M611.9,554.7C586.3,599.8,501.4,753.2,501.4,806c0,60.6,49.3,109.9,109.9,109.9
		S721.3,866.6,721.3,806C721.3,753.1,637.3,599.8,611.9,554.7z"/>
</g>
</svg>
