<?xml version="1.0" encoding="utf-8"?>
<!-- Generator: Adobe Illustrator 22.1.0, SVG Export Plug-In . SVG Version: 6.00 Build 0)  -->
<svg version="1.1" id="Layer_1" xmlns="http://www.w3.org/2000/svg" xmlns:xlink="http://www.w3.org/1999/xlink" x="0px" y="0px"
	 viewBox="0 0 1200 1200" style="enable-background:new 0 0 1200 1200;" xml:space="preserve">
<style type="text/css">
	.st0{fill:#6DD1B9;}
	.st1{fill:#6DD1B9;stroke:#6DD1B9;stroke-width:5;stroke-miterlimit:10;}
	.st2{fill:#6DD1B9;stroke:#6DD1B9;stroke-width:3;stroke-miterlimit:10;}
	.st3{fill:#6DD1B9;stroke:#6DD1B9;stroke-width:9;stroke-miterlimit:10;}
	.st4{fill:#6DD1B9;stroke:#6DCDB8;stroke-width:8;stroke-miterlimit:10;}
	.st5{fill:#6DD1B9;stroke:#6DD1B9;stroke-width:4;stroke-miterlimit:10;}
	.st6{fill:none;stroke:#6DD1B9;stroke-width:21;stroke-miterlimit:10;}
	.st7{fill:none;stroke:#6DD1B9;stroke-width:20;stroke-miterlimit:10;}
	.st8{fill:#6DCDB8;stroke:#6DCDB8;stroke-width:8;stroke-miterlimit:10;}
	.st9{fill:#6DCDB8;stroke:#6DD1B9;stroke-width:7;stroke-miterlimit:10;}
	.st10{fill:#6DCDB8;stroke:#6DD1B9;stroke-width:8;stroke-miterlimit:10;}
</style>
<path class="st8" d="M695,981c-45.7,0-88.8-17.9-121.4-50.5c-32.6-32.6-50.5-75.7-50.5-121.4V405.9c0-45.7,17.9-88.8,50.5-121.4
	S649.2,234,695,234c45.7,0,88.8,17.9,121.4,50.5c32.6,32.6,50.5,75.7,50.5,121.4v403.3c0,45.7-17.9,88.8-50.5,121.4
	C783.8,963.1,740.7,981,695,981z M695,251.3c-41.1,0-79.9,16.1-109.2,45.4c-29.3,29.3-45.4,68.1-45.4,109.2v403.3
	c0,41.1,16.1,79.9,45.4,109.2c29.3,29.3,68.1,45.4,109.2,45.4h0c41.1,0,79.9-16.1,109.2-45.4c29.3-29.3,45.4-68.1,45.4-109.2V405.9
	c0-41.1-16.1-79.9-45.4-109.2C774.8,267.4,736.1,251.3,695,251.3z"/>
<path class="st8" d="M722,659.8c-17.2,0-33.4-6.7-45.6-18.9c-12.2-12.2-18.9-28.4-18.9-45.6s6.7-33.4,18.9-45.6
	c25.2-25.2,66.1-25.2,91.2,0l0,0c25.2,25.2,25.2,66.1,0,91.2C755.4,653.1,739.2,659.8,722,659.8z M722,548.1
	c-12.1,0-24.2,4.6-33.4,13.8c-8.9,8.9-13.8,20.8-13.8,33.4s4.9,24.5,13.8,33.4c8.9,8.9,20.8,13.8,33.4,13.8s24.5-4.9,33.4-13.8
	c18.4-18.4,18.4-48.4,0-66.8C746.2,552.7,734.1,548.1,722,548.1z"/>
<rect x="523" y="464.4" class="st8" width="216.5" height="17.3"/>
</svg>
