<?xml version="1.0" encoding="utf-8"?>
<!-- Generator: Adobe Illustrator 22.1.0, SVG Export Plug-In . SVG Version: 6.00 Build 0)  -->
<svg version="1.1" id="Layer_1" xmlns="http://www.w3.org/2000/svg" xmlns:xlink="http://www.w3.org/1999/xlink" x="0px" y="0px"
	 viewBox="0 0 1200 1200" style="enable-background:new 0 0 1200 1200;" xml:space="preserve">
<style type="text/css">
	.st0{fill:#FFFFFF;stroke:#FFFFFF;stroke-width:9;stroke-miterlimit:10;}
</style>
<path class="st0" d="M969,1019H231c-10.8,0-19.5-8.7-19.5-19.5v-738c0-10.8,8.7-19.5,19.5-19.5h738c10.8,0,19.5,8.7,19.5,19.5v738
	C988.5,1010.3,979.8,1019,969,1019z M231,257c-2.4,0-4.5,2.1-4.5,4.5v738c0,2.4,2.1,4.5,4.5,4.5h738c2.4,0,4.5-2.1,4.5-4.5v-738
	c0-2.4-2.1-4.5-4.5-4.5H231z"/>
<path class="st0" d="M600,932c-76.3,0-148-29.7-201.9-83.6s-83.6-125.6-83.6-201.9s29.7-148,83.6-201.9S523.7,361,600,361
	s148,29.7,201.9,83.6s83.6,125.6,83.6,201.9s-29.7,148-83.6,201.9S676.3,932,600,932z M600,376c-72.3,0-140.2,28.1-191.3,79.2
	s-79.2,119-79.2,191.3s28.1,140.2,79.2,191.3S527.7,917,600,917s140.2-28.1,191.3-79.2s79.2-119,79.2-191.3s-28.1-140.2-79.2-191.3
	S672.3,376,600,376z"/>
<path class="st0" d="M919,251H281c-10.8,0-19.5-8.7-19.5-19.5v-79c0-10.8,8.7-19.5,19.5-19.5h638c10.8,0,19.5,8.7,19.5,19.5v79
	C938.5,242.3,929.8,251,919,251z M281,148c-2.4,0-4.5,2.1-4.5,4.5v79c0,2.4,2.1,4.5,4.5,4.5h638c2.4,0,4.5-2.1,4.5-4.5v-79
	c0-2.4-2.1-4.5-4.5-4.5H281z"/>
<path class="st0" d="M483,669c-33.4,0-60.5-27.1-60.5-60.5S449.6,548,483,548s60.5,27.1,60.5,60.5S516.4,669,483,669z M483,563
	c-25.1,0-45.5,20.4-45.5,45.5S457.9,654,483,654c25.1,0,45.5-20.4,45.5-45.5S508.1,563,483,563z"/>
<path class="st0" d="M823.5,683.1c-0.8,1.8-21,44.4-65.9,52.6c-21.7,4-37.8-8.6-54.8-21.8c-12.5-9.8-25.5-19.9-42.8-26
	c-14.5-5.2-26.7,7.4-45.3,28.4c-21.5,24.2-48.3,54.4-92.4,54.1c-32.4-0.2-67.9-13.5-102.6-38.5c-26-18.7-42.3-37.2-43-38l10.4-9.2
	l0,0l0,0c0.3,0.3,16.2,18.3,40.9,36.1c40.8,29.3,73.8,35.6,94.3,35.7c37.8,0.2,61.2-26.2,81.9-49.5c18.7-21,36.3-40.9,60.4-32.3
	c19.4,6.9,33.9,18.2,46.6,28.2c15.7,12.3,28.1,21.9,43.8,19.1c37.7-6.8,55.6-44.4,55.8-44.8L823.5,683.1z"/>
</svg>
